Padauk-Bold.ufo
<glyph name="quotedbl" format="2">
  <advance width="443"/>
  <unicode hex="0022"/>
  <outline>
    <contour>
      <point x="182" y="643" type="line"/>
      <point x="160" y="385" type="line"/>
      <point x="84" y="385" type="line"/>
      <point x="62" y="643" type="line"/>
    </contour>
    <contour>
      <point x="380" y="643" type="line"/>
      <point x="359" y="385" type="line"/>
      <point x="282" y="385" type="line"/>
      <point x="260" y="643" type="line"/>
    </contour>
  </outline>
</glyph>
<glyph name="numbersign" format="2">
  <advance width="555"/>
  <unicode hex="0023"/>
  <outline>
    <contour>
      <point x="324" y="265" type="line"/>
      <point x="240" y="265" type="line"/>
      <point x="230" y="181" type="line"/>
      <point x="314" y="181" type="line"/>
    </contour>
    <contour>
      <point x="500" y="88" type="line"/>
      <point x="395" y="88" type="line"/>
      <point x="380" y="-25" type="line"/>
      <point x="287" y="-25" type="line"/>
      <point x="302" y="88" type="line"/>
      <point x="218" y="88" type="line"/>
      <point x="203" y="-25" type="line"/>
      <point x="110" y="-25" type="line"/>
      <point x="125" y="88" type="line"/>
      <point x="55" y="88" type="line"/>
      <point x="55" y="181" type="line"/>
      <point x="137" y="181" type="line"/>
      <point x="147" y="265" type="line"/>
      <point x="55" y="265" type="line"/>
      <point x="55" y="358" type="line"/>
      <point x="159" y="358" type="line"/>
      <point x="177" y="485" type="line"/>
      <point x="270" y="485" type="line"/>
      <point x="253" y="358" type="line"/>
      <point x="336" y="358" type="line"/>
      <point x="354" y="485" type="line"/>
      <point x="447" y="485" type="line"/>
      <point x="430" y="358" type="line"/>
      <point x="500" y="358" type="line"/>
      <point x="500" y="265" type="line"/>
      <point x="417" y="265" type="line"/>
      <point x="407" y="181" type="line"/>
      <point x="500" y="181" type="line"/>
    </contour>
  </outline>
</glyph>
<glyph name="parenleft" format="2">
  <advance width="441"/>
  <unicode hex="0028"/>
  <outline>
    <contour>
      <point x="396" y="-464" type="curve"/>
      <point x="289" y="-464" type="line"/>
      <point x="133" y="-269"/>
      <point x="74" y="-45"/>
      <point x="74" y="220" type="curve" smooth="yes"/>
      <point x="74" y="489"/>
      <point x="145" y="711"/>
      <point x="292" y="917" type="curve"/>
      <point x="396" y="917" type="line"/>
      <point x="243" y="704"/>
      <point x="167" y="471"/>
      <point x="167" y="220" type="curve" smooth="yes"/>
      <point x="167" y="-30"/>
      <point x="238" y="-268"/>
    </contour>
  </outline>
</glyph>
<glyph name="parenright" format="2">
  <advance width="442"/>
  <unicode hex="0029"/>
  <outline>
    <contour>
      <point x="368" y="224" type="curve" smooth="yes"/>
      <point x="368" y="-41"/>
      <point x="308" y="-266"/>
      <point x="152" y="-460" type="curve"/>
      <point x="45" y="-460" type="line"/>
      <point x="206" y="-265"/>
      <point x="275" y="-24"/>
      <point x="275" y="224" type="curve" smooth="yes"/>
      <point x="275" y="475"/>
      <point x="200" y="708"/>
      <point x="45" y="921" type="curve"/>
      <point x="150" y="921" type="line"/>
      <point x="296" y="715"/>
      <point x="368" y="493"/>
    </contour>
  </outline>
</glyph>
<glyph name="comma" format="2">
  <advance width="249"/>
  <unicode hex="002C"/>
  <outline>
    <contour>
      <point x="208" y="62" type="curve" smooth="yes"/>
      <point x="208" y="-30"/>
      <point x="151" y="-116"/>
      <point x="95" y="-148" type="curve"/>
      <point x="83" y="-133" type="line"/>
      <point x="114" y="-109"/>
      <point x="141" y="-58"/>
      <point x="141" y="-5" type="curve" smooth="yes"/>
      <point x="141" y="7"/>
      <point x="141" y="11"/>
      <point x="140" y="18" type="curve"/>
      <point x="128" y="9"/>
      <point x="87" y="-5"/>
      <point x="70" y="-5" type="curve" smooth="yes"/>
      <point x="53" y="-5"/>
      <point x="40" y="26"/>
      <point x="40" y="62" type="curve" smooth="yes"/>
      <point x="40" y="110"/>
      <point x="79" y="151"/>
      <point x="123" y="151" type="curve" smooth="yes"/>
      <point x="174" y="151"/>
      <point x="208" y="109"/>
    </contour>
  </outline>
</glyph>
<glyph name="slash" format="2">
  <advance width="537"/>
  <unicode hex="002F"/>
  <outline>
    <contour>
      <point x="481" y="756" type="line"/>
      <point x="127" y="-254" type="line"/>
      <point x="55" y="-182" type="line"/>
      <point x="409" y="825" type="line"/>
    </contour>
  </outline>
</glyph>
<glyph name="two" format="2">
  <advance width="507"/>
  <unicode hex="0032"/>
  <outline>
    <contour>
      <point x="469" y="0" type="line"/>
      <point x="37" y="0" type="line"/>
      <point x="37" y="104" type="line"/>
      <point x="320" y="317"/>
      <point x="355" y="417"/>
      <point x="355" y="469" type="curve" smooth="yes"/>
      <point x="355" y="525"/>
      <point x="324" y="565"/>
      <point x="269" y="565" type="curve" smooth="yes"/>
      <point x="212" y="565"/>
      <point x="175" y="527"/>
      <point x="172" y="467" type="curve"/>
      <point x="56" y="467" type="line"/>
      <point x="59" y="583"/>
      <point x="150" y="655"/>
      <point x="267" y="655" type="curve" smooth="yes"/>
      <point x="388" y="655"/>
      <point x="469" y="579"/>
      <point x="469" y="476" type="curve" smooth="yes"/>
      <point x="469" y="383"/>
      <point x="426" y="281"/>
      <point x="162" y="91" type="curve"/>
      <point x="469" y="91" type="line"/>
    </contour>
  </outline>
</glyph>
<glyph name="three" format="2">
  <advance width="507"/>
  <unicode hex="0033"/>
  <outline>
    <contour>
      <point x="465" y="178" type="curve" smooth="yes"/>
      <point x="465" y="66"/>
      <point x="363" y="-13"/>
      <point x="253" y="-13" type="curve" smooth="yes"/>
      <point x="109" y="-13"/>
      <point x="41" y="62"/>
      <point x="41" y="177" type="curve"/>
      <point x="157" y="177" type="line"/>
      <point x="159" y="121"/>
      <point x="189" y="75"/>
      <point x="248" y="75" type="curve" smooth="yes"/>
      <point x="306" y="75"/>
      <point x="351" y="117"/>
      <point x="351" y="182" type="curve" smooth="yes"/>
      <point x="351" y="276"/>
      <point x="300" y="291"/>
      <point x="201" y="291" type="curve"/>
      <point x="201" y="379" type="line"/>
      <point x="287" y="380"/>
      <point x="338" y="400"/>
      <point x="338" y="475" type="curve" smooth="yes"/>
      <point x="338" y="538"/>
      <point x="296" y="567"/>
      <point x="250" y="567" type="curve" smooth="yes"/>
      <point x="197" y="567"/>
      <point x="163" y="534"/>
      <point x="159" y="474" type="curve"/>
      <point x="46" y="474" type="line"/>
      <point x="51" y="588"/>
      <point x="129" y="655"/>
      <point x="252" y="655" type="curve" smooth="yes"/>
      <point x="372" y="655"/>
      <point x="451" y="580"/>
      <point x="451" y="476" type="curve" smooth="yes"/>
      <point x="451" y="395"/>
      <point x="403" y="360"/>
      <point x="349" y="336" type="curve"/>
      <point x="412" y="314"/>
      <point x="465" y="276"/>
    </contour>
  </outline>
</glyph>
<glyph name="five" format="2">
  <advance width="507"/>
  <unicode hex="0035"/>
  <outline>
    <contour>
      <point x="468" y="221" type="curve" smooth="yes"/>
      <point x="468" y="93"/>
      <point x="372" y="-12"/>
      <point x="247" y="-12" type="curve" smooth="yes"/>
      <point x="125" y="-12"/>
      <point x="43" y="49"/>
      <point x="38" y="161" type="curve"/>
      <point x="150" y="161" type="line"/>
      <point x="150" y="104"/>
      <point x="184" y="76"/>
      <point x="243" y="76" type="curve" smooth="yes"/>
      <point x="313" y="76"/>
      <point x="354" y="138"/>
      <point x="354" y="215" type="curve" smooth="yes"/>
      <point x="354" y="295"/>
      <point x="325" y="339"/>
      <point x="257" y="339" type="curve" smooth="yes"/>
      <point x="203" y="339"/>
      <point x="175" y="312"/>
      <point x="150" y="262" type="curve"/>
      <point x="48" y="262" type="line"/>
      <point x="64" y="643" type="line"/>
      <point x="430" y="643" type="line"/>
      <point x="430" y="550" type="line"/>
      <point x="171" y="550" type="line"/>
      <point x="161" y="371" type="line"/>
      <point x="189" y="405"/>
      <point x="228" y="422"/>
      <point x="291" y="422" type="curve" smooth="yes"/>
      <point x="402" y="422"/>
      <point x="468" y="325"/>
    </contour>
  </outline>
</glyph>
<glyph name="seven" format="2">
  <advance width="507"/>
  <unicode hex="0037"/>
  <outline>
    <contour>
      <point x="463" y="530" type="line"/>
      <point x="248" y="0" type="line"/>
      <point x="116" y="0" type="line"/>
      <point x="356" y="551" type="line"/>
      <point x="44" y="551" type="line"/>
      <point x="44" y="643" type="line"/>
      <point x="463" y="643" type="line"/>
    </contour>
  </outline>
</glyph>
<glyph name="nine" format="2">
  <advance width="507"/>
  <unicode hex="0039"/>
  <outline>
    <contour>
      <point x="343" y="443" type="curve" smooth="yes"/>
      <point x="343" y="524"/>
      <point x="313" y="567"/>
      <point x="246" y="567" type="curve" smooth="yes"/>
      <point x="179" y="567"/>
      <point x="150" y="524"/>
      <point x="150" y="443" type="curve" smooth="yes"/>
      <point x="150" y="361"/>
      <point x="179" y="318"/>
      <point x="246" y="318" type="curve" smooth="yes"/>
      <point x="313" y="318"/>
      <point x="343" y="361"/>
    </contour>
    <contour>
      <point x="473" y="345" type="curve" smooth="yes"/>
      <point x="473" y="181"/>
      <point x="428" y="-13"/>
      <point x="240" y="-13" type="curve" smooth="yes"/>
      <point x="137" y="-13"/>
      <point x="52" y="55"/>
      <point x="47" y="158" type="curve"/>
      <point x="159" y="158" type="line"/>
      <point x="161" y="103"/>
      <point x="193" y="75"/>
      <point x="239" y="75" type="curve" smooth="yes"/>
      <point x="341" y="75"/>
      <point x="361" y="240"/>
      <point x="361" y="314" type="curve"/>
      <point x="332" y="265"/>
      <point x="279" y="236"/>
      <point x="213" y="236" type="curve" smooth="yes"/>
      <point x="75" y="236"/>
      <point x="34" y="354"/>
      <point x="34" y="434" type="curve" smooth="yes"/>
      <point x="34" y="537"/>
      <point x="93" y="655"/>
      <point x="251" y="655" type="curve" smooth="yes"/>
      <point x="439" y="655"/>
      <point x="473" y="509"/>
    </contour>
  </outline>
</glyph>
<glyph name="colon" format="2">
  <advance width="243"/>
  <unicode hex="003A"/>
  <outline>
    <contour>
      <point x="203" y="59" type="curve" smooth="yes"/>
      <point x="203" y="16"/>
      <point x="164" y="-20"/>
      <point x="122" y="-20" type="curve" smooth="yes"/>
      <point x="79" y="-20"/>
      <point x="40" y="16"/>
      <point x="40" y="59" type="curve" smooth="yes"/>
      <point x="40" y="103"/>
      <point x="79" y="138"/>
      <point x="122" y="138" type="curve" smooth="yes"/>
      <point x="164" y="138"/>
      <point x="203" y="103"/>
    </contour>
    <contour>
      <point x="203" y="384" type="curve" smooth="yes"/>
      <point x="203" y="341"/>
      <point x="164" y="305"/>
      <point x="122" y="305" type="curve" smooth="yes"/>
      <point x="79" y="305"/>
      <point x="40" y="341"/>
      <point x="40" y="384" type="curve" smooth="yes"/>
      <point x="40" y="428"/>
      <point x="79" y="464"/>
      <point x="122" y="464" type="curve" smooth="yes"/>
      <point x="164" y="464"/>
      <point x="203" y="428"/>
    </contour>
  </outline>
</glyph>
<glyph name="semicolon" format="2">
  <advance width="246"/>
  <unicode hex="003B"/>
  <outline>
    <contour>
      <point x="198" y="56" type="curve" smooth="yes"/>
      <point x="198" y="-25"/>
      <point x="146" y="-98"/>
      <point x="96" y="-131" type="curve"/>
      <point x="79" y="-117" type="line"/>
      <point x="107" y="-95"/>
      <point x="136" y="-50"/>
      <point x="136" y="1" type="curve" smooth="yes"/>
      <point x="136" y="5"/>
      <point x="136" y="11"/>
      <point x="135" y="15" type="curve"/>
      <point x="115" y="6"/>
      <point x="79" y="-6"/>
      <point x="68" y="-6" type="curve" smooth="yes"/>
      <point x="59" y="-6"/>
      <point x="40" y="14"/>
      <point x="40" y="58" type="curve" smooth="yes"/>
      <point x="40" y="101"/>
      <point x="76" y="140"/>
      <point x="117" y="140" type="curve" smooth="yes"/>
      <point x="166" y="140"/>
      <point x="198" y="98"/>
    </contour>
    <contour>
      <point x="203" y="385" type="curve" smooth="yes"/>
      <point x="203" y="341"/>
      <point x="164" y="305"/>
      <point x="122" y="305" type="curve" smooth="yes"/>
      <point x="79" y="305"/>
      <point x="40" y="341"/>
      <point x="40" y="385" type="curve" smooth="yes"/>
      <point x="40" y="428"/>
      <point x="79" y="464"/>
      <point x="122" y="464" type="curve" smooth="yes"/>
      <point x="164" y="464"/>
      <point x="203" y="428"/>
    </contour>
  </outline>
</glyph>
<glyph name="equal" format="2">
  <advance width="586"/>
  <unicode hex="003D"/>
  <outline>
    <contour>
      <point x="550" y="368" type="line"/>
      <point x="550" y="275" type="line"/>
      <point x="35" y="275" type="line"/>
      <point x="35" y="368" type="line"/>
    </contour>
    <contour>
      <point x="550" y="171" type="line"/>
      <point x="550" y="78" type="line"/>
      <point x="35" y="78" type="line"/>
      <point x="35" y="171" type="line"/>
    </contour>
  </outline>
</glyph>
<glyph name="B" format="2">
  <advance width="600"/>
  <unicode hex="0042"/>
  <outline>
    <contour>
      <point x="430" y="191" type="curve" smooth="yes"/>
      <point x="430" y="260"/>
      <point x="367" y="288"/>
      <point x="292" y="288" type="curve" smooth="yes"/>
      <point x="183" y="288" type="line"/>
      <point x="183" y="94" type="line"/>
      <point x="293" y="94" type="line" smooth="yes"/>
      <point x="370" y="94"/>
      <point x="430" y="125"/>
    </contour>
    <contour>
      <point x="405" y="464" type="curve" smooth="yes"/>
      <point x="405" y="518"/>
      <point x="360" y="549"/>
      <point x="294" y="549" type="curve" smooth="yes"/>
      <point x="183" y="549" type="line"/>
      <point x="183" y="379" type="line"/>
      <point x="287" y="379" type="line" smooth="yes"/>
      <point x="358" y="379"/>
      <point x="405" y="412"/>
    </contour>
    <contour>
      <point x="550" y="170" type="curve" smooth="yes"/>
      <point x="550" y="64"/>
      <point x="435" y="0"/>
      <point x="341" y="0" type="curve" smooth="yes"/>
      <point x="66" y="0" type="line"/>
      <point x="66" y="643" type="line"/>
      <point x="328" y="643" type="line" smooth="yes"/>
      <point x="430" y="643"/>
      <point x="521" y="592"/>
      <point x="521" y="485" type="curve" smooth="yes"/>
      <point x="521" y="405"/>
      <point x="463" y="361"/>
      <point x="399" y="336" type="curve"/>
      <point x="485" y="311"/>
      <point x="550" y="265"/>
    </contour>
  </outline>
</glyph>
<glyph name="C" format="2">
  <advance width="634"/>
  <unicode hex="0043"/>
  <outline>
    <contour>
      <point x="584" y="201" type="line"/>
      <point x="574" y="73"/>
      <point x="460" y="-13"/>
      <point x="326" y="-13" type="curve" smooth="yes"/>
      <point x="126" y="-13"/>
      <point x="49" y="147"/>
      <point x="49" y="320" type="curve" smooth="yes"/>
      <point x="49" y="499"/>
      <point x="134" y="655"/>
      <point x="326" y="655" type="curve" smooth="yes"/>
      <point x="488" y="655"/>
      <point x="569" y="579"/>
      <point x="578" y="450" type="curve"/>
      <point x="462" y="450" type="line"/>
      <point x="454" y="525"/>
      <point x="414" y="564"/>
      <point x="326" y="564" type="curve" smooth="yes"/>
      <point x="215" y="564"/>
      <point x="170" y="474"/>
      <point x="170" y="320" type="curve" smooth="yes"/>
      <point x="170" y="160"/>
      <point x="216" y="78"/>
      <point x="325" y="78" type="curve" smooth="yes"/>
      <point x="406" y="78"/>
      <point x="449" y="128"/>
      <point x="458" y="201" type="curve"/>
    </contour>
  </outline>
</glyph>
<glyph name="E" format="2">
  <advance width="552"/>
  <unicode hex="0045"/>
  <outline>
    <contour>
      <point x="490" y="0" type="line"/>
      <point x="66" y="0" type="line"/>
      <point x="66" y="643" type="line"/>
      <point x="481" y="643" type="line"/>
      <point x="481" y="549" type="line"/>
      <point x="180" y="549" type="line"/>
      <point x="180" y="377" type="line"/>
      <point x="466" y="377" type="line"/>
      <point x="466" y="287" type="line"/>
      <point x="180" y="287" type="line"/>
      <point x="180" y="94" type="line"/>
      <point x="490" y="94" type="line"/>
    </contour>
  </outline>
</glyph>
<glyph name="F" format="2">
  <advance width="516"/>
  <unicode hex="0046"/>
  <outline>
    <contour>
      <point x="444" y="284" type="line"/>
      <point x="183" y="284" type="line"/>
      <point x="183" y="0" type="line"/>
      <point x="66" y="0" type="line"/>
      <point x="66" y="643" type="line"/>
      <point x="462" y="643" type="line"/>
      <point x="462" y="549" type="line"/>
      <point x="183" y="549" type="line"/>
      <point x="183" y="377" type="line"/>
      <point x="444" y="377" type="line"/>
    </contour>
  </outline>
</glyph>
<glyph name="G" format="2">
  <advance width="687"/>
  <unicode hex="0047"/>
  <outline>
    <contour>
      <point x="621" y="29" type="line"/>
      <point x="529" y="2"/>
      <point x="444" y="-13"/>
      <point x="389" y="-13" type="curve" smooth="yes"/>
      <point x="159" y="-13"/>
      <point x="49" y="135"/>
      <point x="49" y="325" type="curve" smooth="yes"/>
      <point x="49" y="513"/>
      <point x="182" y="655"/>
      <point x="371" y="655" type="curve" smooth="yes"/>
      <point x="537" y="655"/>
      <point x="627" y="571"/>
      <point x="627" y="455" type="curve"/>
      <point x="508" y="455" type="line"/>
      <point x="506" y="520"/>
      <point x="447" y="561"/>
      <point x="371" y="561" type="curve" smooth="yes"/>
      <point x="224" y="561"/>
      <point x="170" y="444"/>
      <point x="170" y="323" type="curve" smooth="yes"/>
      <point x="170" y="186"/>
      <point x="242" y="82"/>
      <point x="383" y="82" type="curve" smooth="yes"/>
      <point x="413" y="82"/>
      <point x="454" y="87"/>
      <point x="501" y="98" type="curve"/>
      <point x="501" y="245" type="line"/>
      <point x="375" y="245" type="line"/>
      <point x="375" y="342" type="line"/>
      <point x="621" y="342" type="line"/>
    </contour>
  </outline>
</glyph>
<glyph name="H" format="2">
  <advance width="635"/>
  <unicode hex="0048"/>
  <outline>
    <contour>
      <point x="570" y="0" type="line"/>
      <point x="453" y="0" type="line"/>
      <point x="453" y="287" type="line"/>
      <point x="181" y="287" type="line"/>
      <point x="181" y="0" type="line"/>
      <point x="66" y="0" type="line"/>
      <point x="66" y="643" type="line"/>
      <point x="181" y="643" type="line"/>
      <point x="181" y="380" type="line"/>
      <point x="453" y="380" type="line"/>
      <point x="453" y="643" type="line"/>
      <point x="570" y="643" type="line"/>
    </contour>
  </outline>
</glyph>
<glyph name="L" format="2">
  <advance width="496"/>
  <unicode hex="004C"/>
  <outline>
    <contour>
      <point x="472" y="0" type="line"/>
      <point x="66" y="0" type="line"/>
      <point x="66" y="643" type="line"/>
      <point x="183" y="643" type="line"/>
      <point x="183" y="94" type="line"/>
      <point x="472" y="94" type="line"/>
    </contour>
  </outline>
</glyph>
<glyph name="N" format="2">
  <advance width="670"/>
  <unicode hex="004E"/>
  <outline>
    <contour>
      <point x="606" y="0" type="line"/>
      <point x="438" y="0" type="line"/>
      <point x="178" y="518" type="line"/>
      <point x="178" y="0" type="line"/>
      <point x="66" y="0" type="line"/>
      <point x="66" y="643" type="line"/>
      <point x="232" y="643" type="line"/>
      <point x="492" y="124" type="line"/>
      <point x="492" y="643" type="line"/>
      <point x="606" y="643" type="line"/>
    </contour>
  </outline>
</glyph>
<glyph name="Q" format="2">
  <advance width="729"/>
  <unicode hex="0051"/>
  <outline>
    <contour>
      <point x="530" y="326" type="curve" smooth="yes"/>
      <point x="530" y="474"/>
      <point x="478" y="561"/>
      <point x="351" y="561" type="curve" smooth="yes"/>
      <point x="224" y="561"/>
      <point x="171" y="474"/>
      <point x="171" y="326" type="curve" smooth="yes"/>
      <point x="171" y="178"/>
      <point x="224" y="82"/>
      <point x="351" y="82" type="curve" smooth="yes"/>
      <point x="478" y="82"/>
      <point x="530" y="178"/>
    </contour>
    <contour>
      <point x="699" y="0" type="line"/>
      <point x="464" y="0" type="line"/>
      <point x="407" y="-8"/>
      <point x="371" y="-13"/>
      <point x="351" y="-13" type="curve" smooth="yes"/>
      <point x="148" y="-13"/>
      <point x="49" y="142"/>
      <point x="49" y="326" type="curve" smooth="yes"/>
      <point x="49" y="516"/>
      <point x="155" y="655"/>
      <point x="351" y="655" type="curve" smooth="yes"/>
      <point x="553" y="655"/>
      <point x="651" y="508"/>
      <point x="651" y="326" type="curve" smooth="yes"/>
      <point x="651" y="231"/>
      <point x="623" y="148"/>
      <point x="569" y="90" type="curve"/>
      <point x="699" y="90" type="line"/>
    </contour>
  </outline>
</glyph>
<glyph name="S" format="2">
  <advance width="601"/>
  <unicode hex="0053"/>
  <outline>
    <contour>
      <point x="551" y="184" type="curve" smooth="yes"/>
      <point x="551" y="45"/>
      <point x="409" y="-13"/>
      <point x="292" y="-13" type="curve" smooth="yes"/>
      <point x="161" y="-13"/>
      <point x="49" y="61"/>
      <point x="49" y="199" type="curve"/>
      <point x="170" y="199" type="line"/>
      <point x="172" y="121"/>
      <point x="220" y="82"/>
      <point x="294" y="82" type="curve" smooth="yes"/>
      <point x="354" y="82"/>
      <point x="436" y="102"/>
      <point x="436" y="174" type="curve" smooth="yes"/>
      <point x="436" y="331"/>
      <point x="65" y="227"/>
      <point x="65" y="464" type="curve" smooth="yes"/>
      <point x="65" y="587"/>
      <point x="193" y="655"/>
      <point x="299" y="655" type="curve" smooth="yes"/>
      <point x="421" y="655"/>
      <point x="531" y="600"/>
      <point x="531" y="469" type="curve"/>
      <point x="411" y="469" type="line"/>
      <point x="411" y="537"/>
      <point x="357" y="564"/>
      <point x="298" y="564" type="curve" smooth="yes"/>
      <point x="241" y="564"/>
      <point x="180" y="535"/>
      <point x="180" y="473" type="curve" smooth="yes"/>
      <point x="180" y="332"/>
      <point x="551" y="419"/>
    </contour>
  </outline>
</glyph>
<glyph name="T" format="2">
  <advance width="560"/>
  <unicode hex="0054"/>
  <outline>
    <contour>
      <point x="536" y="549" type="line"/>
      <point x="339" y="549" type="line"/>
      <point x="339" y="0" type="line"/>
      <point x="220" y="0" type="line"/>
      <point x="220" y="549" type="line"/>
      <point x="24" y="549" type="line"/>
      <point x="24" y="643" type="line"/>
      <point x="536" y="643" type="line"/>
    </contour>
  </outline>
</glyph>
<glyph name="U" format="2">
  <advance width="667"/>
  <unicode hex="0055"/>
  <outline>
    <contour>
      <point x="603" y="272" type="line" smooth="yes"/>
      <point x="603" y="85"/>
      <point x="498" y="-13"/>
      <point x="329" y="-13" type="curve" smooth="yes"/>
      <point x="153" y="-13"/>
      <point x="66" y="93"/>
      <point x="66" y="272" type="curve" smooth="yes"/>
      <point x="66" y="643" type="line"/>
      <point x="183" y="643" type="line"/>
      <point x="183" y="272" type="line" smooth="yes"/>
      <point x="183" y="130"/>
      <point x="240" y="82"/>
      <point x="332" y="82" type="curve" smooth="yes"/>
      <point x="425" y="82"/>
      <point x="484" y="129"/>
      <point x="484" y="272" type="curve" smooth="yes"/>
      <point x="484" y="643" type="line"/>
      <point x="603" y="643" type="line"/>
    </contour>
  </outline>
</glyph>
<glyph name="V" format="2">
  <advance width="632"/>
  <unicode hex="0056"/>
  <outline>
    <contour>
      <point x="622" y="643" type="line"/>
      <point x="382" y="0" type="line"/>
      <point x="244" y="0" type="line"/>
      <point x="10" y="643" type="line"/>
      <point x="139" y="643" type="line"/>
      <point x="316" y="137" type="line"/>
      <point x="494" y="643" type="line"/>
    </contour>
  </outline>
</glyph>
<glyph name="W" format="2">
  <advance width="882"/>
  <unicode hex="0057"/>
  <outline>
    <contour>
      <point x="872" y="643" type="line"/>
      <point x="701" y="0" type="line"/>
      <point x="573" y="0" type="line"/>
      <point x="441" y="499" type="line"/>
      <point x="308" y="0" type="line"/>
      <point x="181" y="0" type="line"/>
      <point x="10" y="643" type="line"/>
      <point x="137" y="643" type="line"/>
      <point x="247" y="151" type="line"/>
      <point x="376" y="643" type="line"/>
      <point x="506" y="643" type="line"/>
      <point x="634" y="151" type="line"/>
      <point x="745" y="643" type="line"/>
    </contour>
  </outline>
</glyph>
<glyph name="Z" format="2">
  <advance width="559"/>
  <unicode hex="005A"/>
  <outline>
    <contour>
      <point x="518" y="0" type="line"/>
      <point x="40" y="0" type="line"/>
      <point x="40" y="106" type="line"/>
      <point x="376" y="549" type="line"/>
      <point x="59" y="549" type="line"/>
      <point x="59" y="643" type="line"/>
      <point x="511" y="643" type="line"/>
      <point x="511" y="535" type="line"/>
      <point x="175" y="94" type="line"/>
      <point x="518" y="94" type="line"/>
    </contour>
  </outline>
</glyph>
<glyph name="bracketright" format="2">
  <advance width="349"/>
  <unicode hex="005D"/>
  <outline>
    <contour>
      <point x="269" y="-177" type="line"/>
      <point x="80" y="-177" type="line"/>
      <point x="80" y="-108" type="line"/>
      <point x="173" y="-108" type="line"/>
      <point x="173" y="574" type="line"/>
      <point x="80" y="574" type="line"/>
      <point x="80" y="643" type="line"/>
      <point x="269" y="643" type="line"/>
    </contour>
  </outline>
</glyph>
<glyph name="grave" format="2">
  <advance width="218"/>
  <unicode hex="0060"/>
  <outline>
    <contour>
      <point x="169" y="534" type="line"/>
      <point x="109" y="534" type="line"/>
      <point x="-23" y="692" type="line"/>
      <point x="85" y="692" type="line"/>
    </contour>
  </outline>
</glyph>
<glyph name="a" format="2">
  <advance width="491"/>
  <unicode hex="0061"/>
  <outline>
    <contour>
      <point x="327" y="221" type="curve"/>
      <point x="316" y="222"/>
      <point x="299" y="223"/>
      <point x="284" y="223" type="curve" smooth="yes"/>
      <point x="214" y="223"/>
      <point x="150" y="197"/>
      <point x="150" y="130" type="curve" smooth="yes"/>
      <point x="150" y="91"/>
      <point x="183" y="61"/>
      <point x="225" y="61" type="curve" smooth="yes"/>
      <point x="314" y="61"/>
      <point x="327" y="136"/>
    </contour>
    <contour>
      <point x="446" y="0" type="curve"/>
      <point x="347" y="0" type="line"/>
      <point x="343" y="15"/>
      <point x="337" y="40"/>
      <point x="335" y="56" type="curve"/>
      <point x="285" y="6"/>
      <point x="255" y="-12"/>
      <point x="200" y="-12" type="curve" smooth="yes"/>
      <point x="117" y="-12"/>
      <point x="41" y="37"/>
      <point x="41" y="122" type="curve" smooth="yes"/>
      <point x="41" y="251"/>
      <point x="161" y="287"/>
      <point x="263" y="287" type="curve" smooth="yes"/>
      <point x="327" y="287" type="line"/>
      <point x="327" y="292"/>
      <point x="327" y="298"/>
      <point x="327" y="303" type="curve" smooth="yes"/>
      <point x="327" y="356"/>
      <point x="312" y="390"/>
      <point x="247" y="390" type="curve" smooth="yes"/>
      <point x="196" y="390"/>
      <point x="173" y="369"/>
      <point x="168" y="323" type="curve"/>
      <point x="61" y="323" type="line"/>
      <point x="61" y="411"/>
      <point x="139" y="457"/>
      <point x="248" y="457" type="curve" smooth="yes"/>
      <point x="313" y="457"/>
      <point x="401" y="440"/>
      <point x="423" y="372" type="curve" smooth="yes"/>
      <point x="431" y="350"/>
      <point x="433" y="309"/>
      <point x="433" y="263" type="curve" smooth="yes"/>
      <point x="433" y="148" type="line" smooth="yes"/>
      <point x="433" y="92"/>
      <point x="437" y="32"/>
    </contour>
  </outline>
</glyph>
<glyph name="b" format="2">
  <advance width="539"/>
  <unicode hex="0062"/>
  <outline>
    <contour>
      <point x="389" y="221" type="curve" smooth="yes"/>
      <point x="389" y="295"/>
      <point x="362" y="390"/>
      <point x="274" y="390" type="curve" smooth="yes"/>
      <point x="200" y="390"/>
      <point x="165" y="325"/>
      <point x="165" y="224" type="curve" smooth="yes"/>
      <point x="165" y="144"/>
      <point x="196" y="61"/>
      <point x="276" y="61" type="curve" smooth="yes"/>
      <point x="352" y="61"/>
      <point x="389" y="137"/>
    </contour>
    <contour>
      <point x="498" y="224" type="curve" smooth="yes"/>
      <point x="498" y="79"/>
      <point x="411" y="-12"/>
      <point x="298" y="-12" type="curve" smooth="yes"/>
      <point x="238" y="-12"/>
      <point x="192" y="14"/>
      <point x="166" y="51" type="curve"/>
      <point x="166" y="0" type="line"/>
      <point x="59" y="0" type="line"/>
      <point x="59" y="643" type="line"/>
      <point x="165" y="643" type="line"/>
      <point x="165" y="398" type="line"/>
      <point x="191" y="429"/>
      <point x="232" y="457"/>
      <point x="303" y="457" type="curve" smooth="yes"/>
      <point x="457" y="457"/>
      <point x="498" y="319"/>
    </contour>
  </outline>
</glyph>
<glyph name="f" format="2">
  <advance width="309"/>
  <unicode hex="0066"/>
  <outline>
    <contour>
      <point x="309" y="567" type="line"/>
      <point x="293" y="575"/>
      <point x="277" y="580"/>
      <point x="259" y="580" type="curve" smooth="yes"/>
      <point x="213" y="580"/>
      <point x="199" y="558"/>
      <point x="199" y="510" type="curve" smooth="yes"/>
      <point x="199" y="445" type="line"/>
      <point x="297" y="445" type="line"/>
      <point x="297" y="375" type="line"/>
      <point x="199" y="375" type="line"/>
      <point x="199" y="0" type="line"/>
      <point x="91" y="0" type="line"/>
      <point x="91" y="375" type="line"/>
      <point x="9" y="375" type="line"/>
      <point x="9" y="445" type="line"/>
      <point x="91" y="445" type="line"/>
      <point x="91" y="513" type="line" smooth="yes"/>
      <point x="91" y="619"/>
      <point x="137" y="654"/>
      <point x="227" y="654" type="curve" smooth="yes"/>
      <point x="253" y="654"/>
      <point x="280" y="650"/>
      <point x="309" y="640" type="curve"/>
    </contour>
  </outline>
</glyph>
<glyph name="i" format="2">
  <advance width="225"/>
  <unicode hex="0069"/>
  <outline>
    <contour>
      <point x="166" y="0" type="line"/>
      <point x="59" y="0" type="line"/>
      <point x="59" y="445" type="line"/>
      <point x="166" y="445" type="line"/>
    </contour>
    <contour>
      <point x="173" y="538" type="line"/>
      <point x="51" y="538" type="line"/>
      <point x="51" y="643" type="line"/>
      <point x="173" y="643" type="line"/>
    </contour>
  </outline>
</glyph>
<glyph name="j" format="2">
  <advance width="294"/>
  <unicode hex="006A"/>
  <outline>
    <contour>
      <point x="235" y="-72" type="line" smooth="yes"/>
      <point x="235" y="-138"/>
      <point x="188" y="-188"/>
      <point x="105" y="-188" type="curve" smooth="yes"/>
      <point x="64" y="-188"/>
      <point x="12" y="-173"/>
      <point x="-21" y="-143" type="curve"/>
      <point x="32" y="-76" type="line"/>
      <point x="47" y="-91"/>
      <point x="65" y="-99"/>
      <point x="83" y="-99" type="curve" smooth="yes"/>
      <point x="111" y="-99"/>
      <point x="127" y="-79"/>
      <point x="127" y="-45" type="curve" smooth="yes"/>
      <point x="127" y="445" type="line"/>
      <point x="235" y="445" type="line"/>
    </contour>
    <contour>
      <point x="241" y="616" type="line"/>
      <point x="214" y="538" type="line"/>
      <point x="121" y="565" type="line"/>
      <point x="149" y="643" type="line"/>
    </contour>
  </outline>
</glyph>
<glyph name="k" format="2">
  <advance width="475"/>
  <unicode hex="006B"/>
  <outline>
    <contour>
      <point x="460" y="0" type="line"/>
      <point x="326" y="0" type="line"/>
      <point x="166" y="234" type="line"/>
      <point x="166" y="0" type="line"/>
      <point x="59" y="0" type="line"/>
      <point x="59" y="643" type="line"/>
      <point x="166" y="643" type="line"/>
      <point x="166" y="265" type="line"/>
      <point x="316" y="445" type="line"/>
      <point x="446" y="445" type="line"/>
      <point x="279" y="253" type="line"/>
    </contour>
  </outline>
</glyph>
<glyph name="l" format="2">
  <advance width="225"/>
  <unicode hex="006C"/>
  <outline>
    <contour>
      <point x="166" y="0" type="line"/>
      <point x="59" y="0" type="line"/>
      <point x="59" y="643" type="line"/>
      <point x="166" y="643" type="line"/>
    </contour>
  </outline>
</glyph>
<glyph name="v" format="2">
  <advance width="482"/>
  <unicode hex="0076"/>
  <outline>
    <contour>
      <point x="471" y="445" type="line"/>
      <point x="299" y="0" type="line"/>
      <point x="183" y="0" type="line"/>
      <point x="10" y="445" type="line"/>
      <point x="127" y="445" type="line"/>
      <point x="243" y="122" type="line"/>
      <point x="357" y="445" type="line"/>
    </contour>
  </outline>
</glyph>
<glyph name="x" format="2">
  <advance width="487"/>
  <unicode hex="0078"/>
  <outline>
    <contour>
      <point x="475" y="0" type="line"/>
      <point x="346" y="0" type="line"/>
      <point x="236" y="164" type="line"/>
      <point x="132" y="0" type="line"/>
      <point x="12" y="0" type="line"/>
      <point x="177" y="236" type="line"/>
      <point x="26" y="445" type="line"/>
      <point x="155" y="445" type="line"/>
      <point x="252" y="304" type="line"/>
      <point x="341" y="445" type="line"/>
      <point x="461" y="445" type="line"/>
      <point x="312" y="236" type="line"/>
    </contour>
  </outline>
</glyph>
<glyph name="y" format="2">
  <advance width="481"/>
  <unicode hex="0079"/>
  <outline>
    <contour>
      <point x="471" y="445" type="line"/>
      <point x="268" y="-103" type="line" smooth="yes"/>
      <point x="250" y="-150"/>
      <point x="204" y="-182"/>
      <point x="139" y="-182" type="curve" smooth="yes"/>
      <point x="84" y="-182"/>
      <point x="33" y="-153"/>
      <point x="7" y="-102" type="curve"/>
      <point x="78" y="-51" type="line"/>
      <point x="90" y="-78"/>
      <point x="108" y="-93"/>
      <point x="135" y="-93" type="curve" smooth="yes"/>
      <point x="153" y="-93"/>
      <point x="165" y="-79"/>
      <point x="175" y="-51" type="curve" smooth="yes"/>
      <point x="193" y="0" type="line"/>
      <point x="10" y="445" type="line"/>
      <point x="132" y="445" type="line"/>
      <point x="248" y="143" type="line"/>
      <point x="356" y="445" type="line"/>
    </contour>
  </outline>
</glyph>
<glyph name="z" format="2">
  <advance width="441"/>
  <unicode hex="007A"/>
  <outline>
    <contour>
      <point x="399" y="0" type="line"/>
      <point x="42" y="0" type="line"/>
      <point x="42" y="87" type="line"/>
      <point x="277" y="373" type="line"/>
      <point x="50" y="373" type="line"/>
      <point x="50" y="445" type="line"/>
      <point x="391" y="445" type="line"/>
      <point x="391" y="358" type="line"/>
      <point x="154" y="70" type="line"/>
      <point x="399" y="70" type="line"/>
    </contour>
  </outline>
</glyph>
<glyph name="braceright" format="2">
  <advance width="429"/>
  <unicode hex="007D"/>
  <outline>
    <contour>
      <point x="359" y="226" type="curve" smooth="yes"/>
      <point x="359" y="166"/>
      <point x="260" y="143"/>
      <point x="260" y="61" type="curve" smooth="yes"/>
      <point x="260" y="-203"/>
      <point x="246" y="-413"/>
      <point x="55" y="-413" type="curve"/>
      <point x="55" y="-321" type="line"/>
      <point x="151" y="-321"/>
      <point x="166" y="-178"/>
      <point x="166" y="75" type="curve" smooth="yes"/>
      <point x="166" y="182"/>
      <point x="254" y="214"/>
      <point x="254" y="226" type="curve" smooth="yes"/>
      <point x="254" y="238"/>
      <point x="166" y="269"/>
      <point x="166" y="376" type="curve" smooth="yes"/>
      <point x="166" y="630"/>
      <point x="151" y="773"/>
      <point x="55" y="773" type="curve"/>
      <point x="55" y="864" type="line"/>
      <point x="246" y="864"/>
      <point x="260" y="655"/>
      <point x="260" y="391" type="curve" smooth="yes"/>
      <point x="260" y="308"/>
      <point x="359" y="285"/>
    </contour>
  </outline>
</glyph>
<glyph name="asciitilde" format="2">
  <advance width="571"/>
  <unicode hex="007E"/>
  <outline>
    <contour>
      <point x="516" y="233" type="line"/>
      <point x="469" y="189"/>
      <point x="416" y="168"/>
      <point x="370" y="168" type="curve" smooth="yes"/>
      <point x="286" y="168"/>
      <point x="244" y="226"/>
      <point x="200" y="226" type="curve" smooth="yes"/>
      <point x="172" y="226"/>
      <point x="138" y="216"/>
      <point x="84" y="166" type="curve"/>
      <point x="55" y="242" type="line"/>
      <point x="104" y="292"/>
      <point x="156" y="309"/>
      <point x="200" y="309" type="curve" smooth="yes"/>
      <point x="287" y="309"/>
      <point x="310" y="251"/>
      <point x="370" y="251" type="curve" smooth="yes"/>
      <point x="398" y="251"/>
      <point x="431" y="268"/>
      <point x="463" y="296" type="curve"/>
    </contour>
  </outline>
</glyph>
<glyph name="u1000" format="2">
  <advance width="985"/>
  <unicode hex="1000"/>
  <anchor x="0" y="0" name="_R"/>
  <anchor x="690" y="-53" name="BS"/>
  <anchor x="690" y="-53" name="L"/>
  <anchor x="496" y="-53" name="BD"/>
  <anchor x="690" y="495" name="U"/>
  <outline>
    <contour>
      <point x="929" y="222" type="curve" smooth="yes"/>
      <point x="929" y="88"/>
      <point x="821" y="-20"/>
      <point x="690" y="-20" type="curve" smooth="yes"/>
      <point x="677" y="-20"/>
      <point x="641" y="-19"/>
      <point x="619" y="-7" type="curve"/>
      <point x="656" y="78" type="line"/>
      <point x="666" y="75"/>
      <point x="677" y="73"/>
      <point x="690" y="73" type="curve" smooth="yes"/>
      <point x="771" y="73"/>
      <point x="837" y="141"/>
      <point x="837" y="222" type="curve" smooth="yes"/>
      <point x="837" y="303"/>
      <point x="771" y="370"/>
      <point x="690" y="370" type="curve" smooth="yes"/>
      <point x="609" y="370"/>
      <point x="539" y="275"/>
      <point x="539" y="202" type="curve" smooth="yes"/>
      <point x="539" y="103"/>
      <point x="513" y="35"/>
      <point x="447" y="-20" type="curve"/>
      <point x="393" y="56" type="line"/>
      <point x="429" y="98"/>
      <point x="446" y="131"/>
      <point x="446" y="205" type="curve" smooth="yes"/>
      <point x="446" y="292"/>
      <point x="387" y="370"/>
      <point x="297" y="370" type="curve" smooth="yes"/>
      <point x="207" y="370"/>
      <point x="148" y="292"/>
      <point x="148" y="205" type="curve" smooth="yes"/>
      <point x="148" y="131"/>
      <point x="165" y="98"/>
      <point x="202" y="56" type="curve"/>
      <point x="148" y="-20" type="line"/>
      <point x="81" y="36"/>
      <point x="55" y="105"/>
      <point x="55" y="205" type="curve" smooth="yes"/>
      <point x="55" y="348"/>
      <point x="161" y="463"/>
      <point x="297" y="463" type="curve" smooth="yes"/>
      <point x="382" y="463"/>
      <point x="455" y="418"/>
      <point x="496" y="349" type="curve"/>
      <point x="536" y="413"/>
      <point x="604" y="464"/>
      <point x="690" y="464" type="curve" smooth="yes"/>
      <point x="821" y="464"/>
      <point x="929" y="354"/>
    </contour>
  </outline>
</glyph>
<glyph name="u1001" format="2">
  <advance width="592"/>
  <unicode hex="1001"/>
  <anchor x="0" y="0" name="_R"/>
  <anchor x="295" y="-53" name="BS"/>
  <anchor x="295" y="-53" name="L"/>
  <anchor x="295" y="495" name="U"/>
  <anchor x="283" y="-53" name="BD"/>
  <outline>
    <contour>
      <point x="369" y="92" type="curve"/>
      <point x="343" y="131"/>
      <point x="291" y="160"/>
      <point x="238" y="160" type="curve" smooth="yes"/>
      <point x="215" y="160"/>
      <point x="188" y="155"/>
      <point x="161" y="144" type="curve"/>
      <point x="200" y="90"/>
      <point x="254" y="73"/>
      <point x="295" y="73" type="curve" smooth="yes"/>
      <point x="323" y="73"/>
      <point x="347" y="80"/>
    </contour>
    <contour>
      <point x="537" y="222" type="curve" smooth="yes"/>
      <point x="537" y="93"/>
      <point x="437" y="-20"/>
      <point x="295" y="-20" type="curve" smooth="yes"/>
      <point x="194" y="-20"/>
      <point x="62" y="53"/>
      <point x="56" y="175" type="curve"/>
      <point x="128" y="225"/>
      <point x="196" y="239"/>
      <point x="237" y="239" type="curve" smooth="yes"/>
      <point x="300" y="239"/>
      <point x="377" y="207"/>
      <point x="423" y="153" type="curve"/>
      <point x="436" y="172"/>
      <point x="444" y="195"/>
      <point x="444" y="222" type="curve" smooth="yes"/>
      <point x="444" y="271"/>
      <point x="401" y="370"/>
      <point x="295" y="370" type="curve" smooth="yes"/>
      <point x="241" y="370"/>
      <point x="189" y="343"/>
      <point x="154" y="288" type="curve"/>
      <point x="74" y="331" type="line"/>
      <point x="117" y="416"/>
      <point x="205" y="464"/>
      <point x="295" y="464" type="curve" smooth="yes"/>
      <point x="445" y="464"/>
      <point x="537" y="336"/>
    </contour>
  </outline>
</glyph>
<glyph name="u1002" format="2">
  <advance width="595"/>
  <unicode hex="1002"/>
  <anchor x="0" y="0" name="_R"/>
  <anchor x="297" y="-53" name="BS"/>
  <anchor x="297" y="-53" name="L"/>
  <anchor x="297" y="495" name="U"/>
  <anchor x="292" y="-53" name="BD"/>
  <outline>
    <contour>
      <point x="540" y="205" type="curve" smooth="yes"/>
      <point x="540" y="105"/>
      <point x="514" y="36"/>
      <point x="447" y="-20" type="curve"/>
      <point x="393" y="56" type="line"/>
      <point x="429" y="98"/>
      <point x="446" y="131"/>
      <point x="446" y="205" type="curve" smooth="yes"/>
      <point x="446" y="292"/>
      <point x="387" y="370"/>
      <point x="297" y="370" type="curve" smooth="yes"/>
      <point x="207" y="370"/>
      <point x="148" y="292"/>
      <point x="148" y="205" type="curve" smooth="yes"/>
      <point x="148" y="131"/>
      <point x="165" y="98"/>
      <point x="202" y="56" type="curve"/>
      <point x="148" y="-20" type="line"/>
      <point x="81" y="36"/>
      <point x="55" y="105"/>
      <point x="55" y="205" type="curve" smooth="yes"/>
      <point x="55" y="348"/>
      <point x="161" y="463"/>
      <point x="297" y="463" type="curve" smooth="yes"/>
      <point x="420" y="463"/>
      <point x="540" y="361"/>
    </contour>
  </outline>
</glyph>
<glyph name="u1005" format="2">
  <advance width="586"/>
  <unicode hex="1005"/>
  <anchor x="0" y="0" name="_R"/>
  <anchor x="292" y="-53" name="BS"/>
  <anchor x="292" y="-53" name="L"/>
  <anchor x="292" y="495" name="U"/>
  <anchor x="288" y="-53" name="BD"/>
  <outline>
    <contour>
      <point x="247" y="222" type="curve" smooth="yes"/>
      <point x="247" y="257"/>
      <point x="235" y="299"/>
      <point x="202" y="337" type="curve"/>
      <point x="170" y="310"/>
      <point x="148" y="268"/>
      <point x="148" y="222" type="curve" smooth="yes"/>
      <point x="148" y="174"/>
      <point x="169" y="133"/>
      <point x="202" y="106" type="curve"/>
      <point x="233" y="143"/>
      <point x="247" y="184"/>
    </contour>
    <contour>
      <point x="437" y="222" type="curve" smooth="yes"/>
      <point x="437" y="298"/>
      <point x="377" y="368"/>
      <point x="300" y="370" type="curve" smooth="yes"/>
      <point x="292" y="370"/>
      <point x="284" y="369"/>
      <point x="276" y="366" type="curve"/>
      <point x="316" y="318"/>
      <point x="326" y="265"/>
      <point x="326" y="222" type="curve" smooth="yes"/>
      <point x="326" y="177"/>
      <point x="313" y="125"/>
      <point x="276" y="77" type="curve"/>
      <point x="285" y="75"/>
      <point x="292" y="73"/>
      <point x="299" y="73" type="curve" smooth="yes"/>
      <point x="375" y="79"/>
      <point x="437" y="143"/>
    </contour>
    <contour>
      <point x="530" y="222" type="curve" smooth="yes"/>
      <point x="530" y="88"/>
      <point x="425" y="-20"/>
      <point x="292" y="-20" type="curve" smooth="yes"/>
      <point x="162" y="-20"/>
      <point x="55" y="88"/>
      <point x="55" y="222" type="curve" smooth="yes"/>
      <point x="55" y="354"/>
      <point x="161" y="464"/>
      <point x="291" y="464" type="curve" smooth="yes"/>
      <point x="425" y="464"/>
      <point x="530" y="354"/>
    </contour>
  </outline>
</glyph>
<glyph name="u1006" format="2">
  <advance width="974"/>
  <unicode hex="1006"/>
  <anchor x="0" y="0" name="_R"/>
  <anchor x="682" y="-53" name="BS"/>
  <anchor x="682" y="-53" name="L"/>
  <anchor x="490" y="-53" name="BD"/>
  <anchor x="682" y="495" name="U"/>
  <outline>
    <contour>
      <point x="369" y="92" type="curve"/>
      <point x="340" y="131"/>
      <point x="292" y="160"/>
      <point x="238" y="160" type="curve" smooth="yes"/>
      <point x="213" y="160"/>
      <point x="190" y="155"/>
      <point x="159" y="144" type="curve"/>
      <point x="200" y="89"/>
      <point x="253" y="73"/>
      <point x="294" y="73" type="curve" smooth="yes"/>
      <point x="323" y="73"/>
      <point x="346" y="80"/>
    </contour>
    <contour>
      <point x="826" y="222" type="curve" smooth="yes"/>
      <point x="826" y="302"/>
      <point x="761" y="370"/>
      <point x="682" y="370" type="curve" smooth="yes"/>
      <point x="601" y="370"/>
      <point x="536" y="302"/>
      <point x="536" y="222" type="curve" smooth="yes"/>
      <point x="536" y="140"/>
      <point x="603" y="73"/>
      <point x="682" y="73" type="curve" smooth="yes"/>
      <point x="762" y="73"/>
      <point x="826" y="140"/>
    </contour>
    <contour>
      <point x="919" y="222" type="curve" smooth="yes"/>
      <point x="919" y="88"/>
      <point x="811" y="-20"/>
      <point x="682" y="-20" type="curve" smooth="yes"/>
      <point x="601" y="-20"/>
      <point x="531" y="20"/>
      <point x="490" y="81" type="curve"/>
      <point x="449" y="21"/>
      <point x="379" y="-20"/>
      <point x="294" y="-20" type="curve" smooth="yes"/>
      <point x="197" y="-20"/>
      <point x="61" y="51"/>
      <point x="56" y="179" type="curve"/>
      <point x="128" y="224"/>
      <point x="192" y="239"/>
      <point x="237" y="239" type="curve" smooth="yes"/>
      <point x="295" y="239"/>
      <point x="372" y="211"/>
      <point x="422" y="153" type="curve"/>
      <point x="435" y="173"/>
      <point x="443" y="195"/>
      <point x="443" y="222" type="curve" smooth="yes"/>
      <point x="443" y="271"/>
      <point x="401" y="370"/>
      <point x="294" y="370" type="curve" smooth="yes"/>
      <point x="245" y="370"/>
      <point x="197" y="351"/>
      <point x="154" y="288" type="curve"/>
      <point x="73" y="331" type="line"/>
      <point x="113" y="417"/>
      <point x="206" y="464"/>
      <point x="294" y="464" type="curve" smooth="yes"/>
      <point x="381" y="464"/>
      <point x="449" y="421"/>
      <point x="489" y="361" type="curve"/>
      <point x="531" y="423"/>
      <point x="601" y="464"/>
      <point x="682" y="464" type="curve" smooth="yes"/>
      <point x="813" y="464"/>
      <point x="919" y="354"/>
    </contour>
  </outline>
</glyph>
<glyph name="u1009" format="2">
  <advance width="575"/>
  <unicode hex="1009"/>
  <anchor x="0" y="0" name="_R"/>
  <anchor x="450" y="-53" name="BS"/>
  <anchor x="724" y="-53" name="LL"/>
  <anchor x="295" y="-53" name="L"/>
  <anchor x="278" y="495" name="U"/>
  <anchor x="450" y="-53" name="BD"/>
  <outline>
    <contour>
      <point x="901" y="-282" type="line"/>
      <point x="901" y="-345" type="line" smooth="yes"/>
      <point x="901" y="-391"/>
      <point x="894" y="-415"/>
      <point x="880" y="-432" type="curve" smooth="yes"/>
      <point x="862" y="-453"/>
      <point x="839" y="-464"/>
      <point x="788" y="-464" type="curve" smooth="yes"/>
      <point x="269" y="-464" type="line" smooth="yes"/>
      <point x="200" y="-464"/>
      <point x="152" y="-441"/>
      <point x="113" y="-402" type="curve" smooth="yes"/>
      <point x="73" y="-362"/>
      <point x="55" y="-312"/>
      <point x="55" y="-250" type="curve" smooth="yes"/>
      <point x="55" y="112" type="line"/>
      <point x="138" y="156" type="line"/>
      <point x="179" y="85"/>
      <point x="243" y="73"/>
      <point x="279" y="73" type="curve" smooth="yes"/>
      <point x="361" y="73"/>
      <point x="426" y="141"/>
      <point x="426" y="222" type="curve" smooth="yes"/>
      <point x="426" y="302"/>
      <point x="361" y="370"/>
      <point x="279" y="370" type="curve" smooth="yes"/>
      <point x="243" y="370"/>
      <point x="179" y="356"/>
      <point x="138" y="288" type="curve"/>
      <point x="55" y="331" type="line"/>
      <point x="102" y="425"/>
      <point x="199" y="464"/>
      <point x="279" y="464" type="curve" smooth="yes"/>
      <point x="410" y="464"/>
      <point x="520" y="354"/>
      <point x="520" y="222" type="curve" smooth="yes"/>
      <point x="520" y="88"/>
      <point x="410" y="-20"/>
      <point x="279" y="-20" type="curve" smooth="yes"/>
      <point x="235" y="-20"/>
      <point x="190" y="-8"/>
      <point x="148" y="17" type="curve"/>
      <point x="148" y="-238" type="line" smooth="yes"/>
      <point x="148" y="-278"/>
      <point x="156" y="-314"/>
      <point x="180" y="-337" type="curve" smooth="yes"/>
      <point x="205" y="-362"/>
      <point x="238" y="-371"/>
      <point x="283" y="-371" type="curve" smooth="yes"/>
      <point x="768" y="-371" type="line" smooth="yes"/>
      <point x="802" y="-371"/>
      <point x="808" y="-362"/>
      <point x="808" y="-326" type="curve" smooth="yes"/>
      <point x="808" y="-282" type="line"/>
    </contour>
  </outline>
</glyph>
<glyph name="u100A" format="2">
  <advance width="966"/>
  <unicode hex="100A"/>
  <anchor x="0" y="0" name="_R"/>
  <anchor x="1048" y="-53" name="BS"/>
  <anchor x="636" y="-53" name="L"/>
  <anchor x="671" y="495" name="U"/>
  <anchor x="1063" y="-53" name="BD"/>
  <outline>
    <contour>
      <point x="911" y="222" type="curve" smooth="yes"/>
      <point x="911" y="90"/>
      <point x="801" y="-20"/>
      <point x="671" y="-20" type="curve" smooth="yes"/>
      <point x="586" y="-20"/>
      <point x="518" y="29"/>
      <point x="477" y="90" type="curve"/>
      <point x="436" y="24"/>
      <point x="362" y="-20"/>
      <point x="279" y="-20" type="curve" smooth="yes"/>
      <point x="235" y="-20"/>
      <point x="188" y="-8"/>
      <point x="148" y="18" type="curve"/>
      <point x="148" y="-238" type="line" smooth="yes"/>
      <point x="148" y="-278"/>
      <point x="156" y="-314"/>
      <point x="180" y="-337" type="curve" smooth="yes"/>
      <point x="205" y="-362"/>
      <point x="238" y="-371"/>
      <point x="283" y="-371" type="curve" smooth="yes"/>
      <point x="762" y="-371" type="line" smooth="yes"/>
      <point x="795" y="-371"/>
      <point x="801" y="-362"/>
      <point x="801" y="-326" type="curve" smooth="yes"/>
      <point x="801" y="-282" type="line"/>
      <point x="894" y="-282" type="line"/>
      <point x="894" y="-345" type="line" smooth="yes"/>
      <point x="894" y="-391"/>
      <point x="887" y="-415"/>
      <point x="873" y="-432" type="curve" smooth="yes"/>
      <point x="856" y="-453"/>
      <point x="832" y="-464"/>
      <point x="781" y="-464" type="curve" smooth="yes"/>
      <point x="269" y="-464" type="line" smooth="yes"/>
      <point x="200" y="-464"/>
      <point x="152" y="-441"/>
      <point x="113" y="-402" type="curve" smooth="yes"/>
      <point x="73" y="-362"/>
      <point x="55" y="-312"/>
      <point x="55" y="-250" type="curve" smooth="yes"/>
      <point x="55" y="112" type="line"/>
      <point x="138" y="156" type="line"/>
      <point x="169" y="98"/>
      <point x="224" y="73"/>
      <point x="279" y="73" type="curve" smooth="yes"/>
      <point x="361" y="73"/>
      <point x="426" y="140"/>
      <point x="426" y="221" type="curve" smooth="yes"/>
      <point x="426" y="297"/>
      <point x="363" y="370"/>
      <point x="279" y="370" type="curve" smooth="yes"/>
      <point x="222" y="370"/>
      <point x="172" y="345"/>
      <point x="138" y="288" type="curve"/>
      <point x="55" y="331" type="line"/>
      <point x="102" y="425"/>
      <point x="199" y="464"/>
      <point x="279" y="464" type="curve" smooth="yes"/>
      <point x="408" y="464"/>
      <point x="517" y="355"/>
      <point x="519" y="222" type="curve"/>
      <point x="530" y="152"/>
      <point x="597" y="73"/>
      <point x="671" y="73" type="curve" smooth="yes"/>
      <point x="751" y="73"/>
      <point x="818" y="141"/>
      <point x="818" y="222" type="curve" smooth="yes"/>
      <point x="818" y="302"/>
      <point x="751" y="370"/>
      <point x="671" y="370" type="curve" smooth="yes"/>
      <point x="659" y="370"/>
      <point x="647" y="368"/>
      <point x="637" y="365" type="curve"/>
      <point x="600" y="450" type="line"/>
      <point x="618" y="458"/>
      <point x="646" y="464"/>
      <point x="671" y="464" type="curve" smooth="yes"/>
      <point x="802" y="464"/>
      <point x="911" y="357"/>
    </contour>
  </outline>
</glyph>
<glyph name="u100B" format="2">
  <advance width="622"/>
  <unicode hex="100B"/>
  <anchor x="0" y="0" name="_R"/>
  <anchor x="675" y="-53" name="BS"/>
  <anchor x="675" y="-53" name="L"/>
  <anchor x="297" y="495" name="U"/>
  <anchor x="657" y="-53" name="BD"/>
  <outline>
    <contour>
      <point x="595" y="-428" type="line"/>
      <point x="566" y="-445"/>
      <point x="517" y="-464"/>
      <point x="501" y="-464" type="curve" smooth="yes"/>
      <point x="453" y="-464"/>
      <point x="426" y="-434"/>
      <point x="426" y="-384" type="curve" smooth="yes"/>
      <point x="426" y="-300" type="line"/>
      <point x="384" y="-312"/>
      <point x="340" y="-318"/>
      <point x="296" y="-318" type="curve" smooth="yes"/>
      <point x="224" y="-318"/>
      <point x="151" y="-303"/>
      <point x="86" y="-270" type="curve"/>
      <point x="86" y="-5" type="line"/>
      <point x="145" y="-49"/>
      <point x="216" y="-83"/>
      <point x="296" y="-83" type="curve" smooth="yes"/>
      <point x="345" y="-83"/>
      <point x="387" y="-71"/>
      <point x="426" y="-51" type="curve"/>
      <point x="426" y="17" type="line"/>
      <point x="385" y="-8"/>
      <point x="339" y="-20"/>
      <point x="296" y="-20" type="curve" smooth="yes"/>
      <point x="165" y="-20"/>
      <point x="55" y="88"/>
      <point x="55" y="222" type="curve" smooth="yes"/>
      <point x="55" y="354"/>
      <point x="165" y="464"/>
      <point x="296" y="464" type="curve" smooth="yes"/>
      <point x="375" y="464"/>
      <point x="472" y="425"/>
      <point x="519" y="331" type="curve"/>
      <point x="436" y="288" type="line"/>
      <point x="406" y="342"/>
      <point x="352" y="370"/>
      <point x="296" y="370" type="curve" smooth="yes"/>
      <point x="216" y="370"/>
      <point x="148" y="302"/>
      <point x="148" y="222" type="curve" smooth="yes"/>
      <point x="148" y="141"/>
      <point x="216" y="73"/>
      <point x="296" y="73" type="curve" smooth="yes"/>
      <point x="356" y="73"/>
      <point x="406" y="102"/>
      <point x="436" y="156" type="curve"/>
      <point x="519" y="112" type="line"/>
      <point x="519" y="-95" type="line"/>
      <point x="452" y="-143"/>
      <point x="375" y="-170"/>
      <point x="296" y="-170" type="curve" smooth="yes"/>
      <point x="256" y="-170"/>
      <point x="216" y="-163"/>
      <point x="180" y="-151" type="curve"/>
      <point x="180" y="-211" type="line"/>
      <point x="217" y="-225"/>
      <point x="256" y="-231"/>
      <point x="296" y="-231" type="curve" smooth="yes"/>
      <point x="378" y="-231"/>
      <point x="446" y="-210"/>
      <point x="519" y="-168" type="curve"/>
      <point x="519" y="-335" type="line" smooth="yes"/>
      <point x="519" y="-348"/>
      <point x="522" y="-353"/>
      <point x="530" y="-353" type="curve" smooth="yes"/>
      <point x="539" y="-353"/>
      <point x="556" y="-347"/>
      <point x="572" y="-340" type="curve"/>
    </contour>
  </outline>
</glyph>
<glyph name="u100E" format="2">
  <advance width="587"/>
  <unicode hex="100E"/>
  <anchor x="0" y="0" name="_R"/>
  <anchor x="290" y="-53" name="BS"/>
  <anchor x="290" y="-53" name="L"/>
  <anchor x="290" y="495" name="U"/>
  <anchor x="285" y="-53" name="BD"/>
  <outline>
    <contour>
      <point x="532" y="240" type="curve" smooth="yes"/>
      <point x="532" y="84"/>
      <point x="419" y="-20"/>
      <point x="290" y="-20" type="curve" smooth="yes"/>
      <point x="146" y="-20"/>
      <point x="55" y="83"/>
      <point x="55" y="167" type="curve" smooth="yes"/>
      <point x="55" y="311"/>
      <point x="194" y="286"/>
      <point x="194" y="341" type="curve" smooth="yes"/>
      <point x="194" y="370"/>
      <point x="175" y="380"/>
      <point x="156" y="380" type="curve" smooth="yes"/>
      <point x="143" y="380"/>
      <point x="129" y="370"/>
      <point x="126" y="363" type="curve"/>
      <point x="55" y="406" type="line"/>
      <point x="64" y="430"/>
      <point x="106" y="463"/>
      <point x="153" y="463" type="curve" smooth="yes"/>
      <point x="219" y="463"/>
      <point x="277" y="423"/>
      <point x="277" y="341" type="curve" smooth="yes"/>
      <point x="277" y="234"/>
      <point x="148" y="243"/>
      <point x="148" y="167" type="curve" smooth="yes"/>
      <point x="148" y="137"/>
      <point x="196" y="73"/>
      <point x="290" y="73" type="curve" smooth="yes"/>
      <point x="349" y="73"/>
      <point x="439" y="120"/>
      <point x="439" y="240" type="curve" smooth="yes"/>
      <point x="439" y="302"/>
      <point x="420" y="352"/>
      <point x="385" y="387" type="curve"/>
      <point x="439" y="463" type="line"/>
      <point x="497" y="419"/>
      <point x="532" y="349"/>
    </contour>
  </outline>
</glyph>
<glyph name="u1012" format="2">
  <advance width="546"/>
  <unicode hex="1012"/>
  <anchor x="0" y="0" name="_R"/>
  <anchor x="273" y="-53" name="BS"/>
  <anchor x="273" y="-53" name="L"/>
  <anchor x="273" y="495" name="U"/>
  <anchor x="267" y="-53" name="BD"/>
  <outline>
    <contour>
      <point x="491" y="130" type="curve" smooth="yes"/>
      <point x="491" y="48"/>
      <point x="424" y="-20"/>
      <point x="273" y="-20" type="curve" smooth="yes"/>
      <point x="128" y="-20"/>
      <point x="55" y="39"/>
      <point x="55" y="119" type="curve"/>
      <point x="144" y="152" type="line"/>
      <point x="144" y="120"/>
      <point x="182" y="73"/>
      <point x="273" y="73" type="curve" smooth="yes"/>
      <point x="334" y="73"/>
      <point x="398" y="88"/>
      <point x="398" y="131" type="curve" smooth="yes"/>
      <point x="398" y="166"/>
      <point x="342" y="182"/>
      <point x="273" y="183" type="curve"/>
      <point x="273" y="260" type="line"/>
      <point x="342" y="262"/>
      <point x="398" y="277"/>
      <point x="398" y="314" type="curve" smooth="yes"/>
      <point x="398" y="355"/>
      <point x="334" y="370"/>
      <point x="273" y="370" type="curve" smooth="yes"/>
      <point x="182" y="370"/>
      <point x="144" y="323"/>
      <point x="144" y="291" type="curve"/>
      <point x="55" y="324" type="line"/>
      <point x="55" y="404"/>
      <point x="132" y="464"/>
      <point x="273" y="464" type="curve" smooth="yes"/>
      <point x="424" y="464"/>
      <point x="491" y="395"/>
      <point x="491" y="313" type="curve" smooth="yes"/>
      <point x="491" y="274"/>
      <point x="471" y="239"/>
      <point x="438" y="221" type="curve"/>
      <point x="471" y="201"/>
      <point x="491" y="167"/>
    </contour>
  </outline>
</glyph>
<glyph name="u1014" format="2">
  <advance width="555"/>
  <unicode hex="1014"/>
  <anchor x="4" y="0" name="_R"/>
  <anchor x="569" y="-53" name="BS"/>
  <anchor x="526" y="-53" name="L"/>
  <anchor x="290" y="495" name="U"/>
  <anchor x="531" y="-53" name="BD"/>
  <outline>
    <contour>
      <point x="265" y="61" type="line"/>
      <point x="255" y="106"/>
      <point x="230" y="137"/>
      <point x="191" y="137" type="curve" smooth="yes"/>
      <point x="164" y="137"/>
      <point x="131" y="121"/>
      <point x="131" y="97" type="curve" smooth="yes"/>
      <point x="131" y="64"/>
      <point x="183" y="61"/>
      <point x="225" y="61" type="curve" smooth="yes"/>
    </contour>
    <contour>
      <point x="506" y="140" type="curve" smooth="yes"/>
      <point x="506" y="57"/>
      <point x="460" y="10"/>
      <point x="362" y="-11" type="curve"/>
      <point x="362" y="-464" type="line"/>
      <point x="269" y="-464" type="line"/>
      <point x="269" y="-20" type="line"/>
      <point x="243" y="-20" type="line" smooth="yes"/>
      <point x="165" y="-20"/>
      <point x="48" y="-14"/>
      <point x="48" y="97" type="curve" smooth="yes"/>
      <point x="48" y="164"/>
      <point x="115" y="220"/>
      <point x="191" y="220" type="curve" smooth="yes"/>
      <point x="229" y="220"/>
      <point x="264" y="206"/>
      <point x="294" y="179" type="curve" smooth="yes"/>
      <point x="324" y="152"/>
      <point x="345" y="119"/>
      <point x="355" y="77" type="curve"/>
      <point x="390" y="87"/>
      <point x="413" y="106"/>
      <point x="413" y="140" type="curve" smooth="yes"/>
      <point x="413" y="248"/>
      <point x="143" y="230"/>
      <point x="143" y="359" type="curve" smooth="yes"/>
      <point x="143" y="422"/>
      <point x="201" y="464"/>
      <point x="290" y="464" type="curve" smooth="yes"/>
      <point x="343" y="464"/>
      <point x="378" y="444"/>
      <point x="398" y="425" type="curve"/>
      <point x="357" y="360" type="line"/>
      <point x="343" y="372"/>
      <point x="318" y="385"/>
      <point x="290" y="385" type="curve" smooth="yes"/>
      <point x="260" y="385"/>
      <point x="236" y="378"/>
      <point x="236" y="359" type="curve" smooth="yes"/>
      <point x="236" y="302"/>
      <point x="506" y="319"/>
    </contour>
  </outline>
</glyph>
<glyph name="u1016" format="2">
  <advance width="594"/>
  <unicode hex="1016"/>
  <anchor x="0" y="0" name="_R"/>
  <anchor x="297" y="-53" name="BS"/>
  <anchor x="297" y="-53" name="L"/>
  <anchor x="297" y="495" name="U"/>
  <anchor x="292" y="-53" name="BD"/>
  <outline>
    <contour>
      <point x="446" y="238" type="curve" smooth="yes"/>
      <point x="446" y="287"/>
      <point x="424" y="320"/>
      <point x="399" y="347" type="curve"/>
      <point x="377" y="317"/>
      <point x="366" y="285"/>
      <point x="366" y="244" type="curve" smooth="yes"/>
      <point x="366" y="201"/>
      <point x="386" y="167"/>
      <point x="418" y="141" type="curve"/>
      <point x="436" y="166"/>
      <point x="446" y="201"/>
    </contour>
    <contour>
      <point x="539" y="238" type="curve" smooth="yes"/>
      <point x="539" y="91"/>
      <point x="430" y="-20"/>
      <point x="297" y="-20" type="curve" smooth="yes"/>
      <point x="164" y="-20"/>
      <point x="55" y="91"/>
      <point x="55" y="238" type="curve" smooth="yes"/>
      <point x="55" y="338"/>
      <point x="83" y="410"/>
      <point x="148" y="463" type="curve"/>
      <point x="202" y="387" type="line"/>
      <point x="167" y="350"/>
      <point x="148" y="312"/>
      <point x="148" y="238" type="curve" smooth="yes"/>
      <point x="148" y="143"/>
      <point x="216" y="73"/>
      <point x="297" y="73" type="curve" smooth="yes"/>
      <point x="323" y="73"/>
      <point x="342" y="78"/>
      <point x="357" y="88" type="curve"/>
      <point x="312" y="131"/>
      <point x="287" y="184"/>
      <point x="287" y="244" type="curve" smooth="yes"/>
      <point x="287" y="340"/>
      <point x="337" y="428"/>
      <point x="415" y="463" type="curve"/>
      <point x="481" y="405"/>
      <point x="539" y="338"/>
    </contour>
  </outline>
</glyph>
<glyph name="u101A" format="2">
  <advance width="983"/>
  <unicode hex="101A"/>
  <anchor x="0" y="0" name="_R"/>
  <anchor x="687" y="-53" name="BS"/>
  <anchor x="687" y="-53" name="L"/>
  <anchor x="496" y="-53" name="BD"/>
  <anchor x="687" y="495" name="U"/>
  <outline>
    <contour>
      <point x="928" y="222" type="curve" smooth="yes"/>
      <point x="928" y="90"/>
      <point x="818" y="-20"/>
      <point x="687" y="-20" type="curve" smooth="yes"/>
      <point x="603" y="-20"/>
      <point x="536" y="31"/>
      <point x="497" y="92" type="curve"/>
      <point x="454" y="23"/>
      <point x="383" y="-21"/>
      <point x="297" y="-21" type="curve" smooth="yes"/>
      <point x="160" y="-21"/>
      <point x="55" y="93"/>
      <point x="55" y="237" type="curve" smooth="yes"/>
      <point x="55" y="337"/>
      <point x="81" y="404"/>
      <point x="148" y="462" type="curve"/>
      <point x="202" y="386" type="line"/>
      <point x="163" y="343"/>
      <point x="148" y="307"/>
      <point x="148" y="237" type="curve" smooth="yes"/>
      <point x="148" y="151"/>
      <point x="207" y="72"/>
      <point x="297" y="72" type="curve" smooth="yes"/>
      <point x="387" y="72"/>
      <point x="446" y="151"/>
      <point x="446" y="237" type="curve" smooth="yes"/>
      <point x="446" y="305"/>
      <point x="430" y="343"/>
      <point x="393" y="386" type="curve"/>
      <point x="447" y="462" type="line"/>
      <point x="518" y="401"/>
      <point x="539" y="330"/>
      <point x="539" y="237" type="curve" smooth="yes"/>
      <point x="539" y="164"/>
      <point x="608" y="73"/>
      <point x="687" y="73" type="curve" smooth="yes"/>
      <point x="769" y="73"/>
      <point x="834" y="141"/>
      <point x="834" y="222" type="curve" smooth="yes"/>
      <point x="834" y="302"/>
      <point x="769" y="370"/>
      <point x="687" y="370" type="curve" smooth="yes"/>
      <point x="676" y="370"/>
      <point x="664" y="369"/>
      <point x="653" y="365" type="curve"/>
      <point x="617" y="450" type="line"/>
      <point x="635" y="459"/>
      <point x="661" y="464"/>
      <point x="687" y="464" type="curve" smooth="yes"/>
      <point x="818" y="464"/>
      <point x="928" y="356"/>
    </contour>
  </outline>
</glyph>
<glyph name="u101E" format="2">
  <advance width="966"/>
  <unicode hex="101E"/>
  <anchor x="0" y="0" name="_R"/>
  <anchor x="671" y="-53" name="BS"/>
  <anchor x="671" y="-53" name="L"/>
  <anchor x="477" y="-53" name="BD"/>
  <anchor x="671" y="495" name="U"/>
  <outline>
    <contour>
      <point x="911" y="222" type="curve" smooth="yes"/>
      <point x="911" y="89"/>
      <point x="802" y="-20"/>
      <point x="671" y="-20" type="curve" smooth="yes"/>
      <point x="586" y="-20"/>
      <point x="518" y="29"/>
      <point x="477" y="90" type="curve"/>
      <point x="435" y="23"/>
      <point x="362" y="-20"/>
      <point x="279" y="-20" type="curve" smooth="yes"/>
      <point x="186" y="-20"/>
      <point x="100" y="27"/>
      <point x="55" y="112" type="curve"/>
      <point x="138" y="156" type="line"/>
      <point x="176" y="94"/>
      <point x="224" y="73"/>
      <point x="279" y="73" type="curve" smooth="yes"/>
      <point x="363" y="73"/>
      <point x="426" y="141"/>
      <point x="426" y="224" type="curve" smooth="yes"/>
      <point x="426" y="303"/>
      <point x="357" y="370"/>
      <point x="279" y="370" type="curve" smooth="yes"/>
      <point x="224" y="370"/>
      <point x="168" y="343"/>
      <point x="138" y="288" type="curve"/>
      <point x="55" y="331" type="line"/>
      <point x="97" y="414"/>
      <point x="180" y="464"/>
      <point x="279" y="464" type="curve" smooth="yes"/>
      <point x="406" y="464"/>
      <point x="518" y="357"/>
      <point x="518" y="227" type="curve"/>
      <point x="526" y="161"/>
      <point x="591" y="73"/>
      <point x="671" y="73" type="curve" smooth="yes"/>
      <point x="751" y="73"/>
      <point x="818" y="140"/>
      <point x="818" y="222" type="curve" smooth="yes"/>
      <point x="818" y="302"/>
      <point x="751" y="370"/>
      <point x="671" y="370" type="curve" smooth="yes"/>
      <point x="658" y="370"/>
      <point x="648" y="369"/>
      <point x="636" y="365" type="curve"/>
      <point x="600" y="450" type="line"/>
      <point x="621" y="460"/>
      <point x="644" y="464"/>
      <point x="671" y="464" type="curve" smooth="yes"/>
      <point x="802" y="464"/>
      <point x="911" y="354"/>
    </contour>
  </outline>
</glyph>
<glyph name="u1020" format="2">
  <advance width="602"/>
  <unicode hex="1020"/>
  <anchor x="0" y="0" name="_R"/>
  <anchor x="674" y="-53" name="BS"/>
  <anchor x="674" y="-53" name="L"/>
  <anchor x="296" y="495" name="U"/>
  <anchor x="654" y="-53" name="BD"/>
  <outline>
    <contour>
      <point x="519" y="-106" type="line"/>
      <point x="461" y="-154"/>
      <point x="381" y="-180"/>
      <point x="296" y="-180" type="curve" smooth="yes"/>
      <point x="256" y="-180"/>
      <point x="216" y="-173"/>
      <point x="180" y="-161" type="curve"/>
      <point x="180" y="-282" type="line" smooth="yes"/>
      <point x="180" y="-323"/>
      <point x="188" y="-345"/>
      <point x="203" y="-359" type="curve" smooth="yes"/>
      <point x="221" y="-374"/>
      <point x="233" y="-381"/>
      <point x="269" y="-381" type="curve" smooth="yes"/>
      <point x="387" y="-381" type="line" smooth="yes"/>
      <point x="424" y="-381"/>
      <point x="450" y="-370"/>
      <point x="450" y="-341" type="curve" smooth="yes"/>
      <point x="450" y="-317"/>
      <point x="434" y="-303"/>
      <point x="402" y="-303" type="curve" smooth="yes"/>
      <point x="384" y="-303"/>
      <point x="369" y="-312"/>
      <point x="355" y="-322" type="curve"/>
      <point x="311" y="-252" type="line"/>
      <point x="329" y="-237"/>
      <point x="356" y="-222"/>
      <point x="402" y="-222" type="curve" smooth="yes"/>
      <point x="482" y="-222"/>
      <point x="532" y="-272"/>
      <point x="532" y="-341" type="curve" smooth="yes"/>
      <point x="532" y="-405"/>
      <point x="493" y="-464"/>
      <point x="404" y="-464" type="curve" smooth="yes"/>
      <point x="230" y="-464" type="line" smooth="yes"/>
      <point x="171" y="-464"/>
      <point x="145" y="-440"/>
      <point x="123" y="-416" type="curve" smooth="yes"/>
      <point x="98" y="-388"/>
      <point x="86" y="-345"/>
      <point x="86" y="-280" type="curve" smooth="yes"/>
      <point x="86" y="-15" type="line"/>
      <point x="145" y="-59"/>
      <point x="215" y="-93"/>
      <point x="296" y="-93" type="curve" smooth="yes"/>
      <point x="346" y="-93"/>
      <point x="388" y="-82"/>
      <point x="426" y="-64" type="curve"/>
      <point x="426" y="17" type="line"/>
      <point x="385" y="-8"/>
      <point x="339" y="-20"/>
      <point x="296" y="-20" type="curve" smooth="yes"/>
      <point x="164" y="-20"/>
      <point x="55" y="88"/>
      <point x="55" y="222" type="curve" smooth="yes"/>
      <point x="55" y="354"/>
      <point x="164" y="464"/>
      <point x="296" y="464" type="curve" smooth="yes"/>
      <point x="375" y="464"/>
      <point x="473" y="425"/>
      <point x="519" y="331" type="curve"/>
      <point x="436" y="288" type="line"/>
      <point x="399" y="347"/>
      <point x="351" y="370"/>
      <point x="296" y="370" type="curve" smooth="yes"/>
      <point x="216" y="370"/>
      <point x="148" y="302"/>
      <point x="148" y="222" type="curve" smooth="yes"/>
      <point x="148" y="141"/>
      <point x="216" y="73"/>
      <point x="296" y="73" type="curve" smooth="yes"/>
      <point x="351" y="73"/>
      <point x="403" y="96"/>
      <point x="436" y="156" type="curve"/>
      <point x="519" y="112" type="line"/>
    </contour>
  </outline>
</glyph>
<glyph name="u1023" format="2">
  <advance width="985"/>
  <unicode hex="1023"/>
  <anchor x="0" y="-53" name="LL"/>
  <anchor x="985" y="-53" name="L"/>
  <anchor x="687" y="495" name="U"/>
  <anchor x="993" y="-53" name="BS"/>
  <anchor x="993" y="-53" name="BD"/>
  <outline>
    <contour>
      <point x="879" y="-464" type="line"/>
      <point x="717" y="-464" type="line"/>
      <point x="717" y="-405" type="line"/>
      <point x="741" y="-377"/>
      <point x="758" y="-352"/>
      <point x="758" y="-292" type="curve" smooth="yes"/>
      <point x="758" y="-224"/>
      <point x="713" y="-164"/>
      <point x="643" y="-164" type="curve" smooth="yes"/>
      <point x="575" y="-164"/>
      <point x="528" y="-220"/>
      <point x="528" y="-292" type="curve" smooth="yes"/>
      <point x="528" y="-379" type="line"/>
      <point x="457" y="-379" type="line"/>
      <point x="457" y="-292" type="line" smooth="yes"/>
      <point x="457" y="-220"/>
      <point x="407" y="-164"/>
      <point x="342" y="-164" type="curve" smooth="yes"/>
      <point x="273" y="-164"/>
      <point x="227" y="-224"/>
      <point x="227" y="-292" type="curve" smooth="yes"/>
      <point x="227" y="-349"/>
      <point x="238" y="-375"/>
      <point x="269" y="-406" type="curve"/>
      <point x="228" y="-466" type="line"/>
      <point x="176" y="-423"/>
      <point x="156" y="-370"/>
      <point x="156" y="-292" type="curve" smooth="yes"/>
      <point x="156" y="-182"/>
      <point x="237" y="-93"/>
      <point x="342" y="-93" type="curve" smooth="yes"/>
      <point x="406" y="-93"/>
      <point x="459" y="-126"/>
      <point x="493" y="-176" type="curve"/>
      <point x="525" y="-126"/>
      <point x="579" y="-93"/>
      <point x="643" y="-93" type="curve" smooth="yes"/>
      <point x="748" y="-93"/>
      <point x="829" y="-182"/>
      <point x="829" y="-292" type="curve" smooth="yes"/>
      <point x="829" y="-340"/>
      <point x="820" y="-372"/>
      <point x="805" y="-403" type="curve"/>
      <point x="879" y="-403" type="line"/>
    </contour>
    <contour>
      <point x="929" y="205" type="curve" smooth="yes"/>
      <point x="929" y="105"/>
      <point x="904" y="35"/>
      <point x="837" y="-20" type="curve"/>
      <point x="783" y="56" type="line"/>
      <point x="820" y="100"/>
      <point x="836" y="129"/>
      <point x="836" y="205" type="curve" smooth="yes"/>
      <point x="836" y="291"/>
      <point x="777" y="370"/>
      <point x="687" y="370" type="curve" smooth="yes"/>
      <point x="600" y="370"/>
      <point x="539" y="295"/>
      <point x="539" y="205" type="curve" smooth="yes"/>
      <point x="539" y="91" type="line"/>
      <point x="446" y="91" type="line"/>
      <point x="446" y="205" type="line" smooth="yes"/>
      <point x="446" y="295"/>
      <point x="384" y="370"/>
      <point x="297" y="370" type="curve" smooth="yes"/>
      <point x="207" y="370"/>
      <point x="148" y="291"/>
      <point x="148" y="205" type="curve" smooth="yes"/>
      <point x="148" y="130"/>
      <point x="165" y="99"/>
      <point x="202" y="56" type="curve"/>
      <point x="148" y="-20" type="line"/>
      <point x="81" y="37"/>
      <point x="55" y="104"/>
      <point x="55" y="205" type="curve" smooth="yes"/>
      <point x="55" y="349"/>
      <point x="160" y="463"/>
      <point x="297" y="463" type="curve" smooth="yes"/>
      <point x="379" y="463"/>
      <point x="449" y="421"/>
      <point x="493" y="356" type="curve"/>
      <point x="535" y="421"/>
      <point x="606" y="463"/>
      <point x="687" y="463" type="curve" smooth="yes"/>
      <point x="824" y="463"/>
      <point x="929" y="349"/>
    </contour>
  </outline>
</glyph>
<glyph name="u1024" format="2">
  <advance width="1202"/>
  <unicode hex="1024"/>
  <outline>
    <contour>
      <point x="1143" y="-464" type="line"/>
      <point x="1050" y="-464" type="line"/>
      <point x="1050" y="381" type="line" smooth="yes"/>
      <point x="1050" y="566"/>
      <point x="799" y="555"/>
      <point x="799" y="735" type="curve" smooth="yes"/>
      <point x="799" y="839"/>
      <point x="883" y="918"/>
      <point x="985" y="918" type="curve" smooth="yes"/>
      <point x="1069" y="918"/>
      <point x="1129" y="870"/>
      <point x="1146" y="816" type="curve"/>
      <point x="1067" y="768" type="line"/>
      <point x="1054" y="803"/>
      <point x="1022" y="825"/>
      <point x="985" y="825" type="curve" smooth="yes"/>
      <point x="925" y="825"/>
      <point x="892" y="782"/>
      <point x="892" y="735" type="curve" smooth="yes"/>
      <point x="892" y="625"/>
      <point x="1143" y="614"/>
      <point x="1143" y="385" type="curve" smooth="yes"/>
    </contour>
    <contour>
      <point x="930" y="-280" type="line" smooth="yes"/>
      <point x="930" y="-334"/>
      <point x="903" y="-377"/>
      <point x="876" y="-405" type="curve" smooth="yes"/>
      <point x="856" y="-427"/>
      <point x="814" y="-464"/>
      <point x="745" y="-464" type="curve" smooth="yes"/>
      <point x="180" y="-464" type="line" smooth="yes"/>
      <point x="91" y="-464"/>
      <point x="55" y="-388"/>
      <point x="55" y="-336" type="curve" smooth="yes"/>
      <point x="55" y="-215"/>
      <point x="169" y="-167"/>
      <point x="346" y="-167" type="curve" smooth="yes"/>
      <point x="466" y="-167"/>
      <point x="599" y="-197"/>
      <point x="656" y="-239" type="curve"/>
      <point x="600" y="-312" type="line"/>
      <point x="543" y="-284"/>
      <point x="455" y="-262"/>
      <point x="346" y="-262" type="curve" smooth="yes"/>
      <point x="231" y="-262"/>
      <point x="150" y="-278"/>
      <point x="150" y="-336" type="curve" smooth="yes"/>
      <point x="150" y="-349"/>
      <point x="156" y="-371"/>
      <point x="191" y="-371" type="curve" smooth="yes"/>
      <point x="718" y="-371" type="line" smooth="yes"/>
      <point x="766" y="-371"/>
      <point x="781" y="-366"/>
      <point x="807" y="-343" type="curve" smooth="yes"/>
      <point x="827" y="-326"/>
      <point x="837" y="-297"/>
      <point x="837" y="-270" type="curve" smooth="yes"/>
      <point x="837" y="222" type="line" smooth="yes"/>
      <point x="837" y="282"/>
      <point x="787" y="370"/>
      <point x="690" y="370" type="curve" smooth="yes"/>
      <point x="610" y="370"/>
      <point x="539" y="278"/>
      <point x="539" y="202" type="curve" smooth="yes"/>
      <point x="539" y="103"/>
      <point x="513" y="36"/>
      <point x="447" y="-20" type="curve"/>
      <point x="393" y="56" type="line"/>
      <point x="430" y="99"/>
      <point x="446" y="130"/>
      <point x="446" y="205" type="curve" smooth="yes"/>
      <point x="446" y="291"/>
      <point x="387" y="370"/>
      <point x="297" y="370" type="curve" smooth="yes"/>
      <point x="207" y="370"/>
      <point x="150" y="291"/>
      <point x="150" y="205" type="curve" smooth="yes"/>
      <point x="150" y="131"/>
      <point x="165" y="98"/>
      <point x="202" y="56" type="curve"/>
      <point x="148" y="-20" type="line"/>
      <point x="81" y="37"/>
      <point x="55" y="104"/>
      <point x="55" y="205" type="curve" smooth="yes"/>
      <point x="55" y="349"/>
      <point x="160" y="463"/>
      <point x="297" y="463" type="curve" smooth="yes"/>
      <point x="383" y="463"/>
      <point x="455" y="419"/>
      <point x="496" y="349" type="curve"/>
      <point x="536" y="414"/>
      <point x="604" y="464"/>
      <point x="690" y="464" type="curve" smooth="yes"/>
      <point x="821" y="464"/>
      <point x="930" y="354"/>
      <point x="930" y="222" type="curve" smooth="yes"/>
    </contour>
  </outline>
</glyph>
<glyph name="u1025" format="2">
  <advance width="574"/>
  <unicode hex="1025"/>
  <anchor x="279" y="0" name="BS"/>
  <anchor x="279" y="-53" name="L"/>
  <anchor x="279" y="495" name="U"/>
  <anchor x="276" y="0" name="BD"/>
  <outline>
    <contour>
      <point x="510" y="-282" type="line"/>
      <point x="510" y="-346" type="line" smooth="yes"/>
      <point x="510" y="-377"/>
      <point x="506" y="-413"/>
      <point x="487" y="-435" type="curve" smooth="yes"/>
      <point x="467" y="-456"/>
      <point x="441" y="-464"/>
      <point x="390" y="-464" type="curve" smooth="yes"/>
      <point x="240" y="-464" type="line" smooth="yes"/>
      <point x="167" y="-464"/>
      <point x="126" y="-425"/>
      <point x="108" y="-407" type="curve" smooth="yes"/>
      <point x="85" y="-384"/>
      <point x="55" y="-337"/>
      <point x="55" y="-280" type="curve" smooth="yes"/>
      <point x="55" y="112" type="line"/>
      <point x="138" y="156" type="line"/>
      <point x="171" y="97"/>
      <point x="224" y="73"/>
      <point x="279" y="73" type="curve" smooth="yes"/>
      <point x="361" y="73"/>
      <point x="426" y="141"/>
      <point x="426" y="222" type="curve" smooth="yes"/>
      <point x="426" y="302"/>
      <point x="361" y="370"/>
      <point x="279" y="370" type="curve" smooth="yes"/>
      <point x="224" y="370"/>
      <point x="171" y="344"/>
      <point x="138" y="288" type="curve"/>
      <point x="55" y="331" type="line"/>
      <point x="102" y="425"/>
      <point x="199" y="464"/>
      <point x="279" y="464" type="curve" smooth="yes"/>
      <point x="410" y="464"/>
      <point x="520" y="354"/>
      <point x="520" y="222" type="curve" smooth="yes"/>
      <point x="520" y="88"/>
      <point x="410" y="-20"/>
      <point x="279" y="-20" type="curve" smooth="yes"/>
      <point x="235" y="-20"/>
      <point x="189" y="-8"/>
      <point x="150" y="18" type="curve"/>
      <point x="150" y="-270" type="line" smooth="yes"/>
      <point x="150" y="-296"/>
      <point x="157" y="-326"/>
      <point x="176" y="-342" type="curve" smooth="yes"/>
      <point x="198" y="-359"/>
      <point x="222" y="-371"/>
      <point x="252" y="-371" type="curve" smooth="yes"/>
      <point x="377" y="-371" type="line" smooth="yes"/>
      <point x="410" y="-371"/>
      <point x="417" y="-360"/>
      <point x="417" y="-330" type="curve" smooth="yes"/>
      <point x="417" y="-282" type="line"/>
    </contour>
  </outline>
</glyph>
<glyph name="u1027" format="2">
  <advance width="597"/>
  <unicode hex="1027"/>
  <anchor x="306" y="-53" name="BS"/>
  <anchor x="306" y="-53" name="L"/>
  <anchor x="306" y="495" name="U"/>
  <anchor x="292" y="-53" name="BD"/>
  <outline>
    <contour>
      <point x="430" y="123" type="curve"/>
      <point x="404" y="133"/>
      <point x="385" y="137"/>
      <point x="364" y="137" type="curve" smooth="yes"/>
      <point x="307" y="137"/>
      <point x="273" y="114"/>
      <point x="245" y="78" type="curve"/>
      <point x="265" y="71"/>
      <point x="285" y="68"/>
      <point x="306" y="68" type="curve" smooth="yes"/>
      <point x="344" y="68"/>
      <point x="399" y="85"/>
    </contour>
    <contour>
      <point x="429" y="320" type="curve"/>
      <point x="397" y="359"/>
      <point x="342" y="376"/>
      <point x="306" y="376" type="curve" smooth="yes"/>
      <point x="283" y="376"/>
      <point x="265" y="372"/>
      <point x="245" y="363" type="curve"/>
      <point x="281" y="326"/>
      <point x="310" y="307"/>
      <point x="364" y="307" type="curve" smooth="yes"/>
      <point x="388" y="307"/>
      <point x="409" y="310"/>
    </contour>
    <contour>
      <point x="542" y="145" type="curve"/>
      <point x="526" y="79"/>
      <point x="449" y="-20"/>
      <point x="306" y="-20" type="curve" smooth="yes"/>
      <point x="143" y="-20"/>
      <point x="55" y="105"/>
      <point x="55" y="222" type="curve" smooth="yes"/>
      <point x="55" y="338"/>
      <point x="143" y="464"/>
      <point x="306" y="464" type="curve" smooth="yes"/>
      <point x="440" y="464"/>
      <point x="525" y="373"/>
      <point x="542" y="298" type="curve"/>
      <point x="484" y="254"/>
      <point x="417" y="238"/>
      <point x="363" y="238" type="curve" smooth="yes"/>
      <point x="281" y="238"/>
      <point x="224" y="274"/>
      <point x="183" y="319" type="curve"/>
      <point x="160" y="294"/>
      <point x="148" y="253"/>
      <point x="148" y="222" type="curve" smooth="yes"/>
      <point x="148" y="190"/>
      <point x="160" y="151"/>
      <point x="183" y="123" type="curve"/>
      <point x="224" y="171"/>
      <point x="283" y="206"/>
      <point x="364" y="206" type="curve" smooth="yes"/>
      <point x="422" y="206"/>
      <point x="488" y="188"/>
    </contour>
  </outline>
</glyph>
<glyph name="u1028" format="2">
  <advance width="585"/>
  <unicode hex="1028"/>
  <anchor x="294" y="-53" name="BS"/>
  <anchor x="294" y="-53" name="L"/>
  <anchor x="294" y="520" name="U"/>
  <anchor x="292" y="-53" name="BD"/>
  <outline>
    <contour>
      <point x="530" y="-223" type="line"/>
      <point x="530" y="-351"/>
      <point x="435" y="-464"/>
      <point x="294" y="-464" type="curve" smooth="yes"/>
      <point x="140" y="-464"/>
      <point x="55" y="-340"/>
      <point x="55" y="-224" type="curve" smooth="yes"/>
      <point x="55" y="223" type="line" smooth="yes"/>
      <point x="55" y="340"/>
      <point x="140" y="464"/>
      <point x="294" y="464" type="curve" smooth="yes"/>
      <point x="443" y="464"/>
      <point x="530" y="338"/>
      <point x="530" y="221" type="curve" smooth="yes"/>
      <point x="530" y="97"/>
      <point x="474" y="-20"/>
      <point x="338" y="-20" type="curve" smooth="yes"/>
      <point x="277" y="-20"/>
      <point x="222" y="14"/>
      <point x="222" y="79" type="curve" smooth="yes"/>
      <point x="222" y="159"/>
      <point x="331" y="157"/>
      <point x="331" y="188" type="curve" smooth="yes"/>
      <point x="331" y="206"/>
      <point x="317" y="222"/>
      <point x="294" y="222" type="curve" smooth="yes"/>
      <point x="275" y="222"/>
      <point x="256" y="205"/>
      <point x="254" y="192" type="curve"/>
      <point x="197" y="226" type="line"/>
      <point x="209" y="261"/>
      <point x="249" y="291"/>
      <point x="294" y="291" type="curve" smooth="yes"/>
      <point x="354" y="291"/>
      <point x="401" y="246"/>
      <point x="401" y="188" type="curve" smooth="yes"/>
      <point x="401" y="112"/>
      <point x="298" y="108"/>
      <point x="298" y="86" type="curve" smooth="yes"/>
      <point x="298" y="64"/>
      <point x="322" y="60"/>
      <point x="338" y="60" type="curve" smooth="yes"/>
      <point x="397" y="60"/>
      <point x="450" y="100"/>
      <point x="450" y="220" type="curve" smooth="yes"/>
      <point x="450" y="324"/>
      <point x="357" y="370"/>
      <point x="294" y="370" type="curve" smooth="yes"/>
      <point x="212" y="370"/>
      <point x="148" y="309"/>
      <point x="148" y="222" type="curve" smooth="yes"/>
      <point x="148" y="-222" type="line" smooth="yes"/>
      <point x="148" y="-308"/>
      <point x="212" y="-371"/>
      <point x="294" y="-371" type="curve" smooth="yes"/>
      <point x="375" y="-371"/>
      <point x="437" y="-305"/>
      <point x="437" y="-223" type="curve"/>
    </contour>
  </outline>
</glyph>
<glyph name="u1029" format="2">
  <advance width="1195"/>
  <unicode hex="1029"/>
  <anchor x="0" y="0" name="_R"/>
  <anchor x="1296" y="-53" name="BS"/>
  <anchor x="1296" y="-53" name="L"/>
  <anchor x="1263" y="-53" name="BD"/>
  <outline>
    <contour>
      <point x="1140" y="-104" type="line"/>
      <point x="1140" y="-196" type="line" smooth="yes"/>
      <point x="1140" y="-264"/>
      <point x="1119" y="-345"/>
      <point x="1073" y="-392" type="curve" smooth="yes"/>
      <point x="1013" y="-456"/>
      <point x="934" y="-464"/>
      <point x="871" y="-464" type="curve" smooth="yes"/>
      <point x="337" y="-464" type="line" smooth="yes"/>
      <point x="256" y="-464"/>
      <point x="197" y="-445"/>
      <point x="142" y="-386" type="curve" smooth="yes"/>
      <point x="100" y="-341"/>
      <point x="69" y="-281"/>
      <point x="69" y="-196" type="curve" smooth="yes"/>
      <point x="69" y="703" type="line" smooth="yes"/>
      <point x="69" y="772"/>
      <point x="97" y="849"/>
      <point x="151" y="900" type="curve" smooth="yes"/>
      <point x="199" y="944"/>
      <point x="254" y="970"/>
      <point x="326" y="970" type="curve" smooth="yes"/>
      <point x="870" y="970" type="line" smooth="yes"/>
      <point x="958" y="970"/>
      <point x="1024" y="951"/>
      <point x="1074" y="895" type="curve" smooth="yes"/>
      <point x="1113" y="851"/>
      <point x="1137" y="783"/>
      <point x="1140" y="729" type="curve"/>
      <point x="1046" y="729" type="line"/>
      <point x="1043" y="766"/>
      <point x="1029" y="808"/>
      <point x="1005" y="835" type="curve" smooth="yes"/>
      <point x="971" y="871"/>
      <point x="919" y="877"/>
      <point x="854" y="877" type="curve" smooth="yes"/>
      <point x="353" y="877" type="line" smooth="yes"/>
      <point x="295" y="877"/>
      <point x="241" y="860"/>
      <point x="207" y="824" type="curve" smooth="yes"/>
      <point x="174" y="789"/>
      <point x="163" y="732"/>
      <point x="163" y="685" type="curve" smooth="yes"/>
      <point x="163" y="-187" type="line" smooth="yes"/>
      <point x="163" y="-240"/>
      <point x="186" y="-301"/>
      <point x="218" y="-330" type="curve" smooth="yes"/>
      <point x="262" y="-368"/>
      <point x="316" y="-370"/>
      <point x="365" y="-370" type="curve" smooth="yes"/>
      <point x="853" y="-370" type="line" smooth="yes"/>
      <point x="921" y="-370"/>
      <point x="975" y="-361"/>
      <point x="1009" y="-324" type="curve" smooth="yes"/>
      <point x="1041" y="-288"/>
      <point x="1047" y="-234"/>
      <point x="1047" y="-179" type="curve" smooth="yes"/>
      <point x="1047" y="-104" type="line"/>
    </contour>
    <contour>
      <point x="1123" y="222" type="curve" smooth="yes"/>
      <point x="1123" y="90"/>
      <point x="1014" y="-20"/>
      <point x="883" y="-20" type="curve" smooth="yes"/>
      <point x="799" y="-20"/>
      <point x="732" y="30"/>
      <point x="691" y="90" type="curve"/>
      <point x="649" y="22"/>
      <point x="573" y="-20"/>
      <point x="491" y="-20" type="curve" smooth="yes"/>
      <point x="412" y="-20"/>
      <point x="314" y="18"/>
      <point x="268" y="112" type="curve"/>
      <point x="350" y="156" type="line"/>
      <point x="387" y="94"/>
      <point x="439" y="73"/>
      <point x="491" y="73" type="curve" smooth="yes"/>
      <point x="576" y="73"/>
      <point x="639" y="141"/>
      <point x="639" y="224" type="curve" smooth="yes"/>
      <point x="639" y="303"/>
      <point x="569" y="370"/>
      <point x="491" y="370" type="curve" smooth="yes"/>
      <point x="439" y="370"/>
      <point x="380" y="343"/>
      <point x="350" y="288" type="curve"/>
      <point x="268" y="331" type="line"/>
      <point x="314" y="425"/>
      <point x="412" y="464"/>
      <point x="491" y="464" type="curve" smooth="yes"/>
      <point x="617" y="464"/>
      <point x="731" y="358"/>
      <point x="731" y="227" type="curve"/>
      <point x="739" y="160"/>
      <point x="803" y="73"/>
      <point x="883" y="73" type="curve" smooth="yes"/>
      <point x="965" y="73"/>
      <point x="1030" y="141"/>
      <point x="1030" y="222" type="curve" smooth="yes"/>
      <point x="1030" y="302"/>
      <point x="965" y="370"/>
      <point x="883" y="370" type="curve" smooth="yes"/>
      <point x="872" y="370"/>
      <point x="859" y="368"/>
      <point x="849" y="365" type="curve"/>
      <point x="812" y="450" type="line"/>
      <point x="830" y="459"/>
      <point x="857" y="464"/>
      <point x="883" y="464" type="curve" smooth="yes"/>
      <point x="1014" y="464"/>
      <point x="1123" y="356"/>
    </contour>
  </outline>
</glyph>
<glyph name="u102A" format="2">
  <advance width="2193"/>
  <unicode hex="102A"/>
  <outline>
    <contour>
      <point x="2136" y="838" type="curve"/>
      <point x="2084" y="796" type="line"/>
      <point x="2069" y="822"/>
      <point x="2037" y="847"/>
      <point x="2001" y="847" type="curve" smooth="yes"/>
      <point x="1950" y="847"/>
      <point x="1884" y="808"/>
      <point x="1884" y="731" type="curve" smooth="yes"/>
      <point x="1884" y="646"/>
      <point x="1968" y="609"/>
      <point x="2000" y="609" type="curve"/>
      <point x="2000" y="537" type="line"/>
      <point x="1914" y="537"/>
      <point x="1813" y="618"/>
      <point x="1813" y="731" type="curve" smooth="yes"/>
      <point x="1813" y="845"/>
      <point x="1906" y="918"/>
      <point x="2000" y="918" type="curve" smooth="yes"/>
      <point x="2053" y="918"/>
      <point x="2108" y="889"/>
    </contour>
    <contour>
      <point x="431" y="144" type="curve"/>
      <point x="402" y="156"/>
      <point x="378" y="159"/>
      <point x="354" y="159" type="curve" smooth="yes"/>
      <point x="297" y="159"/>
      <point x="251" y="131"/>
      <point x="222" y="92" type="curve"/>
      <point x="244" y="80"/>
      <point x="268" y="73"/>
      <point x="296" y="73" type="curve" smooth="yes"/>
      <point x="337" y="73"/>
      <point x="391" y="89"/>
    </contour>
    <contour>
      <point x="535" y="179" type="curve"/>
      <point x="534" y="71"/>
      <point x="416" y="-20"/>
      <point x="296" y="-20" type="curve" smooth="yes"/>
      <point x="155" y="-20"/>
      <point x="55" y="93"/>
      <point x="55" y="222" type="curve" smooth="yes"/>
      <point x="55" y="338"/>
      <point x="150" y="464"/>
      <point x="296" y="464" type="curve" smooth="yes"/>
      <point x="375" y="464"/>
      <point x="473" y="423"/>
      <point x="518" y="331" type="curve"/>
      <point x="437" y="288" type="line"/>
      <point x="403" y="341"/>
      <point x="354" y="370"/>
      <point x="296" y="370" type="curve" smooth="yes"/>
      <point x="199" y="370"/>
      <point x="148" y="284"/>
      <point x="148" y="222" type="curve" smooth="yes"/>
      <point x="148" y="196"/>
      <point x="156" y="173"/>
      <point x="169" y="153" type="curve"/>
      <point x="220" y="212"/>
      <point x="295" y="238"/>
      <point x="355" y="238" type="curve" smooth="yes"/>
      <point x="415" y="238"/>
      <point x="481" y="215"/>
    </contour>
    <contour>
      <point x="2138" y="222" type="curve" smooth="yes"/>
      <point x="2138" y="88"/>
      <point x="2030" y="-20"/>
      <point x="1901" y="-20" type="curve" smooth="yes"/>
      <point x="1883" y="-20"/>
      <point x="1847" y="-18"/>
      <point x="1812" y="-1" type="curve"/>
      <point x="1848" y="83" type="line"/>
      <point x="1867" y="75"/>
      <point x="1890" y="73"/>
      <point x="1900" y="73" type="curve" smooth="yes"/>
      <point x="1981" y="73"/>
      <point x="2045" y="140"/>
      <point x="2045" y="222" type="curve" smooth="yes"/>
      <point x="2045" y="302"/>
      <point x="1982" y="370"/>
      <point x="1901" y="370" type="curve" smooth="yes"/>
      <point x="1825" y="370"/>
      <point x="1759" y="321"/>
      <point x="1705" y="262" type="curve"/>
      <point x="1709" y="249"/>
      <point x="1711" y="236"/>
      <point x="1711" y="222" type="curve" smooth="yes"/>
      <point x="1711" y="90"/>
      <point x="1602" y="-20"/>
      <point x="1471" y="-20" type="curve" smooth="yes"/>
      <point x="1387" y="-20"/>
      <point x="1321" y="30"/>
      <point x="1279" y="90" type="curve"/>
      <point x="1237" y="22"/>
      <point x="1162" y="-20"/>
      <point x="1079" y="-20" type="curve" smooth="yes"/>
      <point x="998" y="-20"/>
      <point x="902" y="20"/>
      <point x="856" y="112" type="curve"/>
      <point x="939" y="156" type="line"/>
      <point x="975" y="95"/>
      <point x="1027" y="73"/>
      <point x="1079" y="73" type="curve" smooth="yes"/>
      <point x="1164" y="73"/>
      <point x="1227" y="141"/>
      <point x="1227" y="224" type="curve" smooth="yes"/>
      <point x="1227" y="303"/>
      <point x="1158" y="370"/>
      <point x="1079" y="370" type="curve" smooth="yes"/>
      <point x="1027" y="370"/>
      <point x="970" y="345"/>
      <point x="939" y="288" type="curve"/>
      <point x="856" y="331" type="line"/>
      <point x="903" y="425"/>
      <point x="999" y="464"/>
      <point x="1079" y="464" type="curve" smooth="yes"/>
      <point x="1205" y="464"/>
      <point x="1319" y="357"/>
      <point x="1319" y="229" type="curve"/>
      <point x="1325" y="161"/>
      <point x="1391" y="73"/>
      <point x="1471" y="73" type="curve" smooth="yes"/>
      <point x="1553" y="73"/>
      <point x="1618" y="140"/>
      <point x="1618" y="222" type="curve" smooth="yes"/>
      <point x="1618" y="302"/>
      <point x="1553" y="370"/>
      <point x="1471" y="370" type="curve" smooth="yes"/>
      <point x="1460" y="370"/>
      <point x="1447" y="369"/>
      <point x="1437" y="365" type="curve"/>
      <point x="1400" y="450" type="line"/>
      <point x="1418" y="459"/>
      <point x="1445" y="464"/>
      <point x="1471" y="464" type="curve" smooth="yes"/>
      <point x="1552" y="464"/>
      <point x="1627" y="421"/>
      <point x="1669" y="357" type="curve"/>
      <point x="1742" y="424"/>
      <point x="1809" y="464"/>
      <point x="1901" y="464" type="curve" smooth="yes"/>
      <point x="2030" y="464"/>
      <point x="2138" y="354"/>
    </contour>
    <contour>
      <point x="1728" y="729" type="curve"/>
      <point x="1634" y="729" type="line"/>
      <point x="1630" y="764"/>
      <point x="1615" y="803"/>
      <point x="1594" y="828" type="curve" smooth="yes"/>
      <point x="1560" y="870"/>
      <point x="1506" y="877"/>
      <point x="1442" y="877" type="curve" smooth="yes"/>
      <point x="940" y="877" type="line" smooth="yes"/>
      <point x="882" y="877"/>
      <point x="833" y="863"/>
      <point x="798" y="827" type="curve" smooth="yes"/>
      <point x="762" y="790"/>
      <point x="751" y="732"/>
      <point x="751" y="684" type="curve" smooth="yes"/>
      <point x="751" y="-187" type="line" smooth="yes"/>
      <point x="751" y="-240"/>
      <point x="774" y="-301"/>
      <point x="806" y="-330" type="curve" smooth="yes"/>
      <point x="850" y="-368"/>
      <point x="904" y="-370"/>
      <point x="953" y="-370" type="curve" smooth="yes"/>
      <point x="1442" y="-370" type="line" smooth="yes"/>
      <point x="1507" y="-370"/>
      <point x="1561" y="-362"/>
      <point x="1595" y="-326" type="curve" smooth="yes"/>
      <point x="1629" y="-291"/>
      <point x="1635" y="-236"/>
      <point x="1635" y="-179" type="curve" smooth="yes"/>
      <point x="1635" y="-104" type="line"/>
      <point x="1728" y="-104" type="line"/>
      <point x="1728" y="-196" type="line" smooth="yes"/>
      <point x="1728" y="-264"/>
      <point x="1707" y="-345"/>
      <point x="1661" y="-392" type="curve" smooth="yes"/>
      <point x="1601" y="-456"/>
      <point x="1522" y="-464"/>
      <point x="1459" y="-464" type="curve" smooth="yes"/>
      <point x="925" y="-464" type="line" smooth="yes"/>
      <point x="844" y="-464"/>
      <point x="780" y="-437"/>
      <point x="730" y="-386" type="curve" smooth="yes"/>
      <point x="687" y="-342"/>
      <point x="657" y="-273"/>
      <point x="657" y="-196" type="curve" smooth="yes"/>
      <point x="657" y="703" type="line" smooth="yes"/>
      <point x="657" y="757"/>
      <point x="677" y="842"/>
      <point x="739" y="900" type="curve" smooth="yes"/>
      <point x="787" y="944"/>
      <point x="842" y="970"/>
      <point x="914" y="970" type="curve" smooth="yes"/>
      <point x="1459" y="970" type="line" smooth="yes"/>
      <point x="1569" y="970"/>
      <point x="1630" y="934"/>
      <point x="1669" y="886" type="curve" smooth="yes"/>
      <point x="1714" y="828"/>
      <point x="1726" y="760"/>
    </contour>
  </outline>
</glyph>
<glyph name="u102E" format="2">
  <advance width="0"/>
  <unicode hex="102E"/>
  <anchor x="-90" y="495" name="_Y"/>
  <anchor x="-237" y="495" name="_U"/>
  <anchor x="-237" y="495" name="UM"/>
  <outline>
    <contour>
      <point x="-148" y="660" type="curve"/>
      <point x="-174" y="684"/>
      <point x="-209" y="694"/>
      <point x="-236" y="694" type="curve" smooth="yes"/>
      <point x="-263" y="694"/>
      <point x="-296" y="684"/>
      <point x="-325" y="659" type="curve"/>
      <point x="-305" y="633"/>
      <point x="-273" y="614"/>
      <point x="-238" y="614" type="curve" smooth="yes"/>
      <point x="-201" y="614"/>
      <point x="-169" y="632"/>
    </contour>
    <contour>
      <point x="-236" y="846" type="curve" smooth="yes"/>
      <point x="-295" y="846"/>
      <point x="-346" y="795"/>
      <point x="-348" y="735" type="curve" smooth="yes"/>
      <point x="-348" y="729"/>
      <point x="-347" y="723"/>
      <point x="-345" y="717" type="curve"/>
      <point x="-308" y="746"/>
      <point x="-271" y="753"/>
      <point x="-236" y="753" type="curve" smooth="yes"/>
      <point x="-204" y="753"/>
      <point x="-163" y="744"/>
      <point x="-128" y="717" type="curve"/>
      <point x="-126" y="723"/>
      <point x="-125" y="729"/>
      <point x="-125" y="735" type="curve" smooth="yes"/>
      <point x="-130" y="795"/>
      <point x="-176" y="846"/>
    </contour>
    <contour>
      <point x="-55" y="730" type="curve" smooth="yes"/>
      <point x="-55" y="627"/>
      <point x="-136" y="543"/>
      <point x="-236" y="543" type="curve" smooth="yes"/>
      <point x="-337" y="543"/>
      <point x="-419" y="627"/>
      <point x="-419" y="730" type="curve" smooth="yes"/>
      <point x="-419" y="832"/>
      <point x="-337" y="917"/>
      <point x="-238" y="917" type="curve" smooth="yes"/>
      <point x="-136" y="917"/>
      <point x="-55" y="832"/>
    </contour>
  </outline>
</glyph>
<glyph name="u1031" format="2">
  <advance width="592"/>
  <unicode hex="1031"/>
  <anchor x="0" y="0" name="_R"/>
  <anchor x="297" y="-53" name="BS"/>
  <anchor x="297" y="-53" name="L"/>
  <anchor x="297" y="495" name="U"/>
  <anchor x="292" y="-53" name="BD"/>
  <outline>
    <contour>
      <point x="431" y="144" type="curve"/>
      <point x="402" y="156"/>
      <point x="378" y="159"/>
      <point x="354" y="159" type="curve" smooth="yes"/>
      <point x="298" y="159"/>
      <point x="252" y="133"/>
      <point x="222" y="92" type="curve"/>
      <point x="244" y="80"/>
      <point x="268" y="73"/>
      <point x="296" y="73" type="curve" smooth="yes"/>
      <point x="341" y="73"/>
      <point x="398" y="94"/>
    </contour>
    <contour>
      <point x="535" y="179" type="curve"/>
      <point x="534" y="71"/>
      <point x="416" y="-20"/>
      <point x="296" y="-20" type="curve" smooth="yes"/>
      <point x="155" y="-20"/>
      <point x="55" y="93"/>
      <point x="55" y="222" type="curve" smooth="yes"/>
      <point x="55" y="338"/>
      <point x="150" y="464"/>
      <point x="296" y="464" type="curve" smooth="yes"/>
      <point x="379" y="464"/>
      <point x="478" y="419"/>
      <point x="518" y="331" type="curve"/>
      <point x="437" y="288" type="line"/>
      <point x="404" y="340"/>
      <point x="357" y="370"/>
      <point x="296" y="370" type="curve" smooth="yes"/>
      <point x="190" y="370"/>
      <point x="148" y="271"/>
      <point x="148" y="222" type="curve" smooth="yes"/>
      <point x="148" y="196"/>
      <point x="156" y="173"/>
      <point x="169" y="153" type="curve"/>
      <point x="220" y="212"/>
      <point x="293" y="238"/>
      <point x="355" y="238" type="curve" smooth="yes"/>
      <point x="402" y="238"/>
      <point x="470" y="221"/>
    </contour>
  </outline>
</glyph>
<glyph name="u1035" format="2">
  <advance width="0"/>
  <unicode hex="1035"/>
  <anchor x="-91" y="495" name="_Y"/>
  <anchor x="-240" y="495" name="_U"/>
  <anchor x="-231" y="495" name="UM"/>
  <outline>
    <contour>
      <point x="-135" y="671" type="curve"/>
      <point x="-157" y="680"/>
      <point x="-176" y="683"/>
      <point x="-195" y="683" type="curve" smooth="yes"/>
      <point x="-236" y="683"/>
      <point x="-276" y="662"/>
      <point x="-298" y="628" type="curve"/>
      <point x="-281" y="620"/>
      <point x="-261" y="614"/>
      <point x="-240" y="614" type="curve" smooth="yes"/>
      <point x="-208" y="614"/>
      <point x="-164" y="628"/>
    </contour>
    <contour>
      <point x="-56" y="695" type="curve"/>
      <point x="-56" y="611"/>
      <point x="-151" y="542"/>
      <point x="-240" y="542" type="curve" smooth="yes"/>
      <point x="-350" y="542"/>
      <point x="-425" y="629"/>
      <point x="-425" y="729" type="curve" smooth="yes"/>
      <point x="-425" y="819"/>
      <point x="-354" y="915"/>
      <point x="-240" y="915" type="curve" smooth="yes"/>
      <point x="-174" y="915"/>
      <point x="-100" y="879"/>
      <point x="-69" y="814" type="curve"/>
      <point x="-131" y="780" type="line"/>
      <point x="-162" y="824"/>
      <point x="-194" y="844"/>
      <point x="-240" y="844" type="curve" smooth="yes"/>
      <point x="-308" y="844"/>
      <point x="-354" y="786"/>
      <point x="-354" y="729" type="curve" smooth="yes"/>
      <point x="-354" y="709"/>
      <point x="-347" y="689"/>
      <point x="-336" y="676" type="curve"/>
      <point x="-299" y="719"/>
      <point x="-244" y="741"/>
      <point x="-195" y="741" type="curve" smooth="yes"/>
      <point x="-160" y="741"/>
      <point x="-111" y="731"/>
    </contour>
  </outline>
</glyph>
<glyph name="u1036" format="2">
  <advance width="0"/>
  <unicode hex="1036"/>
  <anchor x="-82" y="495" name="_Y"/>
  <anchor x="-151" y="495" name="_U"/>
  <anchor x="-129" y="495" name="UM"/>
  <outline>
    <contour>
      <point x="-109" y="672" type="curve" smooth="yes"/>
      <point x="-109" y="694"/>
      <point x="-129" y="715"/>
      <point x="-154" y="715" type="curve" smooth="yes"/>
      <point x="-181" y="715"/>
      <point x="-199" y="694"/>
      <point x="-199" y="672" type="curve" smooth="yes"/>
      <point x="-199" y="649"/>
      <point x="-181" y="625"/>
      <point x="-154" y="625" type="curve" smooth="yes"/>
      <point x="-129" y="625"/>
      <point x="-109" y="647"/>
    </contour>
    <contour>
      <point x="-55" y="672" type="curve" smooth="yes"/>
      <point x="-55" y="618"/>
      <point x="-101" y="573"/>
      <point x="-154" y="573" type="curve" smooth="yes"/>
      <point x="-207" y="573"/>
      <point x="-253" y="618"/>
      <point x="-253" y="672" type="curve" smooth="yes"/>
      <point x="-253" y="724"/>
      <point x="-207" y="770"/>
      <point x="-154" y="770" type="curve" smooth="yes"/>
      <point x="-101" y="770"/>
      <point x="-55" y="724"/>
    </contour>
  </outline>
</glyph>
<glyph name="u1038" format="2">
  <advance width="309"/>
  <unicode hex="1038"/>
  <outline>
    <contour>
      <point x="199" y="366" type="curve" smooth="yes"/>
      <point x="199" y="390"/>
      <point x="179" y="411"/>
      <point x="154" y="411" type="curve" smooth="yes"/>
      <point x="128" y="411"/>
      <point x="109" y="390"/>
      <point x="109" y="366" type="curve" smooth="yes"/>
      <point x="109" y="342"/>
      <point x="128" y="321"/>
      <point x="154" y="321" type="curve" smooth="yes"/>
      <point x="179" y="321"/>
      <point x="199" y="342"/>
    </contour>
    <contour>
      <point x="253" y="366" type="curve" smooth="yes"/>
      <point x="253" y="311"/>
      <point x="208" y="267"/>
      <point x="154" y="267" type="curve" smooth="yes"/>
      <point x="100" y="267"/>
      <point x="56" y="311"/>
      <point x="56" y="366" type="curve" smooth="yes"/>
      <point x="56" y="421"/>
      <point x="100" y="464"/>
      <point x="154" y="464" type="curve" smooth="yes"/>
      <point x="208" y="464"/>
      <point x="253" y="421"/>
    </contour>
    <contour>
      <point x="199" y="93" type="curve" smooth="yes"/>
      <point x="199" y="117"/>
      <point x="179" y="138"/>
      <point x="154" y="138" type="curve" smooth="yes"/>
      <point x="128" y="138"/>
      <point x="109" y="117"/>
      <point x="109" y="93" type="curve" smooth="yes"/>
      <point x="109" y="69"/>
      <point x="128" y="48"/>
      <point x="154" y="48" type="curve" smooth="yes"/>
      <point x="179" y="48"/>
      <point x="199" y="69"/>
    </contour>
    <contour>
      <point x="253" y="93" type="curve" smooth="yes"/>
      <point x="253" y="39"/>
      <point x="208" y="-5"/>
      <point x="154" y="-5" type="curve" smooth="yes"/>
      <point x="100" y="-5"/>
      <point x="56" y="39"/>
      <point x="56" y="93" type="curve" smooth="yes"/>
      <point x="56" y="148"/>
      <point x="100" y="192"/>
      <point x="154" y="192" type="curve" smooth="yes"/>
      <point x="208" y="192"/>
      <point x="253" y="148"/>
    </contour>
  </outline>
</glyph>
<glyph name="u103E" format="2">
  <advance width="0"/>
  <unicode hex="103E"/>
  <anchor x="-98" y="-53" name="_BS"/>
  <anchor x="-300" y="-53" name="LLM"/>
  <anchor x="-98" y="-53" name="_BSM"/>
  <anchor x="105" y="-53" name="LM"/>
  <anchor x="144" y="-53" name="BSM"/>
  <outline>
    <contour>
      <point x="-55" y="-464" type="line"/>
      <point x="-227" y="-464" type="line"/>
      <point x="-227" y="-380" type="line"/>
      <point x="-140" y="-380" type="line"/>
      <point x="-140" y="-101" type="line"/>
      <point x="-55" y="-101" type="line"/>
    </contour>
  </outline>
</glyph>
<glyph name="u1041" format="2">
  <advance width="577"/>
  <unicode hex="1041"/>
  <anchor x="277" y="-53" name="BS"/>
  <anchor x="277" y="-53" name="L"/>
  <anchor x="283" y="495" name="U"/>
  <anchor x="0" y="0" name="_R"/>
  <anchor x="272" y="-53" name="BD"/>
  <outline>
    <contour>
      <point x="521" y="222" type="curve" smooth="yes"/>
      <point x="521" y="88"/>
      <point x="411" y="-20"/>
      <point x="280" y="-20" type="curve" smooth="yes"/>
      <point x="188" y="-20"/>
      <point x="101" y="26"/>
      <point x="56" y="112" type="curve"/>
      <point x="139" y="156" type="line"/>
      <point x="176" y="96"/>
      <point x="224" y="73"/>
      <point x="280" y="73" type="curve" smooth="yes"/>
      <point x="360" y="73"/>
      <point x="427" y="141"/>
      <point x="427" y="222" type="curve" smooth="yes"/>
      <point x="427" y="303"/>
      <point x="360" y="370"/>
      <point x="280" y="370" type="curve" smooth="yes"/>
      <point x="224" y="370"/>
      <point x="173" y="344"/>
      <point x="139" y="288" type="curve"/>
      <point x="56" y="331" type="line"/>
      <point x="99" y="415"/>
      <point x="186" y="464"/>
      <point x="280" y="464" type="curve" smooth="yes"/>
      <point x="411" y="464"/>
      <point x="521" y="354"/>
    </contour>
  </outline>
</glyph>
<glyph name="u1042" format="2">
  <advance width="568"/>
  <unicode hex="1042"/>
  <anchor x="284" y="-53" name="BS"/>
  <anchor x="284" y="-53" name="L"/>
  <anchor x="284" y="495" name="U"/>
  <anchor x="252" y="-53" name="BD"/>
  <outline>
    <contour>
      <point x="488" y="459" type="line"/>
      <point x="488" y="-276" type="line" smooth="yes"/>
      <point x="488" y="-380"/>
      <point x="425" y="-464"/>
      <point x="284" y="-464" type="curve" smooth="yes"/>
      <point x="146" y="-464"/>
      <point x="80" y="-377"/>
      <point x="80" y="-251" type="curve"/>
      <point x="172" y="-251" type="line"/>
      <point x="172" y="-342"/>
      <point x="226" y="-371"/>
      <point x="284" y="-371" type="curve" smooth="yes"/>
      <point x="347" y="-371"/>
      <point x="395" y="-344"/>
      <point x="395" y="-260" type="curve" smooth="yes"/>
      <point x="395" y="459" type="line"/>
    </contour>
  </outline>
</glyph>
<glyph name="u1044" format="2">
  <advance width="592"/>
  <unicode hex="1044"/>
  <anchor x="308" y="-53" name="BS"/>
  <anchor x="308" y="-53" name="L"/>
  <anchor x="308" y="495" name="U"/>
  <anchor x="297" y="-53" name="BD"/>
  <outline>
    <contour>
      <point x="531" y="112" type="line"/>
      <point x="526" y="101"/>
      <point x="521" y="92"/>
      <point x="514" y="83" type="curve" smooth="yes"/>
      <point x="190" y="-464" type="line"/>
      <point x="80" y="-464" type="line"/>
      <point x="348" y="-15" type="line"/>
      <point x="336" y="-19"/>
      <point x="318" y="-20"/>
      <point x="308" y="-20" type="curve" smooth="yes"/>
      <point x="176" y="-20"/>
      <point x="67" y="88"/>
      <point x="67" y="222" type="curve" smooth="yes"/>
      <point x="67" y="354"/>
      <point x="176" y="464"/>
      <point x="308" y="464" type="curve" smooth="yes"/>
      <point x="389" y="464"/>
      <point x="485" y="424"/>
      <point x="531" y="331" type="curve"/>
      <point x="449" y="288" type="line"/>
      <point x="412" y="345"/>
      <point x="363" y="370"/>
      <point x="308" y="370" type="curve" smooth="yes"/>
      <point x="228" y="370"/>
      <point x="160" y="302"/>
      <point x="160" y="222" type="curve" smooth="yes"/>
      <point x="160" y="140"/>
      <point x="228" y="73"/>
      <point x="308" y="73" type="curve" smooth="yes"/>
      <point x="363" y="73"/>
      <point x="408" y="92"/>
      <point x="449" y="156" type="curve"/>
    </contour>
  </outline>
</glyph>
<glyph name="u1049" format="2">
  <advance width="592"/>
  <unicode hex="1049"/>
  <anchor x="297" y="-53" name="BS"/>
  <anchor x="297" y="-53" name="L"/>
  <anchor x="297" y="495" name="U"/>
  <anchor x="292" y="-53" name="BD"/>
  <outline>
    <contour>
      <point x="389" y="100" type="curve" smooth="yes"/>
      <point x="389" y="128"/>
      <point x="366" y="151"/>
      <point x="338" y="151" type="curve" smooth="yes"/>
      <point x="312" y="151"/>
      <point x="290" y="128"/>
      <point x="290" y="100" type="curve" smooth="yes"/>
      <point x="290" y="72"/>
      <point x="311" y="51"/>
      <point x="340" y="51" type="curve" smooth="yes"/>
      <point x="367" y="51"/>
      <point x="389" y="72"/>
    </contour>
    <contour>
      <point x="533" y="-214" type="line"/>
      <point x="533" y="-354"/>
      <point x="438" y="-464"/>
      <point x="297" y="-464" type="curve" smooth="yes"/>
      <point x="143" y="-464"/>
      <point x="58" y="-341"/>
      <point x="58" y="-224" type="curve" smooth="yes"/>
      <point x="58" y="223" type="line" smooth="yes"/>
      <point x="58" y="339"/>
      <point x="143" y="464"/>
      <point x="297" y="464" type="curve" smooth="yes"/>
      <point x="447" y="464"/>
      <point x="533" y="343"/>
      <point x="533" y="211" type="curve"/>
      <point x="437" y="175" type="line"/>
      <point x="453" y="155"/>
      <point x="464" y="128"/>
      <point x="464" y="100" type="curve" smooth="yes"/>
      <point x="464" y="32"/>
      <point x="408" y="-24"/>
      <point x="340" y="-24" type="curve" smooth="yes"/>
      <point x="274" y="-24"/>
      <point x="215" y="22"/>
      <point x="215" y="100" type="curve" smooth="yes"/>
      <point x="215" y="156"/>
      <point x="251" y="199"/>
      <point x="303" y="218" type="curve" smooth="yes"/>
      <point x="430" y="265" type="line"/>
      <point x="413" y="329"/>
      <point x="363" y="370"/>
      <point x="297" y="370" type="curve" smooth="yes"/>
      <point x="215" y="370"/>
      <point x="152" y="307"/>
      <point x="152" y="222" type="curve" smooth="yes"/>
      <point x="152" y="-222" type="line" smooth="yes"/>
      <point x="152" y="-309"/>
      <point x="215" y="-371"/>
      <point x="297" y="-371" type="curve" smooth="yes"/>
      <point x="378" y="-371"/>
      <point x="440" y="-310"/>
      <point x="440" y="-214" type="curve"/>
    </contour>
  </outline>
</glyph>
<glyph name="u104B" format="2">
  <advance width="376"/>
  <unicode hex="104B"/>
  <outline>
    <contour>
      <point x="148" y="0" type="line"/>
      <point x="55" y="0" type="line"/>
      <point x="55" y="444" type="line"/>
      <point x="148" y="444" type="line"/>
    </contour>
    <contour>
      <point x="320" y="0" type="line"/>
      <point x="227" y="0" type="line"/>
      <point x="227" y="444" type="line"/>
      <point x="320" y="444" type="line"/>
    </contour>
  </outline>
</glyph>
<glyph name="u104C" format="2">
  <advance width="587"/>
  <unicode hex="104C"/>
  <anchor x="656" y="-53" name="BS"/>
  <anchor x="656" y="-53" name="L"/>
  <anchor x="624" y="-53" name="BD"/>
  <outline>
    <contour>
      <point x="515" y="838" type="curve"/>
      <point x="464" y="796" type="line"/>
      <point x="444" y="826"/>
      <point x="415" y="847"/>
      <point x="380" y="847" type="curve" smooth="yes"/>
      <point x="329" y="847"/>
      <point x="263" y="807"/>
      <point x="263" y="731" type="curve" smooth="yes"/>
      <point x="263" y="647"/>
      <point x="347" y="609"/>
      <point x="380" y="609" type="curve"/>
      <point x="380" y="538" type="line"/>
      <point x="294" y="538"/>
      <point x="192" y="617"/>
      <point x="192" y="731" type="curve" smooth="yes"/>
      <point x="192" y="845"/>
      <point x="284" y="918"/>
      <point x="380" y="918" type="curve" smooth="yes"/>
      <point x="428" y="918"/>
      <point x="482" y="894"/>
    </contour>
    <contour>
      <point x="533" y="222" type="curve" smooth="yes"/>
      <point x="533" y="88"/>
      <point x="423" y="-20"/>
      <point x="291" y="-20" type="curve" smooth="yes"/>
      <point x="247" y="-20"/>
      <point x="202" y="-8"/>
      <point x="162" y="17" type="curve"/>
      <point x="162" y="-64" type="line"/>
      <point x="198" y="-82"/>
      <point x="239" y="-93"/>
      <point x="291" y="-93" type="curve" smooth="yes"/>
      <point x="370" y="-93"/>
      <point x="442" y="-60"/>
      <point x="501" y="-15" type="curve"/>
      <point x="501" y="-280" type="line" smooth="yes"/>
      <point x="501" y="-350"/>
      <point x="481" y="-388"/>
      <point x="457" y="-416" type="curve" smooth="yes"/>
      <point x="434" y="-441"/>
      <point x="401" y="-464"/>
      <point x="336" y="-464" type="curve" smooth="yes"/>
      <point x="185" y="-464" type="line" smooth="yes"/>
      <point x="96" y="-464"/>
      <point x="55" y="-403"/>
      <point x="55" y="-341" type="curve" smooth="yes"/>
      <point x="55" y="-272"/>
      <point x="103" y="-222"/>
      <point x="185" y="-222" type="curve" smooth="yes"/>
      <point x="231" y="-222"/>
      <point x="258" y="-236"/>
      <point x="277" y="-252" type="curve"/>
      <point x="232" y="-322" type="line"/>
      <point x="211" y="-308"/>
      <point x="201" y="-303"/>
      <point x="185" y="-303" type="curve" smooth="yes"/>
      <point x="153" y="-303"/>
      <point x="137" y="-317"/>
      <point x="137" y="-341" type="curve" smooth="yes"/>
      <point x="137" y="-367"/>
      <point x="160" y="-381"/>
      <point x="199" y="-381" type="curve" smooth="yes"/>
      <point x="308" y="-381" type="line" smooth="yes"/>
      <point x="353" y="-381"/>
      <point x="367" y="-375"/>
      <point x="386" y="-357" type="curve" smooth="yes"/>
      <point x="402" y="-342"/>
      <point x="408" y="-313"/>
      <point x="408" y="-285" type="curve" smooth="yes"/>
      <point x="408" y="-161" type="line"/>
      <point x="369" y="-173"/>
      <point x="330" y="-180"/>
      <point x="291" y="-180" type="curve" smooth="yes"/>
      <point x="207" y="-180"/>
      <point x="126" y="-154"/>
      <point x="68" y="-106" type="curve"/>
      <point x="68" y="112" type="line"/>
      <point x="152" y="156" type="line"/>
      <point x="188" y="95"/>
      <point x="237" y="73"/>
      <point x="291" y="73" type="curve" smooth="yes"/>
      <point x="372" y="73"/>
      <point x="440" y="141"/>
      <point x="440" y="222" type="curve" smooth="yes"/>
      <point x="440" y="302"/>
      <point x="372" y="370"/>
      <point x="291" y="370" type="curve" smooth="yes"/>
      <point x="237" y="370"/>
      <point x="186" y="346"/>
      <point x="152" y="288" type="curve"/>
      <point x="68" y="331" type="line"/>
      <point x="115" y="425"/>
      <point x="213" y="464"/>
      <point x="291" y="464" type="curve" smooth="yes"/>
      <point x="423" y="464"/>
      <point x="533" y="354"/>
    </contour>
  </outline>
</glyph>
<glyph name="u104D" format="2">
  <advance width="842"/>
  <unicode hex="104D"/>
  <outline>
    <contour>
      <point x="330" y="76" type="curve"/>
      <point x="312" y="110"/>
      <point x="291" y="139"/>
      <point x="257" y="158" type="curve" smooth="yes"/>
      <point x="227" y="175"/>
      <point x="191" y="184"/>
      <point x="154" y="184" type="curve"/>
      <point x="169" y="120"/>
      <point x="227" y="73"/>
      <point x="296" y="73" type="curve" smooth="yes"/>
      <point x="309" y="73"/>
      <point x="317" y="73"/>
    </contour>
    <contour>
      <point x="574" y="-302" type="line"/>
      <point x="480" y="-302" type="line"/>
      <point x="480" y="158" type="line" smooth="yes"/>
      <point x="480" y="305"/>
      <point x="373" y="370"/>
      <point x="296" y="370" type="curve" smooth="yes"/>
      <point x="223" y="370"/>
      <point x="171" y="324"/>
      <point x="156" y="265" type="curve"/>
      <point x="210" y="265"/>
      <point x="266" y="247"/>
      <point x="305" y="221" type="curve" smooth="yes"/>
      <point x="379" y="173"/>
      <point x="415" y="104"/>
      <point x="432" y="17" type="curve"/>
      <point x="392" y="-13"/>
      <point x="343" y="-20"/>
      <point x="296" y="-20" type="curve" smooth="yes"/>
      <point x="164" y="-20"/>
      <point x="55" y="88"/>
      <point x="55" y="222" type="curve" smooth="yes"/>
      <point x="55" y="342"/>
      <point x="154" y="463"/>
      <point x="296" y="463" type="curve" smooth="yes"/>
      <point x="436" y="463"/>
      <point x="574" y="363"/>
      <point x="574" y="166" type="curve" smooth="yes"/>
    </contour>
    <contour>
      <point x="781" y="-280" type="line" smooth="yes"/>
      <point x="781" y="-337"/>
      <point x="751" y="-383"/>
      <point x="727" y="-407" type="curve" smooth="yes"/>
      <point x="711" y="-424"/>
      <point x="669" y="-464"/>
      <point x="586" y="-464" type="curve" smooth="yes"/>
      <point x="224" y="-464" type="line" smooth="yes"/>
      <point x="133" y="-464"/>
      <point x="94" y="-382"/>
      <point x="94" y="-324" type="curve" smooth="yes"/>
      <point x="94" y="-248"/>
      <point x="155" y="-187"/>
      <point x="235" y="-187" type="curve" smooth="yes"/>
      <point x="290" y="-187"/>
      <point x="307" y="-197"/>
      <point x="326" y="-213" type="curve"/>
      <point x="281" y="-294" type="line"/>
      <point x="267" y="-286"/>
      <point x="254" y="-281"/>
      <point x="235" y="-281" type="curve" smooth="yes"/>
      <point x="213" y="-281"/>
      <point x="189" y="-293"/>
      <point x="189" y="-324" type="curve" smooth="yes"/>
      <point x="189" y="-345"/>
      <point x="206" y="-371"/>
      <point x="238" y="-371" type="curve" smooth="yes"/>
      <point x="568" y="-371" type="line" smooth="yes"/>
      <point x="619" y="-371"/>
      <point x="636" y="-362"/>
      <point x="660" y="-342" type="curve" smooth="yes"/>
      <point x="680" y="-326"/>
      <point x="688" y="-296"/>
      <point x="688" y="-270" type="curve" smooth="yes"/>
      <point x="688" y="383" type="line" smooth="yes"/>
      <point x="688" y="565"/>
      <point x="438" y="559"/>
      <point x="438" y="731" type="curve" smooth="yes"/>
      <point x="438" y="844"/>
      <point x="524" y="918"/>
      <point x="628" y="918" type="curve" smooth="yes"/>
      <point x="712" y="918"/>
      <point x="767" y="870"/>
      <point x="784" y="816" type="curve"/>
      <point x="706" y="768" type="line"/>
      <point x="693" y="800"/>
      <point x="666" y="825"/>
      <point x="628" y="825" type="curve" smooth="yes"/>
      <point x="565" y="825"/>
      <point x="531" y="784"/>
      <point x="531" y="731" type="curve" smooth="yes"/>
      <point x="531" y="629"/>
      <point x="781" y="616"/>
      <point x="781" y="383" type="curve" smooth="yes"/>
    </contour>
  </outline>
</glyph>
<glyph name="u104E" format="2">
  <advance width="574"/>
  <unicode hex="104E"/>
  <anchor x="296" y="495" name="U"/>
  <anchor x="292" y="0" name="BS"/>
  <outline>
    <contour>
      <point x="519" y="-464" type="line"/>
      <point x="426" y="-464" type="line"/>
      <point x="426" y="18" type="line"/>
      <point x="386" y="-7"/>
      <point x="341" y="-20"/>
      <point x="296" y="-20" type="curve" smooth="yes"/>
      <point x="164" y="-20"/>
      <point x="55" y="88"/>
      <point x="55" y="222" type="curve" smooth="yes"/>
      <point x="55" y="354"/>
      <point x="164" y="464"/>
      <point x="296" y="464" type="curve" smooth="yes"/>
      <point x="375" y="464"/>
      <point x="473" y="425"/>
      <point x="519" y="331" type="curve"/>
      <point x="436" y="288" type="line"/>
      <point x="399" y="347"/>
      <point x="350" y="370"/>
      <point x="296" y="370" type="curve" smooth="yes"/>
      <point x="216" y="370"/>
      <point x="148" y="302"/>
      <point x="148" y="222" type="curve" smooth="yes"/>
      <point x="148" y="141"/>
      <point x="216" y="73"/>
      <point x="296" y="73" type="curve" smooth="yes"/>
      <point x="350" y="73"/>
      <point x="399" y="94"/>
      <point x="436" y="156" type="curve"/>
      <point x="519" y="112" type="line"/>
    </contour>
  </outline>
</glyph>
<glyph name="u1050" format="2">
  <advance width="595"/>
  <unicode hex="1050"/>
  <anchor x="0" y="0" name="_R"/>
  <anchor x="297" y="-53" name="BS"/>
  <anchor x="297" y="-53" name="L"/>
  <anchor x="297" y="495" name="U"/>
  <anchor x="292" y="-53" name="BD"/>
  <outline>
    <contour>
      <point x="318" y="205" type="curve" smooth="yes"/>
      <point x="318" y="216"/>
      <point x="308" y="226"/>
      <point x="297" y="226" type="curve" smooth="yes"/>
      <point x="286" y="226"/>
      <point x="277" y="216"/>
      <point x="277" y="205" type="curve" smooth="yes"/>
      <point x="277" y="194"/>
      <point x="286" y="184"/>
      <point x="297" y="184" type="curve" smooth="yes"/>
      <point x="308" y="184"/>
      <point x="318" y="194"/>
    </contour>
    <contour>
      <point x="372" y="205" type="curve" smooth="yes"/>
      <point x="372" y="165"/>
      <point x="339" y="131"/>
      <point x="297" y="131" type="curve" smooth="yes"/>
      <point x="258" y="131"/>
      <point x="224" y="164"/>
      <point x="224" y="205" type="curve" smooth="yes"/>
      <point x="224" y="247"/>
      <point x="258" y="280"/>
      <point x="297" y="280" type="curve" smooth="yes"/>
      <point x="338" y="280"/>
      <point x="372" y="247"/>
    </contour>
    <contour>
      <point x="540" y="205" type="curve" smooth="yes"/>
      <point x="540" y="104"/>
      <point x="514" y="37"/>
      <point x="447" y="-20" type="curve"/>
      <point x="393" y="56" type="line"/>
      <point x="430" y="99"/>
      <point x="446" y="130"/>
      <point x="446" y="205" type="curve" smooth="yes"/>
      <point x="446" y="291"/>
      <point x="387" y="370"/>
      <point x="297" y="370" type="curve" smooth="yes"/>
      <point x="207" y="370"/>
      <point x="148" y="291"/>
      <point x="148" y="205" type="curve" smooth="yes"/>
      <point x="148" y="130"/>
      <point x="165" y="99"/>
      <point x="202" y="56" type="curve"/>
      <point x="148" y="-20" type="line"/>
      <point x="81" y="37"/>
      <point x="55" y="104"/>
      <point x="55" y="205" type="curve" smooth="yes"/>
      <point x="55" y="349"/>
      <point x="160" y="463"/>
      <point x="297" y="463" type="curve" smooth="yes"/>
      <point x="434" y="463"/>
      <point x="540" y="349"/>
    </contour>
  </outline>
</glyph>
<glyph name="u1056" format="2">
  <advance width="527"/>
  <unicode hex="1056"/>
  <anchor x="0" y="0" name="_R"/>
  <anchor x="259" y="-53" name="BS"/>
  <anchor x="259" y="-53" name="L"/>
  <anchor x="292" y="495" name="U"/>
  <anchor x="238" y="-53" name="BD"/>
  <outline>
    <contour>
      <point x="472" y="157" type="curve" smooth="yes"/>
      <point x="472" y="28"/>
      <point x="365" y="-20"/>
      <point x="266" y="-20" type="curve" smooth="yes"/>
      <point x="212" y="-20"/>
      <point x="105" y="13"/>
      <point x="55" y="121" type="curve"/>
      <point x="132" y="177" type="line"/>
      <point x="164" y="102"/>
      <point x="227" y="73"/>
      <point x="265" y="73" type="curve" smooth="yes"/>
      <point x="312" y="73"/>
      <point x="377" y="85"/>
      <point x="377" y="157" type="curve" smooth="yes"/>
      <point x="377" y="232"/>
      <point x="184" y="226"/>
      <point x="184" y="352" type="curve" smooth="yes"/>
      <point x="184" y="426"/>
      <point x="256" y="464"/>
      <point x="303" y="464" type="curve" smooth="yes"/>
      <point x="348" y="464"/>
      <point x="383" y="457"/>
      <point x="433" y="407" type="curve"/>
      <point x="383" y="342" type="line"/>
      <point x="350" y="375"/>
      <point x="324" y="381"/>
      <point x="303" y="381" type="curve" smooth="yes"/>
      <point x="293" y="381"/>
      <point x="278" y="372"/>
      <point x="278" y="352" type="curve"/>
      <point x="288" y="312"/>
      <point x="472" y="289"/>
    </contour>
  </outline>
</glyph>
<glyph name="u1058" format="2">
  <advance width="482"/>
  <unicode hex="1058"/>
  <anchor x="242" y="-53" name="_BS"/>
  <anchor x="242" y="-53" name="_BSM"/>
  <anchor x="-495" y="-53" name="BDM"/>
  <anchor x="32" y="-53" name="_LM"/>
  <anchor x="-613" y="-53" name="_LLM"/>
  <anchor x="-293" y="495" name="UM"/>
  <anchor x="32" y="-53" name="BSM"/>
  <outline>
    <contour>
      <point x="347" y="-219" type="curve"/>
      <point x="318" y="-177"/>
      <point x="273" y="-162"/>
      <point x="241" y="-162" type="curve" smooth="yes"/>
      <point x="220" y="-162"/>
      <point x="201" y="-168"/>
      <point x="184" y="-178" type="curve"/>
      <point x="204" y="-208"/>
      <point x="246" y="-232"/>
      <point x="288" y="-232" type="curve" smooth="yes"/>
      <point x="307" y="-232"/>
      <point x="325" y="-228"/>
    </contour>
    <contour>
      <point x="426" y="-244" type="curve"/>
      <point x="371" y="-281"/>
      <point x="322" y="-291"/>
      <point x="288" y="-291" type="curve" smooth="yes"/>
      <point x="245" y="-291"/>
      <point x="181" y="-268"/>
      <point x="145" y="-224" type="curve"/>
      <point x="134" y="-240"/>
      <point x="128" y="-258"/>
      <point x="128" y="-277" type="curve" smooth="yes"/>
      <point x="128" y="-330"/>
      <point x="168" y="-392"/>
      <point x="241" y="-392" type="curve" smooth="yes"/>
      <point x="282" y="-392"/>
      <point x="324" y="-373"/>
      <point x="351" y="-328" type="curve"/>
      <point x="412" y="-362" type="line"/>
      <point x="378" y="-435"/>
      <point x="296" y="-464"/>
      <point x="241" y="-464" type="curve" smooth="yes"/>
      <point x="128" y="-464"/>
      <point x="56" y="-367"/>
      <point x="56" y="-277" type="curve" smooth="yes"/>
      <point x="56" y="-177"/>
      <point x="131" y="-90"/>
      <point x="241" y="-90" type="curve" smooth="yes"/>
      <point x="331" y="-90"/>
      <point x="426" y="-162"/>
    </contour>
  </outline>
</glyph>
<glyph name="u105B" format="2">
  <advance width="781"/>
  <unicode hex="105B"/>
  <anchor x="0" y="0" name="_R"/>
  <anchor x="121" y="-53" name="BS"/>
  <anchor x="211" y="-53" name="L"/>
  <anchor x="294" y="495" name="U"/>
  <anchor x="148" y="-53" name="BD"/>
  <outline>
    <contour>
      <point x="432" y="252" type="curve"/>
      <point x="414" y="272"/>
      <point x="401" y="276"/>
      <point x="373" y="276" type="curve" smooth="yes"/>
      <point x="352" y="276"/>
      <point x="337" y="266"/>
      <point x="337" y="243" type="curve" smooth="yes"/>
      <point x="337" y="223"/>
      <point x="361" y="216"/>
      <point x="377" y="216" type="curve" smooth="yes"/>
      <point x="405" y="216"/>
      <point x="428" y="226"/>
    </contour>
    <contour>
      <point x="726" y="-464" type="line"/>
      <point x="332" y="-371" type="line"/>
      <point x="332" y="-17" type="line"/>
      <point x="320" y="-19"/>
      <point x="307" y="-20"/>
      <point x="293" y="-20" type="curve" smooth="yes"/>
      <point x="163" y="-20"/>
      <point x="55" y="88"/>
      <point x="55" y="222" type="curve" smooth="yes"/>
      <point x="55" y="353"/>
      <point x="167" y="464"/>
      <point x="293" y="464" type="curve" smooth="yes"/>
      <point x="397" y="464"/>
      <point x="497" y="407"/>
      <point x="509" y="292" type="curve"/>
      <point x="538" y="257"/>
      <point x="564" y="215"/>
      <point x="594" y="152" type="curve"/>
      <point x="527" y="103" type="line"/>
      <point x="514" y="128"/>
      <point x="495" y="161"/>
      <point x="480" y="185" type="curve"/>
      <point x="454" y="156"/>
      <point x="415" y="143"/>
      <point x="377" y="143" type="curve" smooth="yes"/>
      <point x="319" y="143"/>
      <point x="264" y="180"/>
      <point x="264" y="243" type="curve" smooth="yes"/>
      <point x="264" y="290"/>
      <point x="292" y="336"/>
      <point x="356" y="345" type="curve" smooth="yes"/>
      <point x="362" y="345"/>
      <point x="370" y="344"/>
      <point x="377" y="340" type="curve"/>
      <point x="360" y="359"/>
      <point x="334" y="374"/>
      <point x="294" y="374" type="curve" smooth="yes"/>
      <point x="220" y="374"/>
      <point x="148" y="300"/>
      <point x="148" y="222" type="curve" smooth="yes"/>
      <point x="148" y="139"/>
      <point x="212" y="73"/>
      <point x="293" y="73" type="curve" smooth="yes"/>
      <point x="346" y="73"/>
      <point x="381" y="86"/>
      <point x="410" y="109" type="curve"/>
      <point x="475" y="43" type="line"/>
      <point x="459" y="28"/>
      <point x="442" y="15"/>
      <point x="425" y="5" type="curve"/>
      <point x="425" y="-298" type="line"/>
      <point x="632" y="-344" type="line"/>
      <point x="632" y="444" type="line"/>
      <point x="726" y="444" type="line"/>
    </contour>
  </outline>
</glyph>
<glyph name="u105C" format="2">
  <advance width="591"/>
  <unicode hex="105C"/>
  <anchor x="0" y="0" name="_R"/>
  <anchor x="297" y="-58" name="BS"/>
  <anchor x="297" y="-58" name="L"/>
  <anchor x="297" y="495" name="U"/>
  <anchor x="290" y="-69" name="BD"/>
  <outline>
    <contour>
      <point x="317" y="221" type="curve" smooth="yes"/>
      <point x="317" y="232"/>
      <point x="308" y="242"/>
      <point x="297" y="242" type="curve" smooth="yes"/>
      <point x="285" y="242"/>
      <point x="276" y="232"/>
      <point x="276" y="221" type="curve" smooth="yes"/>
      <point x="276" y="210"/>
      <point x="285" y="200"/>
      <point x="297" y="200" type="curve" smooth="yes"/>
      <point x="308" y="200"/>
      <point x="317" y="210"/>
    </contour>
    <contour>
      <point x="371" y="221" type="curve" smooth="yes"/>
      <point x="371" y="180"/>
      <point x="337" y="147"/>
      <point x="297" y="147" type="curve" smooth="yes"/>
      <point x="257" y="147"/>
      <point x="223" y="180"/>
      <point x="223" y="221" type="curve" smooth="yes"/>
      <point x="223" y="263"/>
      <point x="257" y="296"/>
      <point x="297" y="296" type="curve" smooth="yes"/>
      <point x="337" y="296"/>
      <point x="371" y="263"/>
    </contour>
    <contour>
      <point x="450" y="221" type="curve" smooth="yes"/>
      <point x="450" y="308"/>
      <point x="382" y="379"/>
      <point x="297" y="379" type="curve" smooth="yes"/>
      <point x="212" y="379"/>
      <point x="143" y="308"/>
      <point x="143" y="221" type="curve" smooth="yes"/>
      <point x="143" y="135"/>
      <point x="211" y="66"/>
      <point x="295" y="66" type="curve" smooth="yes"/>
      <point x="382" y="66"/>
      <point x="450" y="135"/>
    </contour>
    <contour>
      <point x="536" y="221" type="curve" smooth="yes"/>
      <point x="536" y="89"/>
      <point x="428" y="-21"/>
      <point x="297" y="-21" type="curve" smooth="yes"/>
      <point x="164" y="-21"/>
      <point x="55" y="89"/>
      <point x="55" y="221" type="curve" smooth="yes"/>
      <point x="55" y="355"/>
      <point x="164" y="464"/>
      <point x="295" y="464" type="curve" smooth="yes"/>
      <point x="428" y="464"/>
      <point x="536" y="355"/>
    </contour>
  </outline>
</glyph>
<glyph name="u105D" format="2">
  <advance width="594"/>
  <unicode hex="105D"/>
  <anchor x="0" y="0" name="_R"/>
  <anchor x="298" y="-53" name="BS"/>
  <anchor x="298" y="-53" name="L"/>
  <anchor x="297" y="495" name="U"/>
  <anchor x="294" y="-53" name="BD"/>
  <outline>
    <contour>
      <point x="411" y="129" type="curve"/>
      <point x="375" y="161"/>
      <point x="336" y="173"/>
      <point x="297" y="173" type="curve" smooth="yes"/>
      <point x="262" y="173"/>
      <point x="221" y="161"/>
      <point x="184" y="129" type="curve"/>
      <point x="209" y="96"/>
      <point x="249" y="73"/>
      <point x="297" y="73" type="curve" smooth="yes"/>
      <point x="347" y="73"/>
      <point x="384" y="95"/>
    </contour>
    <contour>
      <point x="539" y="-270" type="line" smooth="yes"/>
      <point x="539" y="-382"/>
      <point x="454" y="-464"/>
      <point x="352" y="-464" type="curve" smooth="yes"/>
      <point x="218" y="-464" type="line" smooth="yes"/>
      <point x="127" y="-464"/>
      <point x="89" y="-382"/>
      <point x="89" y="-324" type="curve" smooth="yes"/>
      <point x="89" y="-248"/>
      <point x="149" y="-187"/>
      <point x="229" y="-187" type="curve" smooth="yes"/>
      <point x="269" y="-187"/>
      <point x="297" y="-195"/>
      <point x="322" y="-213" type="curve"/>
      <point x="276" y="-294" type="line"/>
      <point x="261" y="-285"/>
      <point x="246" y="-280"/>
      <point x="229" y="-280" type="curve" smooth="yes"/>
      <point x="207" y="-280"/>
      <point x="183" y="-293"/>
      <point x="183" y="-324" type="curve" smooth="yes"/>
      <point x="183" y="-345"/>
      <point x="197" y="-371"/>
      <point x="236" y="-371" type="curve" smooth="yes"/>
      <point x="336" y="-371" type="line" smooth="yes"/>
      <point x="416" y="-371"/>
      <point x="446" y="-325"/>
      <point x="446" y="-259" type="curve" smooth="yes"/>
      <point x="446" y="32" type="line"/>
      <point x="415" y="1"/>
      <point x="366" y="-20"/>
      <point x="297" y="-20" type="curve" smooth="yes"/>
      <point x="160" y="-20"/>
      <point x="55" y="94"/>
      <point x="55" y="238" type="curve" smooth="yes"/>
      <point x="55" y="338"/>
      <point x="81" y="405"/>
      <point x="148" y="463" type="curve"/>
      <point x="202" y="387" type="line"/>
      <point x="161" y="342"/>
      <point x="148" y="305"/>
      <point x="148" y="236" type="curve" smooth="yes"/>
      <point x="148" y="226"/>
      <point x="150" y="215"/>
      <point x="154" y="205" type="curve"/>
      <point x="195" y="237"/>
      <point x="248" y="252"/>
      <point x="297" y="252" type="curve" smooth="yes"/>
      <point x="346" y="252"/>
      <point x="397" y="238"/>
      <point x="441" y="204" type="curve"/>
      <point x="444" y="214"/>
      <point x="446" y="224"/>
      <point x="446" y="235" type="curve" smooth="yes"/>
      <point x="446" y="305"/>
      <point x="433" y="340"/>
      <point x="393" y="387" type="curve"/>
      <point x="447" y="463" type="line"/>
      <point x="514" y="405"/>
      <point x="539" y="338"/>
      <point x="539" y="238" type="curve" smooth="yes"/>
    </contour>
  </outline>
</glyph>
<glyph name="u105E" format="2">
  <advance width="0"/>
  <unicode hex="105E"/>
  <anchor x="-93" y="-53" name="_BS"/>
  <anchor x="-273" y="-53" name="LLM"/>
  <anchor x="-93" y="-53" name="_BSM"/>
  <anchor x="92" y="-53" name="LM"/>
  <anchor x="144" y="-53" name="BSM"/>
  <outline>
    <contour>
      <point x="-130" y="-274" type="line"/>
      <point x="-162" y="-275"/>
      <point x="-219" y="-289"/>
      <point x="-219" y="-328" type="curve" smooth="yes"/>
      <point x="-219" y="-366"/>
      <point x="-175" y="-386"/>
      <point x="-150" y="-386" type="curve" smooth="yes"/>
      <point x="-132" y="-386"/>
      <point x="-130" y="-376"/>
      <point x="-130" y="-362" type="curve" smooth="yes"/>
    </contour>
    <contour>
      <point x="63" y="-269" type="curve"/>
      <point x="28" y="-318" type="line"/>
      <point x="1" y="-294"/>
      <point x="-27" y="-285"/>
      <point x="-55" y="-279" type="curve"/>
      <point x="-55" y="-354" type="line" smooth="yes"/>
      <point x="-55" y="-430"/>
      <point x="-77" y="-464"/>
      <point x="-150" y="-464" type="curve" smooth="yes"/>
      <point x="-173" y="-464"/>
      <point x="-294" y="-445"/>
      <point x="-294" y="-328" type="curve" smooth="yes"/>
      <point x="-294" y="-218"/>
      <point x="-181" y="-205"/>
      <point x="-130" y="-201" type="curve"/>
      <point x="-130" y="-101" type="line"/>
      <point x="-55" y="-101" type="line"/>
      <point x="-55" y="-204" type="line"/>
      <point x="-13" y="-212"/>
      <point x="22" y="-227"/>
    </contour>
  </outline>
</glyph>
<glyph name="u105F" format="2">
  <advance width="0"/>
  <unicode hex="105F"/>
  <anchor x="-89" y="-54" name="_BS"/>
  <anchor x="-344" y="-53" name="LLM"/>
  <anchor x="-89" y="-54" name="_BSM"/>
  <anchor x="165" y="-53" name="LM"/>
  <anchor x="144" y="-53" name="BSM"/>
  <outline>
    <contour>
      <point x="60" y="-395" type="line"/>
      <point x="9" y="-448"/>
      <point x="-47" y="-464"/>
      <point x="-105" y="-464" type="curve" smooth="yes"/>
      <point x="-160" y="-464"/>
      <point x="-294" y="-451"/>
      <point x="-294" y="-328" type="curve" smooth="yes"/>
      <point x="-294" y="-222"/>
      <point x="-186" y="-204"/>
      <point x="-130" y="-201" type="curve"/>
      <point x="-130" y="-101" type="line"/>
      <point x="-55" y="-101" type="line"/>
      <point x="-55" y="-278" type="line"/>
      <point x="-65" y="-275"/>
      <point x="-84" y="-273"/>
      <point x="-105" y="-273" type="curve" smooth="yes"/>
      <point x="-155" y="-273"/>
      <point x="-219" y="-286"/>
      <point x="-219" y="-328" type="curve" smooth="yes"/>
      <point x="-219" y="-376"/>
      <point x="-163" y="-389"/>
      <point x="-105" y="-389" type="curve" smooth="yes"/>
      <point x="-64" y="-389"/>
      <point x="-10" y="-375"/>
      <point x="25" y="-345" type="curve"/>
    </contour>
  </outline>
</glyph>
<glyph name="u1060" format="2">
  <advance width="0"/>
  <unicode hex="1060"/>
  <anchor x="-262" y="-53" name="_BS"/>
  <anchor x="-262" y="-53" name="_BSM"/>
  <anchor x="-501" y="-53" name="LLM"/>
  <anchor x="-501" y="-53" name="BSM"/>
  <outline>
    <contour>
      <point x="-55" y="-464" type="line"/>
      <point x="-419" y="-464" type="line"/>
      <point x="-216" y="-95" type="line"/>
      <point x="-113" y="-95" type="line"/>
      <point x="-264" y="-374" type="line"/>
      <point x="-55" y="-374" type="line"/>
    </contour>
  </outline>
</glyph>
<glyph name="u1063" format="2">
  <advance width="574"/>
  <unicode hex="1063"/>
  <anchor x="0" y="0" name="_R"/>
  <anchor x="278" y="-53" name="BS"/>
  <anchor x="278" y="-53" name="L"/>
  <anchor x="278" y="495" name="U"/>
  <anchor x="276" y="-53" name="BD"/>
  <outline>
    <contour>
      <point x="519" y="222" type="curve" smooth="yes"/>
      <point x="519" y="88"/>
      <point x="409" y="-20"/>
      <point x="278" y="-20" type="curve" smooth="yes"/>
      <point x="234" y="-20"/>
      <point x="188" y="-7"/>
      <point x="148" y="18" type="curve"/>
      <point x="148" y="-464" type="line"/>
      <point x="55" y="-464" type="line"/>
      <point x="55" y="114" type="line"/>
      <point x="138" y="156" type="line"/>
      <point x="174" y="95"/>
      <point x="224" y="73"/>
      <point x="278" y="73" type="curve" smooth="yes"/>
      <point x="358" y="73"/>
      <point x="426" y="141"/>
      <point x="426" y="222" type="curve" smooth="yes"/>
      <point x="426" y="302"/>
      <point x="358" y="370"/>
      <point x="278" y="370" type="curve" smooth="yes"/>
      <point x="224" y="370"/>
      <point x="174" y="346"/>
      <point x="138" y="288" type="curve"/>
      <point x="55" y="331" type="line"/>
      <point x="99" y="419"/>
      <point x="192" y="464"/>
      <point x="278" y="464" type="curve" smooth="yes"/>
      <point x="409" y="464"/>
      <point x="519" y="354"/>
    </contour>
  </outline>
</glyph>
<glyph name="u1064" format="2">
  <advance width="427"/>
  <unicode hex="1064"/>
  <anchor x="214" y="-53" name="BS"/>
  <anchor x="214" y="-53" name="L"/>
  <anchor x="214" y="495" name="U"/>
  <anchor x="192" y="-53" name="BD"/>
  <outline>
    <contour>
      <point x="387" y="0" type="line"/>
      <point x="169" y="0" type="line"/>
      <point x="169" y="351" type="line"/>
      <point x="40" y="351" type="line"/>
      <point x="40" y="444" type="line"/>
      <point x="257" y="444" type="line"/>
      <point x="257" y="93" type="line"/>
      <point x="387" y="93" type="line"/>
    </contour>
  </outline>
</glyph>
<glyph name="u1065" format="2">
  <advance width="577"/>
  <unicode hex="1065"/>
  <anchor x="0" y="0" name="_R"/>
  <anchor x="280" y="-53" name="BS"/>
  <anchor x="280" y="-53" name="L"/>
  <anchor x="281" y="495" name="U"/>
  <anchor x="279" y="-53" name="BD"/>
  <outline>
    <contour>
      <point x="521" y="222" type="curve" smooth="yes"/>
      <point x="521" y="88"/>
      <point x="411" y="-20"/>
      <point x="280" y="-20" type="curve" smooth="yes"/>
      <point x="186" y="-20"/>
      <point x="99" y="28"/>
      <point x="56" y="112" type="curve"/>
      <point x="139" y="156" type="line"/>
      <point x="175" y="98"/>
      <point x="220" y="73"/>
      <point x="280" y="73" type="curve" smooth="yes"/>
      <point x="360" y="73"/>
      <point x="427" y="141"/>
      <point x="427" y="222" type="curve" smooth="yes"/>
      <point x="427" y="303"/>
      <point x="360" y="370"/>
      <point x="280" y="370" type="curve" smooth="yes"/>
      <point x="220" y="370"/>
      <point x="169" y="340"/>
      <point x="139" y="288" type="curve"/>
      <point x="56" y="331" type="line"/>
      <point x="101" y="417"/>
      <point x="189" y="464"/>
      <point x="280" y="464" type="curve" smooth="yes"/>
      <point x="411" y="464"/>
      <point x="521" y="354"/>
    </contour>
  </outline>
</glyph>
<glyph name="u1067" format="2">
  <advance width="345"/>
  <unicode hex="1067"/>
  <anchor x="168" y="-53" name="BS"/>
  <anchor x="168" y="-53" name="L"/>
  <anchor x="247" y="495" name="U"/>
  <anchor x="138" y="-53" name="BD"/>
  <outline>
    <contour>
      <point x="213" y="101" type="curve" smooth="yes"/>
      <point x="213" y="123"/>
      <point x="193" y="144"/>
      <point x="168" y="144" type="curve" smooth="yes"/>
      <point x="141" y="144"/>
      <point x="123" y="123"/>
      <point x="123" y="101" type="curve" smooth="yes"/>
      <point x="123" y="78"/>
      <point x="141" y="54"/>
      <point x="168" y="54" type="curve" smooth="yes"/>
      <point x="194" y="54"/>
      <point x="213" y="77"/>
    </contour>
    <contour>
      <point x="295" y="469" type="line"/>
      <point x="295" y="105" type="line" smooth="yes"/>
      <point x="295" y="24"/>
      <point x="238" y="-20"/>
      <point x="168" y="-20" type="curve" smooth="yes"/>
      <point x="103" y="-20"/>
      <point x="50" y="35"/>
      <point x="50" y="101" type="curve" smooth="yes"/>
      <point x="50" y="166"/>
      <point x="103" y="221"/>
      <point x="168" y="221" type="curve" smooth="yes"/>
      <point x="179" y="221"/>
      <point x="191" y="219"/>
      <point x="202" y="215" type="curve"/>
      <point x="202" y="469" type="line"/>
    </contour>
  </outline>
</glyph>
<glyph name="u1068" format="2">
  <advance width="385"/>
  <unicode hex="1068"/>
  <anchor x="160" y="-53" name="BS"/>
  <anchor x="160" y="-53" name="L"/>
  <anchor x="134" y="-53" name="BD"/>
  <outline>
    <contour>
      <point x="272" y="0" type="line"/>
      <point x="55" y="0" type="line"/>
      <point x="55" y="93" type="line"/>
      <point x="184" y="93" type="line"/>
      <point x="184" y="444" type="line"/>
      <point x="272" y="444" type="line"/>
    </contour>
    <contour>
      <point x="276" y="672" type="curve" smooth="yes"/>
      <point x="276" y="694"/>
      <point x="256" y="715"/>
      <point x="231" y="715" type="curve" smooth="yes"/>
      <point x="204" y="715"/>
      <point x="186" y="694"/>
      <point x="186" y="672" type="curve" smooth="yes"/>
      <point x="186" y="649"/>
      <point x="204" y="625"/>
      <point x="231" y="625" type="curve" smooth="yes"/>
      <point x="256" y="625"/>
      <point x="276" y="647"/>
    </contour>
    <contour>
      <point x="330" y="672" type="curve" smooth="yes"/>
      <point x="330" y="618"/>
      <point x="284" y="573"/>
      <point x="231" y="573" type="curve" smooth="yes"/>
      <point x="178" y="573"/>
      <point x="132" y="618"/>
      <point x="132" y="672" type="curve" smooth="yes"/>
      <point x="132" y="725"/>
      <point x="178" y="770"/>
      <point x="231" y="770" type="curve" smooth="yes"/>
      <point x="284" y="770"/>
      <point x="330" y="725"/>
    </contour>
  </outline>
</glyph>
<glyph name="u106B" format="2">
  <advance width="352"/>
  <unicode hex="106B"/>
  <anchor x="250" y="-53" name="BS"/>
  <anchor x="250" y="-53" name="L"/>
  <anchor x="174" y="495" name="U"/>
  <anchor x="210" y="-53" name="BD"/>
  <outline>
    <contour>
      <point x="297" y="-5" type="line"/>
      <point x="204" y="-5" type="line"/>
      <point x="204" y="334" type="line" smooth="yes"/>
      <point x="204" y="365"/>
      <point x="189" y="381"/>
      <point x="174" y="381" type="curve" smooth="yes"/>
      <point x="157" y="381"/>
      <point x="143" y="365"/>
      <point x="143" y="339" type="curve"/>
      <point x="50" y="339" type="line"/>
      <point x="50" y="412"/>
      <point x="97" y="469"/>
      <point x="174" y="469" type="curve" smooth="yes"/>
      <point x="249" y="469"/>
      <point x="297" y="412"/>
      <point x="297" y="334" type="curve" smooth="yes"/>
    </contour>
  </outline>
</glyph>
<glyph name="u106D" format="2">
  <advance width="382"/>
  <unicode hex="106D"/>
  <anchor x="0" y="0" name="_R"/>
  <anchor x="190" y="-52" name="BS"/>
  <anchor x="190" y="-52" name="L"/>
  <anchor x="188" y="495" name="U"/>
  <anchor x="174" y="-51" name="BD"/>
  <outline>
    <contour>
      <point x="341" y="145" type="curve" smooth="yes"/>
      <point x="341" y="21"/>
      <point x="245" y="-20"/>
      <point x="191" y="-20" type="curve" smooth="yes"/>
      <point x="161" y="-20"/>
      <point x="91" y="-13"/>
      <point x="50" y="37" type="curve"/>
      <point x="109" y="109" type="line"/>
      <point x="137" y="78"/>
      <point x="169" y="73"/>
      <point x="191" y="73" type="curve" smooth="yes"/>
      <point x="215" y="73"/>
      <point x="248" y="96"/>
      <point x="248" y="144" type="curve" smooth="yes"/>
      <point x="248" y="165"/>
      <point x="234" y="177"/>
      <point x="217" y="185" type="curve" smooth="yes"/>
      <point x="185" y="199"/>
      <point x="127" y="204"/>
      <point x="87" y="236" type="curve" smooth="yes"/>
      <point x="50" y="263"/>
      <point x="44" y="297"/>
      <point x="44" y="328" type="curve" smooth="yes"/>
      <point x="44" y="409"/>
      <point x="111" y="464"/>
      <point x="185" y="464" type="curve" smooth="yes"/>
      <point x="214" y="464"/>
      <point x="271" y="457"/>
      <point x="320" y="409" type="curve"/>
      <point x="261" y="340" type="line"/>
      <point x="234" y="364"/>
      <point x="209" y="374"/>
      <point x="185" y="374" type="curve" smooth="yes"/>
      <point x="154" y="374"/>
      <point x="137" y="350"/>
      <point x="137" y="328" type="curve" smooth="yes"/>
      <point x="137" y="316"/>
      <point x="143" y="307"/>
      <point x="153" y="301" type="curve" smooth="yes"/>
      <point x="186" y="283"/>
      <point x="241" y="273"/>
      <point x="272" y="257" type="curve" smooth="yes"/>
      <point x="317" y="233"/>
      <point x="341" y="190"/>
    </contour>
  </outline>
</glyph>
<glyph name="u106E" format="2">
  <advance width="1204"/>
  <unicode hex="106E"/>
  <anchor x="0" y="0" name="_R"/>
  <anchor x="909" y="-53" name="BS"/>
  <anchor x="909" y="-53" name="L"/>
  <anchor x="601" y="-53" name="BD"/>
  <anchor x="909" y="495" name="U"/>
  <outline>
    <contour>
      <point x="1149" y="222" type="curve" smooth="yes"/>
      <point x="1149" y="88"/>
      <point x="1040" y="-20"/>
      <point x="909" y="-20" type="curve" smooth="yes"/>
      <point x="887" y="-20"/>
      <point x="858" y="-17"/>
      <point x="838" y="-7" type="curve"/>
      <point x="875" y="78" type="line"/>
      <point x="886" y="75"/>
      <point x="898" y="73"/>
      <point x="909" y="73" type="curve" smooth="yes"/>
      <point x="991" y="73"/>
      <point x="1056" y="141"/>
      <point x="1056" y="222" type="curve" smooth="yes"/>
      <point x="1056" y="303"/>
      <point x="991" y="370"/>
      <point x="909" y="370" type="curve" smooth="yes"/>
      <point x="828" y="370"/>
      <point x="759" y="275"/>
      <point x="759" y="202" type="curve" smooth="yes"/>
      <point x="758" y="103"/>
      <point x="733" y="35"/>
      <point x="666" y="-20" type="curve"/>
      <point x="612" y="56" type="line"/>
      <point x="649" y="98"/>
      <point x="665" y="131"/>
      <point x="665" y="205" type="curve" smooth="yes"/>
      <point x="665" y="292"/>
      <point x="607" y="370"/>
      <point x="517" y="370" type="curve" smooth="yes"/>
      <point x="505" y="370"/>
      <point x="492" y="368"/>
      <point x="484" y="365" type="curve"/>
      <point x="517" y="326"/>
      <point x="539" y="271"/>
      <point x="539" y="205" type="curve" smooth="yes"/>
      <point x="539" y="105"/>
      <point x="515" y="37"/>
      <point x="447" y="-20" type="curve"/>
      <point x="393" y="56" type="line"/>
      <point x="429" y="98"/>
      <point x="446" y="131"/>
      <point x="446" y="205" type="curve" smooth="yes"/>
      <point x="446" y="292"/>
      <point x="387" y="370"/>
      <point x="297" y="370" type="curve" smooth="yes"/>
      <point x="207" y="370"/>
      <point x="148" y="292"/>
      <point x="148" y="205" type="curve" smooth="yes"/>
      <point x="148" y="131"/>
      <point x="165" y="98"/>
      <point x="202" y="56" type="curve"/>
      <point x="148" y="-20" type="line"/>
      <point x="81" y="36"/>
      <point x="55" y="105"/>
      <point x="55" y="205" type="curve" smooth="yes"/>
      <point x="55" y="348"/>
      <point x="161" y="463"/>
      <point x="297" y="463" type="curve" smooth="yes"/>
      <point x="335" y="463"/>
      <point x="372" y="455"/>
      <point x="407" y="436" type="curve"/>
      <point x="437" y="453"/>
      <point x="479" y="463"/>
      <point x="517" y="463" type="curve" smooth="yes"/>
      <point x="596" y="463"/>
      <point x="670" y="424"/>
      <point x="715" y="349" type="curve"/>
      <point x="755" y="413"/>
      <point x="824" y="464"/>
      <point x="909" y="464" type="curve" smooth="yes"/>
      <point x="1040" y="464"/>
      <point x="1149" y="354"/>
    </contour>
  </outline>
</glyph>
<glyph name="u106F" format="2">
  <advance width="984"/>
  <unicode hex="106F"/>
  <anchor x="0" y="0" name="_R"/>
  <anchor x="355" y="-53" name="BS"/>
  <anchor x="480" y="-53" name="L"/>
  <anchor x="231" y="-53" name="BD"/>
  <anchor x="689" y="495" name="U"/>
  <outline>
    <contour>
      <point x="726" y="-464" type="line"/>
      <point x="554" y="-464" type="line"/>
      <point x="554" y="-380" type="line"/>
      <point x="642" y="-380" type="line"/>
      <point x="642" y="-101" type="line"/>
      <point x="726" y="-101" type="line"/>
    </contour>
    <contour>
      <point x="929" y="222" type="curve" smooth="yes"/>
      <point x="929" y="88"/>
      <point x="819" y="-20"/>
      <point x="689" y="-20" type="curve" smooth="yes"/>
      <point x="664" y="-20"/>
      <point x="637" y="-16"/>
      <point x="618" y="-7" type="curve"/>
      <point x="655" y="78" type="line"/>
      <point x="665" y="75"/>
      <point x="676" y="73"/>
      <point x="689" y="73" type="curve" smooth="yes"/>
      <point x="770" y="73"/>
      <point x="836" y="141"/>
      <point x="836" y="222" type="curve" smooth="yes"/>
      <point x="836" y="302"/>
      <point x="770" y="370"/>
      <point x="689" y="370" type="curve" smooth="yes"/>
      <point x="610" y="370"/>
      <point x="546" y="282"/>
      <point x="539" y="223" type="curve"/>
      <point x="536" y="98"/>
      <point x="435" y="-20"/>
      <point x="297" y="-20" type="curve" smooth="yes"/>
      <point x="164" y="-20"/>
      <point x="55" y="95"/>
      <point x="55" y="238" type="curve" smooth="yes"/>
      <point x="55" y="338"/>
      <point x="81" y="405"/>
      <point x="148" y="463" type="curve"/>
      <point x="206" y="391" type="line"/>
      <point x="165" y="348"/>
      <point x="148" y="312"/>
      <point x="148" y="238" type="curve" smooth="yes"/>
      <point x="148" y="151"/>
      <point x="216" y="73"/>
      <point x="297" y="73" type="curve" smooth="yes"/>
      <point x="377" y="73"/>
      <point x="446" y="151"/>
      <point x="446" y="238" type="curve" smooth="yes"/>
      <point x="446" y="313"/>
      <point x="428" y="347"/>
      <point x="389" y="391" type="curve"/>
      <point x="447" y="463" type="line"/>
      <point x="477" y="437"/>
      <point x="500" y="410"/>
      <point x="513" y="374" type="curve"/>
      <point x="555" y="425"/>
      <point x="616" y="464"/>
      <point x="689" y="464" type="curve" smooth="yes"/>
      <point x="819" y="464"/>
      <point x="929" y="354"/>
    </contour>
  </outline>
</glyph>
<glyph name="u1070" format="2">
  <advance width="979"/>
  <unicode hex="1070"/>
  <anchor x="0" y="0" name="_R"/>
  <anchor x="355" y="-53" name="BS"/>
  <anchor x="480" y="-53" name="L"/>
  <anchor x="231" y="-53" name="BD"/>
  <anchor x="684" y="495" name="U"/>
  <outline>
    <contour>
      <point x="726" y="-464" type="line"/>
      <point x="554" y="-464" type="line"/>
      <point x="554" y="-380" type="line"/>
      <point x="642" y="-380" type="line"/>
      <point x="642" y="-101" type="line"/>
      <point x="726" y="-101" type="line"/>
    </contour>
    <contour>
      <point x="924" y="222" type="curve" smooth="yes"/>
      <point x="924" y="90"/>
      <point x="814" y="-20"/>
      <point x="684" y="-20" type="curve" smooth="yes"/>
      <point x="598" y="-20"/>
      <point x="530" y="30"/>
      <point x="490" y="93" type="curve"/>
      <point x="445" y="21"/>
      <point x="372" y="-20"/>
      <point x="290" y="-20" type="curve" smooth="yes"/>
      <point x="146" y="-20"/>
      <point x="55" y="83"/>
      <point x="55" y="167" type="curve" smooth="yes"/>
      <point x="55" y="311"/>
      <point x="194" y="285"/>
      <point x="194" y="341" type="curve" smooth="yes"/>
      <point x="194" y="369"/>
      <point x="175" y="380"/>
      <point x="159" y="380" type="curve" smooth="yes"/>
      <point x="143" y="380"/>
      <point x="132" y="368"/>
      <point x="126" y="353" type="curve"/>
      <point x="55" y="395" type="line"/>
      <point x="66" y="434"/>
      <point x="113" y="463"/>
      <point x="159" y="463" type="curve" smooth="yes"/>
      <point x="217" y="463"/>
      <point x="277" y="423"/>
      <point x="277" y="341" type="curve" smooth="yes"/>
      <point x="277" y="234"/>
      <point x="148" y="243"/>
      <point x="148" y="167" type="curve" smooth="yes"/>
      <point x="148" y="136"/>
      <point x="197" y="73"/>
      <point x="290" y="73" type="curve" smooth="yes"/>
      <point x="355" y="73"/>
      <point x="438" y="125"/>
      <point x="438" y="244" type="curve" smooth="yes"/>
      <point x="438" y="301"/>
      <point x="414" y="355"/>
      <point x="385" y="387" type="curve"/>
      <point x="439" y="463" type="line"/>
      <point x="497" y="419"/>
      <point x="532" y="350"/>
      <point x="532" y="235" type="curve" smooth="yes"/>
      <point x="533" y="165"/>
      <point x="605" y="73"/>
      <point x="684" y="73" type="curve" smooth="yes"/>
      <point x="765" y="73"/>
      <point x="831" y="141"/>
      <point x="831" y="222" type="curve" smooth="yes"/>
      <point x="831" y="302"/>
      <point x="765" y="370"/>
      <point x="684" y="370" type="curve" smooth="yes"/>
      <point x="673" y="370"/>
      <point x="661" y="369"/>
      <point x="650" y="364" type="curve"/>
      <point x="613" y="450" type="line"/>
      <point x="632" y="459"/>
      <point x="659" y="464"/>
      <point x="684" y="464" type="curve" smooth="yes"/>
      <point x="814" y="464"/>
      <point x="924" y="356"/>
    </contour>
  </outline>
</glyph>
<glyph name="u1074" format="2">
  <advance width="0"/>
  <unicode hex="1074"/>
  <anchor x="-90" y="495" name="_Y"/>
  <anchor x="-285" y="495" name="_U"/>
  <anchor x="-282" y="495" name="UM"/>
  <outline>
    <contour>
      <point x="-55" y="801" type="line"/>
      <point x="-285" y="569" type="line"/>
      <point x="-517" y="801" type="line"/>
      <point x="-465" y="851" type="line"/>
      <point x="-285" y="673" type="line"/>
      <point x="-107" y="851" type="line"/>
    </contour>
  </outline>
</glyph>
<glyph name="u1075" format="2">
  <advance width="587"/>
  <unicode hex="1075"/>
  <anchor x="0" y="0" name="_R"/>
  <anchor x="290" y="-53" name="BS"/>
  <anchor x="290" y="-53" name="L"/>
  <anchor x="290" y="495" name="U"/>
  <anchor x="285" y="-53" name="BD"/>
  <outline>
    <contour>
      <point x="532" y="203" type="curve" smooth="yes"/>
      <point x="532" y="92"/>
      <point x="497" y="25"/>
      <point x="439" y="-20" type="curve"/>
      <point x="385" y="56" type="line"/>
      <point x="427" y="98"/>
      <point x="439" y="157"/>
      <point x="439" y="203" type="curve" smooth="yes"/>
      <point x="439" y="323"/>
      <point x="349" y="370"/>
      <point x="290" y="370" type="curve" smooth="yes"/>
      <point x="197" y="370"/>
      <point x="148" y="306"/>
      <point x="148" y="276" type="curve" smooth="yes"/>
      <point x="148" y="199"/>
      <point x="277" y="209"/>
      <point x="277" y="102" type="curve" smooth="yes"/>
      <point x="277" y="20"/>
      <point x="219" y="-20"/>
      <point x="153" y="-20" type="curve" smooth="yes"/>
      <point x="119" y="-20"/>
      <point x="75" y="-1"/>
      <point x="55" y="37" type="curve"/>
      <point x="126" y="80" type="line"/>
      <point x="131" y="71"/>
      <point x="142" y="63"/>
      <point x="153" y="63" type="curve" smooth="yes"/>
      <point x="170" y="63"/>
      <point x="194" y="70"/>
      <point x="194" y="102" type="curve" smooth="yes"/>
      <point x="194" y="157"/>
      <point x="55" y="132"/>
      <point x="55" y="276" type="curve" smooth="yes"/>
      <point x="55" y="359"/>
      <point x="146" y="463"/>
      <point x="290" y="463" type="curve" smooth="yes"/>
      <point x="419" y="463"/>
      <point x="532" y="358"/>
    </contour>
  </outline>
</glyph>
<glyph name="u1077" format="2">
  <advance width="594"/>
  <unicode hex="1077"/>
  <anchor x="0" y="0" name="_R"/>
  <anchor x="299" y="-53" name="BS"/>
  <anchor x="299" y="-53" name="L"/>
  <anchor x="299" y="495" name="U"/>
  <anchor x="285" y="-53" name="BD"/>
  <outline>
    <contour>
      <point x="453" y="205" type="curve" smooth="yes"/>
      <point x="453" y="242"/>
      <point x="444" y="275"/>
      <point x="426" y="302" type="curve"/>
      <point x="394" y="275"/>
      <point x="373" y="241"/>
      <point x="373" y="198" type="curve" smooth="yes"/>
      <point x="373" y="158"/>
      <point x="383" y="126"/>
      <point x="406" y="95" type="curve"/>
      <point x="432" y="124"/>
      <point x="453" y="155"/>
    </contour>
    <contour>
      <point x="545" y="205" type="curve" smooth="yes"/>
      <point x="545" y="106"/>
      <point x="488" y="36"/>
      <point x="421" y="-20" type="curve"/>
      <point x="375" y="2"/>
      <point x="293" y="78"/>
      <point x="293" y="199" type="curve" smooth="yes"/>
      <point x="293" y="258"/>
      <point x="319" y="309"/>
      <point x="361" y="352" type="curve"/>
      <point x="345" y="363"/>
      <point x="322" y="370"/>
      <point x="299" y="370" type="curve" smooth="yes"/>
      <point x="199" y="370"/>
      <point x="148" y="306"/>
      <point x="148" y="276" type="curve" smooth="yes"/>
      <point x="148" y="199"/>
      <point x="270" y="209"/>
      <point x="270" y="102" type="curve" smooth="yes"/>
      <point x="270" y="20"/>
      <point x="219" y="-20"/>
      <point x="153" y="-20" type="curve" smooth="yes"/>
      <point x="125" y="-20"/>
      <point x="75" y="-2"/>
      <point x="55" y="37" type="curve"/>
      <point x="126" y="80" type="line"/>
      <point x="130" y="73"/>
      <point x="141" y="63"/>
      <point x="153" y="63" type="curve" smooth="yes"/>
      <point x="170" y="63"/>
      <point x="187" y="75"/>
      <point x="187" y="102" type="curve" smooth="yes"/>
      <point x="187" y="157"/>
      <point x="55" y="132"/>
      <point x="55" y="276" type="curve" smooth="yes"/>
      <point x="55" y="359"/>
      <point x="149" y="463"/>
      <point x="299" y="463" type="curve" smooth="yes"/>
      <point x="433" y="463"/>
      <point x="545" y="352"/>
    </contour>
  </outline>
</glyph>
<glyph name="u1078" format="2">
  <advance width="976"/>
  <unicode hex="1078"/>
  <anchor x="0" y="0" name="_R"/>
  <anchor x="684" y="-53" name="BS"/>
  <anchor x="684" y="-53" name="L"/>
  <anchor x="499" y="-53" name="BD"/>
  <anchor x="684" y="495" name="U"/>
  <outline>
    <contour>
      <point x="829" y="222" type="curve" smooth="yes"/>
      <point x="829" y="303"/>
      <point x="764" y="370"/>
      <point x="682" y="370" type="curve" smooth="yes"/>
      <point x="602" y="370"/>
      <point x="539" y="302"/>
      <point x="539" y="220" type="curve" smooth="yes"/>
      <point x="539" y="143"/>
      <point x="602" y="73"/>
      <point x="685" y="73" type="curve" smooth="yes"/>
      <point x="764" y="73"/>
      <point x="829" y="141"/>
    </contour>
    <contour>
      <point x="921" y="222" type="curve" smooth="yes"/>
      <point x="921" y="88"/>
      <point x="816" y="-20"/>
      <point x="682" y="-20" type="curve" smooth="yes"/>
      <point x="545" y="-20"/>
      <point x="447" y="99"/>
      <point x="447" y="217" type="curve"/>
      <point x="440" y="275"/>
      <point x="379" y="370"/>
      <point x="295" y="370" type="curve" smooth="yes"/>
      <point x="214" y="370"/>
      <point x="148" y="303"/>
      <point x="148" y="222" type="curve" smooth="yes"/>
      <point x="148" y="141"/>
      <point x="214" y="73"/>
      <point x="295" y="73" type="curve" smooth="yes"/>
      <point x="307" y="73"/>
      <point x="318" y="75"/>
      <point x="329" y="78" type="curve"/>
      <point x="365" y="-7" type="line"/>
      <point x="345" y="-17"/>
      <point x="316" y="-20"/>
      <point x="295" y="-20" type="curve" smooth="yes"/>
      <point x="164" y="-20"/>
      <point x="55" y="88"/>
      <point x="55" y="222" type="curve" smooth="yes"/>
      <point x="55" y="354"/>
      <point x="164" y="464"/>
      <point x="295" y="464" type="curve" smooth="yes"/>
      <point x="378" y="464"/>
      <point x="447" y="414"/>
      <point x="487" y="354" type="curve"/>
      <point x="528" y="419"/>
      <point x="602" y="464"/>
      <point x="685" y="464" type="curve" smooth="yes"/>
      <point x="815" y="464"/>
      <point x="921" y="354"/>
    </contour>
  </outline>
</glyph>
<glyph name="u1079" format="2">
  <advance width="947"/>
  <unicode hex="1079"/>
  <anchor x="0" y="0" name="_R"/>
  <anchor x="663" y="-53" name="BS"/>
  <anchor x="663" y="-53" name="L"/>
  <anchor x="473" y="-53" name="BD"/>
  <anchor x="656" y="495" name="U"/>
  <outline>
    <contour>
      <point x="150" y="212" type="curve"/>
      <point x="157" y="132"/>
      <point x="222" y="74"/>
      <point x="296" y="74" type="curve" smooth="yes"/>
      <point x="299" y="74"/>
      <point x="302" y="74"/>
      <point x="305" y="74" type="curve"/>
      <point x="294" y="113"/>
      <point x="274" y="155"/>
      <point x="242" y="177" type="curve" smooth="yes"/>
      <point x="216" y="198"/>
      <point x="185" y="211"/>
    </contour>
    <contour>
      <point x="799" y="222" type="curve" smooth="yes"/>
      <point x="799" y="302"/>
      <point x="734" y="370"/>
      <point x="653" y="370" type="curve" smooth="yes"/>
      <point x="575" y="370"/>
      <point x="510" y="302"/>
      <point x="510" y="222" type="curve" smooth="yes"/>
      <point x="510" y="141"/>
      <point x="576" y="73"/>
      <point x="656" y="73" type="curve" smooth="yes"/>
      <point x="734" y="73"/>
      <point x="799" y="141"/>
    </contour>
    <contour>
      <point x="892" y="222" type="curve" smooth="yes"/>
      <point x="892" y="88"/>
      <point x="786" y="-20"/>
      <point x="653" y="-20" type="curve" smooth="yes"/>
      <point x="522" y="-20"/>
      <point x="417" y="88"/>
      <point x="417" y="222" type="curve" smooth="yes"/>
      <point x="417" y="256"/>
      <point x="424" y="286"/>
      <point x="436" y="315" type="curve"/>
      <point x="386" y="358"/>
      <point x="336" y="370"/>
      <point x="295" y="370" type="curve" smooth="yes"/>
      <point x="239" y="370"/>
      <point x="190" y="333"/>
      <point x="173" y="286" type="curve"/>
      <point x="221" y="278"/>
      <point x="267" y="258"/>
      <point x="299" y="228" type="curve" smooth="yes"/>
      <point x="363" y="168"/>
      <point x="395" y="93"/>
      <point x="396" y="4" type="curve"/>
      <point x="366" y="-16"/>
      <point x="329" y="-20"/>
      <point x="297" y="-20" type="curve" smooth="yes"/>
      <point x="168" y="-20"/>
      <point x="55" y="85"/>
      <point x="55" y="222" type="curve" smooth="yes"/>
      <point x="55" y="355"/>
      <point x="165" y="464"/>
      <point x="295" y="464" type="curve" smooth="yes"/>
      <point x="383" y="464"/>
      <point x="438" y="438"/>
      <point x="488" y="393" type="curve"/>
      <point x="532" y="436"/>
      <point x="590" y="464"/>
      <point x="656" y="464" type="curve" smooth="yes"/>
      <point x="786" y="464"/>
      <point x="892" y="354"/>
    </contour>
  </outline>
</glyph>
<glyph name="u107A" format="2">
  <advance width="1014"/>
  <unicode hex="107A"/>
  <anchor x="0" y="0" name="_R"/>
  <anchor x="804" y="-53" name="BS"/>
  <anchor x="294" y="-53" name="LL"/>
  <anchor x="747" y="-53" name="L"/>
  <anchor x="437" y="495" name="U"/>
  <anchor x="750" y="-53" name="BD"/>
  <outline>
    <contour>
      <point x="959" y="222" type="curve" smooth="yes"/>
      <point x="959" y="90"/>
      <point x="850" y="-20"/>
      <point x="719" y="-20" type="curve" smooth="yes"/>
      <point x="660" y="-20"/>
      <point x="610" y="5"/>
      <point x="574" y="41" type="curve"/>
      <point x="574" y="-371" type="line"/>
      <point x="646" y="-371" type="line"/>
      <point x="646" y="-464" type="line"/>
      <point x="480" y="-464" type="line"/>
      <point x="480" y="158" type="line" smooth="yes"/>
      <point x="480" y="305"/>
      <point x="377" y="370"/>
      <point x="301" y="370" type="curve" smooth="yes"/>
      <point x="210" y="370"/>
      <point x="155" y="301"/>
      <point x="155" y="222" type="curve" smooth="yes"/>
      <point x="155" y="137"/>
      <point x="225" y="73"/>
      <point x="301" y="73" type="curve" smooth="yes"/>
      <point x="321" y="73"/>
      <point x="343" y="79"/>
      <point x="358" y="85" type="curve"/>
      <point x="389" y="-3" type="line"/>
      <point x="362" y="-15"/>
      <point x="330" y="-20"/>
      <point x="301" y="-20" type="curve" smooth="yes"/>
      <point x="172" y="-20"/>
      <point x="62" y="86"/>
      <point x="62" y="222" type="curve" smooth="yes"/>
      <point x="62" y="342"/>
      <point x="158" y="463"/>
      <point x="301" y="463" type="curve" smooth="yes"/>
      <point x="431" y="463"/>
      <point x="550" y="374"/>
      <point x="572" y="205" type="curve"/>
      <point x="590" y="141"/>
      <point x="649" y="73"/>
      <point x="719" y="73" type="curve" smooth="yes"/>
      <point x="800" y="73"/>
      <point x="866" y="141"/>
      <point x="866" y="222" type="curve" smooth="yes"/>
      <point x="866" y="302"/>
      <point x="800" y="370"/>
      <point x="719" y="370" type="curve" smooth="yes"/>
      <point x="706" y="370"/>
      <point x="695" y="369"/>
      <point x="685" y="365" type="curve"/>
      <point x="648" y="450" type="line"/>
      <point x="669" y="460"/>
      <point x="693" y="464"/>
      <point x="719" y="464" type="curve" smooth="yes"/>
      <point x="850" y="464"/>
      <point x="959" y="356"/>
    </contour>
  </outline>
</glyph>
<glyph name="u107B" format="2">
  <advance width="947"/>
  <unicode hex="107B"/>
  <anchor x="-3" y="0" name="_R"/>
  <anchor x="641" y="-53" name="BS"/>
  <anchor x="641" y="-53" name="L"/>
  <anchor x="469" y="-53" name="BD"/>
  <anchor x="643" y="495" name="U"/>
  <outline>
    <contour>
      <point x="798" y="212" type="curve"/>
      <point x="760" y="210"/>
      <point x="731" y="198"/>
      <point x="705" y="177" type="curve" smooth="yes"/>
      <point x="670" y="151"/>
      <point x="654" y="116"/>
      <point x="642" y="74" type="curve"/>
      <point x="722.103" y="74"/>
      <point x="790.643" y="127.919"/>
    </contour>
    <contour>
      <point x="437" y="222" type="curve" smooth="yes"/>
      <point x="437" y="302"/>
      <point x="372" y="370"/>
      <point x="294" y="370" type="curve" smooth="yes"/>
      <point x="213" y="370"/>
      <point x="148" y="302"/>
      <point x="148" y="222" type="curve" smooth="yes"/>
      <point x="148" y="141"/>
      <point x="213" y="73"/>
      <point x="291" y="73" type="curve" smooth="yes"/>
      <point x="371" y="73"/>
      <point x="437" y="141"/>
    </contour>
    <contour>
      <point x="892" y="222" type="curve" smooth="yes"/>
      <point x="892" y="85"/>
      <point x="779" y="-20"/>
      <point x="650" y="-20" type="curve" smooth="yes"/>
      <point x="618" y="-20"/>
      <point x="581" y="-16"/>
      <point x="551" y="4" type="curve"/>
      <point x="556" y="97"/>
      <point x="585" y="170"/>
      <point x="644" y="223" type="curve" smooth="yes"/>
      <point x="682" y="256"/>
      <point x="724" y="277"/>
      <point x="774" y="286" type="curve"/>
      <point x="757" y="333"/>
      <point x="708" y="370"/>
      <point x="652" y="370" type="curve" smooth="yes"/>
      <point x="611" y="370"/>
      <point x="561" y="358"/>
      <point x="511" y="315" type="curve"/>
      <point x="523" y="286"/>
      <point x="530" y="256"/>
      <point x="530" y="222" type="curve" smooth="yes"/>
      <point x="530" y="88"/>
      <point x="425" y="-20"/>
      <point x="294" y="-20" type="curve" smooth="yes"/>
      <point x="161" y="-20"/>
      <point x="55" y="88"/>
      <point x="55" y="222" type="curve" smooth="yes"/>
      <point x="55" y="354"/>
      <point x="161" y="464"/>
      <point x="291" y="464" type="curve" smooth="yes"/>
      <point x="357" y="464"/>
      <point x="415" y="436"/>
      <point x="459" y="393" type="curve"/>
      <point x="509" y="438"/>
      <point x="564" y="464"/>
      <point x="652" y="464" type="curve" smooth="yes"/>
      <point x="782" y="464"/>
      <point x="892" y="355"/>
    </contour>
  </outline>
</glyph>
<glyph name="u107C" format="2">
  <advance width="1013"/>
  <unicode hex="107C"/>
  <anchor x="3" y="0" name="_R"/>
  <anchor x="725" y="-53" name="BS"/>
  <anchor x="725" y="-53" name="L"/>
  <anchor x="502" y="-53" name="BD"/>
  <anchor x="725" y="495" name="U"/>
  <outline>
    <contour>
      <point x="853" y="131" type="curve"/>
      <point x="830" y="161"/>
      <point x="783" y="180"/>
      <point x="730" y="180" type="curve" smooth="yes"/>
      <point x="699" y="180"/>
      <point x="647" y="163"/>
      <point x="615" y="129" type="curve"/>
      <point x="648" y="87"/>
      <point x="694" y="73"/>
      <point x="730" y="73" type="curve" smooth="yes"/>
      <point x="769" y="73"/>
      <point x="824" y="88"/>
    </contour>
    <contour>
      <point x="401" y="130" type="curve"/>
      <point x="372" y="158"/>
      <point x="325" y="180"/>
      <point x="286" y="180" type="curve" smooth="yes"/>
      <point x="242" y="180"/>
      <point x="196" y="165"/>
      <point x="163" y="131" type="curve"/>
      <point x="189" y="92"/>
      <point x="242" y="73"/>
      <point x="286" y="73" type="curve" smooth="yes"/>
      <point x="328" y="73"/>
      <point x="366" y="86"/>
    </contour>
    <contour>
      <point x="958" y="127" type="curve"/>
      <point x="945" y="94"/>
      <point x="886" y="-20"/>
      <point x="726" y="-20" type="curve" smooth="yes"/>
      <point x="630" y="-20"/>
      <point x="549" y="33"/>
      <point x="509" y="111" type="curve"/>
      <point x="469" y="33"/>
      <point x="380" y="-20"/>
      <point x="287" y="-20" type="curve" smooth="yes"/>
      <point x="128" y="-20"/>
      <point x="71" y="94"/>
      <point x="60" y="127" type="curve"/>
      <point x="116" y="220"/>
      <point x="204" y="252"/>
      <point x="287" y="252" type="curve" smooth="yes"/>
      <point x="337" y="252"/>
      <point x="386" y="241"/>
      <point x="433" y="198" type="curve"/>
      <point x="435" y="203"/>
      <point x="435" y="209"/>
      <point x="435" y="214" type="curve" smooth="yes"/>
      <point x="435" y="316"/>
      <point x="355" y="370"/>
      <point x="287" y="370" type="curve" smooth="yes"/>
      <point x="231" y="370"/>
      <point x="178" y="343"/>
      <point x="146" y="288" type="curve"/>
      <point x="65" y="331" type="line"/>
      <point x="104" y="420"/>
      <point x="205" y="464"/>
      <point x="287" y="464" type="curve" smooth="yes"/>
      <point x="380" y="464"/>
      <point x="469" y="406"/>
      <point x="510" y="328" type="curve"/>
      <point x="550" y="406"/>
      <point x="631" y="464"/>
      <point x="726" y="464" type="curve" smooth="yes"/>
      <point x="818" y="464"/>
      <point x="912" y="415"/>
      <point x="951" y="331" type="curve"/>
      <point x="868" y="288" type="line"/>
      <point x="835" y="340"/>
      <point x="792" y="370"/>
      <point x="726" y="370" type="curve" smooth="yes"/>
      <point x="660" y="370"/>
      <point x="582" y="316"/>
      <point x="582" y="213" type="curve" smooth="yes"/>
      <point x="582" y="208"/>
      <point x="582" y="202"/>
      <point x="584" y="197" type="curve"/>
      <point x="626" y="240"/>
      <point x="678" y="252"/>
      <point x="730" y="252" type="curve" smooth="yes"/>
      <point x="813" y="252"/>
      <point x="903" y="220"/>
    </contour>
  </outline>
</glyph>
<glyph name="u107F" format="2">
  <advance width="595"/>
  <unicode hex="107F"/>
  <anchor x="0" y="0" name="_R"/>
  <anchor x="297" y="-53" name="BS"/>
  <anchor x="297" y="-53" name="L"/>
  <anchor x="297" y="495" name="U"/>
  <anchor x="292" y="-53" name="BD"/>
  <outline>
    <contour>
      <point x="228" y="244" type="curve" smooth="yes"/>
      <point x="228" y="285"/>
      <point x="218" y="317"/>
      <point x="195" y="347" type="curve"/>
      <point x="170" y="319"/>
      <point x="148" y="287"/>
      <point x="148" y="238" type="curve" smooth="yes"/>
      <point x="148" y="201"/>
      <point x="160" y="167"/>
      <point x="176" y="141" type="curve"/>
      <point x="208" y="167"/>
      <point x="228" y="201"/>
    </contour>
    <contour>
      <point x="539" y="238" type="curve" smooth="yes"/>
      <point x="539" y="91"/>
      <point x="431" y="-20"/>
      <point x="297" y="-20" type="curve" smooth="yes"/>
      <point x="164" y="-20"/>
      <point x="55" y="91"/>
      <point x="55" y="238" type="curve" smooth="yes"/>
      <point x="55" y="332"/>
      <point x="104" y="400"/>
      <point x="180" y="463" type="curve"/>
      <point x="226" y="440"/>
      <point x="307" y="365"/>
      <point x="307" y="244" type="curve" smooth="yes"/>
      <point x="307" y="184"/>
      <point x="281" y="131"/>
      <point x="238" y="88" type="curve"/>
      <point x="256" y="77"/>
      <point x="275" y="73"/>
      <point x="297" y="73" type="curve" smooth="yes"/>
      <point x="377" y="73"/>
      <point x="446" y="142"/>
      <point x="446" y="238" type="curve" smooth="yes"/>
      <point x="446" y="312"/>
      <point x="427" y="349"/>
      <point x="392" y="387" type="curve"/>
      <point x="446" y="463" type="line"/>
      <point x="512" y="410"/>
      <point x="539" y="336"/>
    </contour>
  </outline>
</glyph>
<glyph name="u1080" format="2">
  <advance width="982"/>
  <unicode hex="1080"/>
  <anchor x="0" y="0" name="_R"/>
  <anchor x="687" y="-53" name="BS"/>
  <anchor x="687" y="-53" name="L"/>
  <anchor x="496" y="-53" name="BD"/>
  <anchor x="687" y="495" name="U"/>
  <outline>
    <contour>
      <point x="369" y="92" type="curve"/>
      <point x="340" y="130"/>
      <point x="292" y="160"/>
      <point x="238" y="160" type="curve" smooth="yes"/>
      <point x="213" y="160"/>
      <point x="188" y="156"/>
      <point x="159" y="144" type="curve"/>
      <point x="199" y="90"/>
      <point x="253" y="73"/>
      <point x="294" y="73" type="curve" smooth="yes"/>
      <point x="323" y="73"/>
      <point x="347" y="80"/>
    </contour>
    <contour>
      <point x="927" y="222" type="curve" smooth="yes"/>
      <point x="927" y="89"/>
      <point x="819" y="-20"/>
      <point x="687" y="-20" type="curve" smooth="yes"/>
      <point x="604" y="-20"/>
      <point x="536" y="28"/>
      <point x="496" y="89" type="curve"/>
      <point x="455" y="24"/>
      <point x="382" y="-20"/>
      <point x="294" y="-20" type="curve" smooth="yes"/>
      <point x="181" y="-20"/>
      <point x="58" y="69"/>
      <point x="56" y="179" type="curve"/>
      <point x="127" y="224"/>
      <point x="193" y="239"/>
      <point x="237" y="239" type="curve" smooth="yes"/>
      <point x="295" y="239"/>
      <point x="372" y="212"/>
      <point x="422" y="153" type="curve"/>
      <point x="434" y="172"/>
      <point x="443" y="195"/>
      <point x="443" y="222" type="curve" smooth="yes"/>
      <point x="443" y="286"/>
      <point x="393" y="370"/>
      <point x="294" y="370" type="curve" smooth="yes"/>
      <point x="235" y="370"/>
      <point x="185" y="340"/>
      <point x="154" y="288" type="curve"/>
      <point x="73" y="331" type="line"/>
      <point x="115" y="419"/>
      <point x="209" y="464"/>
      <point x="294" y="464" type="curve" smooth="yes"/>
      <point x="436" y="464"/>
      <point x="529" y="347"/>
      <point x="534" y="234" type="curve" smooth="yes"/>
      <point x="541" y="159"/>
      <point x="608" y="73"/>
      <point x="687" y="73" type="curve" smooth="yes"/>
      <point x="768" y="73"/>
      <point x="835" y="141"/>
      <point x="835" y="222" type="curve" smooth="yes"/>
      <point x="835" y="303"/>
      <point x="768" y="370"/>
      <point x="687" y="370" type="curve" smooth="yes"/>
      <point x="675" y="370"/>
      <point x="663" y="368"/>
      <point x="653" y="364" type="curve"/>
      <point x="617" y="450" type="line"/>
      <point x="639" y="460"/>
      <point x="665" y="464"/>
      <point x="687" y="464" type="curve" smooth="yes"/>
      <point x="819" y="464"/>
      <point x="927" y="355"/>
    </contour>
  </outline>
</glyph>
<glyph name="u1081" format="2">
  <advance width="575"/>
  <unicode hex="1081"/>
  <anchor x="292" y="495" name="U"/>
  <anchor x="500" y="-53" name="BS"/>
  <anchor x="500" y="-53" name="BD"/>
  <anchor x="0" y="0" name="_R"/>
  <anchor x="500" y="-53" name="L"/>
  <outline>
    <contour>
      <point x="520" y="331" type="curve"/>
      <point x="437" y="288" type="line"/>
      <point x="402" y="345"/>
      <point x="352" y="370"/>
      <point x="297" y="370" type="curve" smooth="yes"/>
      <point x="215" y="370"/>
      <point x="150" y="302"/>
      <point x="150" y="222" type="curve" smooth="yes"/>
      <point x="150" y="142"/>
      <point x="212" y="76"/>
      <point x="291" y="73" type="curve"/>
      <point x="327" y="171" type="line"/>
      <point x="414" y="139" type="line"/>
      <point x="196" y="-464" type="line"/>
      <point x="30" y="-403" type="line"/>
      <point x="62" y="-316" type="line"/>
      <point x="140" y="-345" type="line"/>
      <point x="258" y="-17" type="line"/>
      <point x="144" y="0"/>
      <point x="56" y="103"/>
      <point x="56" y="222" type="curve" smooth="yes"/>
      <point x="56" y="354"/>
      <point x="165" y="464"/>
      <point x="297" y="464" type="curve" smooth="yes"/>
      <point x="376" y="464"/>
      <point x="473" y="425"/>
    </contour>
  </outline>
</glyph>
<glyph name="u1086" format="2">
  <advance width="0"/>
  <unicode hex="1086"/>
  <anchor x="-96" y="495" name="_Y"/>
  <anchor x="-176" y="495" name="_U"/>
  <anchor x="-169" y="495" name="UM"/>
  <outline>
    <contour>
      <point x="-122" y="800" type="curve" smooth="yes"/>
      <point x="-122" y="827"/>
      <point x="-146" y="853"/>
      <point x="-177" y="853" type="curve" smooth="yes"/>
      <point x="-211" y="853"/>
      <point x="-232" y="827"/>
      <point x="-232" y="800" type="curve" smooth="yes"/>
      <point x="-232" y="775"/>
      <point x="-211" y="742"/>
      <point x="-177" y="742" type="curve" smooth="yes"/>
      <point x="-144" y="742"/>
      <point x="-122" y="769"/>
    </contour>
    <contour>
      <point x="-61" y="799" type="curve" smooth="yes"/>
      <point x="-61" y="788" type="line" smooth="yes"/>
      <point x="-61" y="667"/>
      <point x="-141" y="573"/>
      <point x="-203" y="535" type="curve"/>
      <point x="-220" y="550" type="line"/>
      <point x="-181" y="576"/>
      <point x="-142" y="641"/>
      <point x="-134" y="687" type="curve"/>
      <point x="-146" y="682"/>
      <point x="-161" y="680"/>
      <point x="-176" y="680" type="curve" smooth="yes"/>
      <point x="-239" y="680"/>
      <point x="-292" y="734"/>
      <point x="-292" y="799" type="curve" smooth="yes"/>
      <point x="-292" y="865"/>
      <point x="-239" y="917"/>
      <point x="-176" y="917" type="curve" smooth="yes"/>
      <point x="-113" y="917"/>
      <point x="-61" y="865"/>
    </contour>
  </outline>
</glyph>
<glyph name="u1089" format="2">
  <advance width="302"/>
  <unicode hex="1089"/>
  <outline>
    <contour>
      <point x="196" y="92" type="curve" smooth="yes"/>
      <point x="196" y="114"/>
      <point x="177" y="136"/>
      <point x="151" y="136" type="curve" smooth="yes"/>
      <point x="123" y="136"/>
      <point x="106" y="114"/>
      <point x="106" y="92" type="curve" smooth="yes"/>
      <point x="106" y="71"/>
      <point x="123" y="45"/>
      <point x="151" y="45" type="curve" smooth="yes"/>
      <point x="177" y="45"/>
      <point x="196" y="69"/>
    </contour>
    <contour>
      <point x="250" y="92" type="curve" smooth="yes"/>
      <point x="250" y="38"/>
      <point x="205" y="-6"/>
      <point x="151" y="-6" type="curve" smooth="yes"/>
      <point x="98" y="-6"/>
      <point x="52" y="38"/>
      <point x="52" y="92" type="curve" smooth="yes"/>
      <point x="52" y="146"/>
      <point x="98" y="191"/>
      <point x="151" y="191" type="curve" smooth="yes"/>
      <point x="205" y="191"/>
      <point x="250" y="146"/>
    </contour>
  </outline>
</glyph>
<glyph name="u108A" format="2">
  <advance width="427"/>
  <unicode hex="108A"/>
  <outline>
    <contour>
      <point x="199" y="94" type="curve" smooth="yes"/>
      <point x="199" y="117"/>
      <point x="178" y="137"/>
      <point x="153" y="137" type="curve" smooth="yes"/>
      <point x="128" y="137"/>
      <point x="109" y="117"/>
      <point x="109" y="94" type="curve" smooth="yes"/>
      <point x="109" y="70"/>
      <point x="128" y="47"/>
      <point x="153" y="47" type="curve" smooth="yes"/>
      <point x="178" y="47"/>
      <point x="199" y="68"/>
    </contour>
    <contour>
      <point x="371" y="115" type="line"/>
      <point x="353" y="74"/>
      <point x="266" y="-5"/>
      <point x="163" y="-5" type="curve" smooth="yes"/>
      <point x="153" y="-5" type="line" smooth="yes"/>
      <point x="99" y="-5"/>
      <point x="55" y="40"/>
      <point x="55" y="94" type="curve" smooth="yes"/>
      <point x="55" y="146"/>
      <point x="99" y="192"/>
      <point x="153" y="192" type="curve" smooth="yes"/>
      <point x="208" y="192"/>
      <point x="252" y="146"/>
      <point x="252" y="94" type="curve" smooth="yes"/>
      <point x="252" y="81"/>
      <point x="249" y="69"/>
      <point x="244" y="59" type="curve"/>
      <point x="284" y="64"/>
      <point x="340" y="96"/>
      <point x="359" y="128" type="curve"/>
    </contour>
    <contour>
      <point x="199" y="366" type="curve" smooth="yes"/>
      <point x="199" y="389"/>
      <point x="178" y="409"/>
      <point x="153" y="409" type="curve" smooth="yes"/>
      <point x="128" y="409"/>
      <point x="109" y="389"/>
      <point x="109" y="366" type="curve" smooth="yes"/>
      <point x="109" y="342"/>
      <point x="128" y="319"/>
      <point x="153" y="319" type="curve" smooth="yes"/>
      <point x="178" y="319"/>
      <point x="199" y="340"/>
    </contour>
    <contour>
      <point x="371" y="387" type="line"/>
      <point x="355" y="346"/>
      <point x="266" y="268"/>
      <point x="164" y="267" type="curve" smooth="yes"/>
      <point x="153" y="267" type="line" smooth="yes"/>
      <point x="99" y="267"/>
      <point x="55" y="312"/>
      <point x="55" y="366" type="curve" smooth="yes"/>
      <point x="55" y="418"/>
      <point x="99" y="464"/>
      <point x="153" y="464" type="curve" smooth="yes"/>
      <point x="208" y="464"/>
      <point x="252" y="418"/>
      <point x="252" y="366" type="curve" smooth="yes"/>
      <point x="252" y="353"/>
      <point x="249" y="341"/>
      <point x="244" y="331" type="curve"/>
      <point x="284" y="336"/>
      <point x="340" y="368"/>
      <point x="359" y="400" type="curve"/>
    </contour>
  </outline>
</glyph>
<glyph name="u108C" format="2">
  <advance width="558"/>
  <unicode hex="108C"/>
  <outline>
    <contour>
      <point x="450" y="223" type="curve" smooth="yes"/>
      <point x="450" y="244"/>
      <point x="431" y="266"/>
      <point x="405" y="266" type="curve" smooth="yes"/>
      <point x="377" y="266"/>
      <point x="360" y="244"/>
      <point x="360" y="223" type="curve" smooth="yes"/>
      <point x="360" y="201"/>
      <point x="377" y="176"/>
      <point x="405" y="176" type="curve" smooth="yes"/>
      <point x="431" y="176"/>
      <point x="450" y="199"/>
    </contour>
    <contour>
      <point x="504" y="223" type="curve" smooth="yes"/>
      <point x="504" y="169"/>
      <point x="458" y="125"/>
      <point x="405" y="125" type="curve" smooth="yes"/>
      <point x="352" y="125"/>
      <point x="306" y="169"/>
      <point x="306" y="223" type="curve" smooth="yes"/>
      <point x="306" y="276"/>
      <point x="352" y="321"/>
      <point x="405" y="321" type="curve" smooth="yes"/>
      <point x="458" y="321"/>
      <point x="504" y="276"/>
    </contour>
    <contour>
      <point x="199" y="223" type="curve" smooth="yes"/>
      <point x="199" y="244"/>
      <point x="180" y="266"/>
      <point x="154" y="266" type="curve" smooth="yes"/>
      <point x="126" y="266"/>
      <point x="109" y="244"/>
      <point x="109" y="223" type="curve" smooth="yes"/>
      <point x="109" y="201"/>
      <point x="126" y="176"/>
      <point x="154" y="176" type="curve" smooth="yes"/>
      <point x="180" y="176"/>
      <point x="199" y="199"/>
    </contour>
    <contour>
      <point x="253" y="223" type="curve" smooth="yes"/>
      <point x="253" y="169"/>
      <point x="207" y="125"/>
      <point x="154" y="125" type="curve" smooth="yes"/>
      <point x="101" y="125"/>
      <point x="55" y="169"/>
      <point x="55" y="223" type="curve" smooth="yes"/>
      <point x="55" y="276"/>
      <point x="101" y="321"/>
      <point x="154" y="321" type="curve" smooth="yes"/>
      <point x="207" y="321"/>
      <point x="253" y="276"/>
    </contour>
  </outline>
</glyph>
<glyph name="u108E" format="2">
  <advance width="586"/>
  <unicode hex="108E"/>
  <anchor x="0" y="0" name="_R"/>
  <anchor x="294" y="-53" name="BS"/>
  <anchor x="294" y="-53" name="L"/>
  <anchor x="294" y="495" name="U"/>
  <anchor x="288" y="-53" name="BD"/>
  <outline>
    <contour>
      <point x="407" y="312" type="curve"/>
      <point x="379" y="348"/>
      <point x="339" y="370"/>
      <point x="293" y="370" type="curve" smooth="yes"/>
      <point x="246" y="370"/>
      <point x="205" y="347"/>
      <point x="179" y="312" type="curve"/>
      <point x="216" y="281"/>
      <point x="257" y="270"/>
      <point x="293" y="270" type="curve" smooth="yes"/>
      <point x="329" y="270"/>
      <point x="370" y="281"/>
    </contour>
    <contour>
      <point x="436" y="213" type="curve" smooth="yes"/>
      <point x="436" y="221"/>
      <point x="435" y="229"/>
      <point x="432" y="237" type="curve"/>
      <point x="387" y="200"/>
      <point x="335" y="191"/>
      <point x="293" y="191" type="curve" smooth="yes"/>
      <point x="249" y="191"/>
      <point x="199" y="200"/>
      <point x="153" y="237" type="curve"/>
      <point x="150" y="230"/>
      <point x="148" y="222"/>
      <point x="148" y="214" type="curve" smooth="yes"/>
      <point x="148" y="160"/>
      <point x="197" y="73"/>
      <point x="291" y="73" type="curve" smooth="yes"/>
      <point x="387" y="73"/>
      <point x="436" y="160"/>
    </contour>
    <contour>
      <point x="530" y="222" type="curve" smooth="yes"/>
      <point x="530" y="88"/>
      <point x="424" y="-20"/>
      <point x="293" y="-20" type="curve" smooth="yes"/>
      <point x="160" y="-20"/>
      <point x="55" y="88"/>
      <point x="55" y="222" type="curve" smooth="yes"/>
      <point x="55" y="354"/>
      <point x="161" y="464"/>
      <point x="291" y="464" type="curve" smooth="yes"/>
      <point x="425" y="464"/>
      <point x="530" y="354"/>
    </contour>
  </outline>
</glyph>
